<?xml version="1.0" encoding="utf-8"?>
<svg xmlns="http://www.w3.org/2000/svg" xmlns:xlink="http://www.w3.org/1999/xlink" width="600" height="400" viewBox="0 0 2400 1600">
<defs>
  <clipPath id="clip650">
    <rect x="0" y="0" width="2400" height="1600"/>
  </clipPath>
</defs>
<path clip-path="url(#clip650)" d="
M0 1600 L2400 1600 L2400 0 L0 0  Z
  " fill="#ffffff" fill-rule="evenodd" fill-opacity="1"/>
<defs>
  <clipPath id="clip651">
    <rect x="480" y="0" width="1681" height="1600"/>
  </clipPath>
</defs>
<defs>
  <clipPath id="clip652">
    <rect x="203" y="47" width="2150" height="1377"/>
  </clipPath>
</defs>
<path clip-path="url(#clip650)" d="
M249.542 1423.18 L2352.76 1423.18 L2352.76 47.2441 L249.542 47.2441  Z
  " fill="#ffffff" fill-rule="evenodd" fill-opacity="1"/>
<defs>
  <clipPath id="clip653">
    <rect x="249" y="47" width="2104" height="1377"/>
  </clipPath>
</defs>
<polyline clip-path="url(#clip653)" style="stroke:#000000; stroke-linecap:round; stroke-linejoin:round; stroke-width:2; stroke-opacity:0.1; fill:none" points="
  309.067,1423.18 309.067,47.2441 
  "/>
<polyline clip-path="url(#clip653)" style="stroke:#000000; stroke-linecap:round; stroke-linejoin:round; stroke-width:2; stroke-opacity:0.1; fill:none" points="
  614.323,1423.18 614.323,47.2441 
  "/>
<polyline clip-path="url(#clip653)" style="stroke:#000000; stroke-linecap:round; stroke-linejoin:round; stroke-width:2; stroke-opacity:0.1; fill:none" points="
  919.579,1423.18 919.579,47.2441 
  "/>
<polyline clip-path="url(#clip653)" style="stroke:#000000; stroke-linecap:round; stroke-linejoin:round; stroke-width:2; stroke-opacity:0.1; fill:none" points="
  1224.83,1423.18 1224.83,47.2441 
  "/>
<polyline clip-path="url(#clip653)" style="stroke:#000000; stroke-linecap:round; stroke-linejoin:round; stroke-width:2; stroke-opacity:0.1; fill:none" points="
  1530.09,1423.18 1530.09,47.2441 
  "/>
<polyline clip-path="url(#clip653)" style="stroke:#000000; stroke-linecap:round; stroke-linejoin:round; stroke-width:2; stroke-opacity:0.1; fill:none" points="
  1835.35,1423.18 1835.35,47.2441 
  "/>
<polyline clip-path="url(#clip653)" style="stroke:#000000; stroke-linecap:round; stroke-linejoin:round; stroke-width:2; stroke-opacity:0.1; fill:none" points="
  2140.6,1423.18 2140.6,47.2441 
  "/>
<polyline clip-path="url(#clip650)" style="stroke:#000000; stroke-linecap:round; stroke-linejoin:round; stroke-width:4; stroke-opacity:1; fill:none" points="
  249.542,1423.18 2352.76,1423.18 
  "/>
<polyline clip-path="url(#clip650)" style="stroke:#000000; stroke-linecap:round; stroke-linejoin:round; stroke-width:4; stroke-opacity:1; fill:none" points="
  309.067,1423.18 309.067,1404.28 
  "/>
<polyline clip-path="url(#clip650)" style="stroke:#000000; stroke-linecap:round; stroke-linejoin:round; stroke-width:4; stroke-opacity:1; fill:none" points="
  614.323,1423.18 614.323,1404.28 
  "/>
<polyline clip-path="url(#clip650)" style="stroke:#000000; stroke-linecap:round; stroke-linejoin:round; stroke-width:4; stroke-opacity:1; fill:none" points="
  919.579,1423.18 919.579,1404.28 
  "/>
<polyline clip-path="url(#clip650)" style="stroke:#000000; stroke-linecap:round; stroke-linejoin:round; stroke-width:4; stroke-opacity:1; fill:none" points="
  1224.83,1423.18 1224.83,1404.28 
  "/>
<polyline clip-path="url(#clip650)" style="stroke:#000000; stroke-linecap:round; stroke-linejoin:round; stroke-width:4; stroke-opacity:1; fill:none" points="
  1530.09,1423.18 1530.09,1404.28 
  "/>
<polyline clip-path="url(#clip650)" style="stroke:#000000; stroke-linecap:round; stroke-linejoin:round; stroke-width:4; stroke-opacity:1; fill:none" points="
  1835.35,1423.18 1835.35,1404.28 
  "/>
<polyline clip-path="url(#clip650)" style="stroke:#000000; stroke-linecap:round; stroke-linejoin:round; stroke-width:4; stroke-opacity:1; fill:none" points="
  2140.6,1423.18 2140.6,1404.28 
  "/>
<path clip-path="url(#clip650)" d="M272.759 1481.64 L289.079 1481.64 L289.079 1485.58 L267.134 1485.58 L267.134 1481.64 Q269.796 1478.89 274.38 1474.26 Q278.986 1469.61 280.167 1468.27 Q282.412 1465.74 283.292 1464.01 Q284.194 1462.25 284.194 1460.56 Q284.194 1457.8 282.25 1456.07 Q280.329 1454.33 277.227 1454.33 Q275.028 1454.33 272.574 1455.09 Q270.144 1455.86 267.366 1457.41 L267.366 1452.69 Q270.19 1451.55 272.644 1450.97 Q275.097 1450.39 277.134 1450.39 Q282.505 1450.39 285.699 1453.08 Q288.893 1455.77 288.893 1460.26 Q288.893 1462.39 288.083 1464.31 Q287.296 1466.2 285.19 1468.8 Q284.611 1469.47 281.509 1472.69 Q278.407 1475.88 272.759 1481.64 Z" fill="#000000" fill-rule="evenodd" fill-opacity="1" /><path clip-path="url(#clip650)" d="M308.893 1454.1 Q305.282 1454.1 303.454 1457.66 Q301.648 1461.2 301.648 1468.33 Q301.648 1475.44 303.454 1479.01 Q305.282 1482.55 308.893 1482.55 Q312.528 1482.55 314.333 1479.01 Q316.162 1475.44 316.162 1468.33 Q316.162 1461.2 314.333 1457.66 Q312.528 1454.1 308.893 1454.1 M308.893 1450.39 Q314.703 1450.39 317.759 1455 Q320.838 1459.58 320.838 1468.33 Q320.838 1477.06 317.759 1481.67 Q314.703 1486.25 308.893 1486.25 Q303.083 1486.25 300.005 1481.67 Q296.949 1477.06 296.949 1468.33 Q296.949 1459.58 300.005 1455 Q303.083 1450.39 308.893 1450.39 Z" fill="#000000" fill-rule="evenodd" fill-opacity="1" /><path clip-path="url(#clip650)" d="M339.055 1454.1 Q335.444 1454.1 333.615 1457.66 Q331.81 1461.2 331.81 1468.33 Q331.81 1475.44 333.615 1479.01 Q335.444 1482.55 339.055 1482.55 Q342.689 1482.55 344.495 1479.01 Q346.324 1475.44 346.324 1468.33 Q346.324 1461.2 344.495 1457.66 Q342.689 1454.1 339.055 1454.1 M339.055 1450.39 Q344.865 1450.39 347.921 1455 Q351 1459.58 351 1468.33 Q351 1477.06 347.921 1481.67 Q344.865 1486.25 339.055 1486.25 Q333.245 1486.25 330.166 1481.67 Q327.111 1477.06 327.111 1468.33 Q327.111 1459.58 330.166 1455 Q333.245 1450.39 339.055 1450.39 Z" fill="#000000" fill-rule="evenodd" fill-opacity="1" /><path clip-path="url(#clip650)" d="M587.413 1455.09 L575.608 1473.54 L587.413 1473.54 L587.413 1455.09 M586.187 1451.02 L592.066 1451.02 L592.066 1473.54 L596.997 1473.54 L596.997 1477.43 L592.066 1477.43 L592.066 1485.58 L587.413 1485.58 L587.413 1477.43 L571.812 1477.43 L571.812 1472.92 L586.187 1451.02 Z" fill="#000000" fill-rule="evenodd" fill-opacity="1" /><path clip-path="url(#clip650)" d="M614.728 1454.1 Q611.117 1454.1 609.288 1457.66 Q607.483 1461.2 607.483 1468.33 Q607.483 1475.44 609.288 1479.01 Q611.117 1482.55 614.728 1482.55 Q618.362 1482.55 620.168 1479.01 Q621.997 1475.44 621.997 1468.33 Q621.997 1461.2 620.168 1457.66 Q618.362 1454.1 614.728 1454.1 M614.728 1450.39 Q620.538 1450.39 623.594 1455 Q626.672 1459.58 626.672 1468.33 Q626.672 1477.06 623.594 1481.67 Q620.538 1486.25 614.728 1486.25 Q608.918 1486.25 605.839 1481.67 Q602.784 1477.06 602.784 1468.33 Q602.784 1459.58 605.839 1455 Q608.918 1450.39 614.728 1450.39 Z" fill="#000000" fill-rule="evenodd" fill-opacity="1" /><path clip-path="url(#clip650)" d="M644.89 1454.1 Q641.279 1454.1 639.45 1457.66 Q637.645 1461.2 637.645 1468.33 Q637.645 1475.44 639.45 1479.01 Q641.279 1482.55 644.89 1482.55 Q648.524 1482.55 650.33 1479.01 Q652.158 1475.44 652.158 1468.33 Q652.158 1461.2 650.33 1457.66 Q648.524 1454.1 644.89 1454.1 M644.89 1450.39 Q650.7 1450.39 653.756 1455 Q656.834 1459.58 656.834 1468.33 Q656.834 1477.06 653.756 1481.67 Q650.7 1486.25 644.89 1486.25 Q639.08 1486.25 636.001 1481.67 Q632.946 1477.06 632.946 1468.33 Q632.946 1459.58 636.001 1455 Q639.08 1450.39 644.89 1450.39 Z" fill="#000000" fill-rule="evenodd" fill-opacity="1" /><path clip-path="url(#clip650)" d="M889.903 1466.44 Q886.755 1466.44 884.903 1468.59 Q883.075 1470.74 883.075 1474.49 Q883.075 1478.22 884.903 1480.39 Q886.755 1482.55 889.903 1482.55 Q893.051 1482.55 894.88 1480.39 Q896.732 1478.22 896.732 1474.49 Q896.732 1470.74 894.88 1468.59 Q893.051 1466.44 889.903 1466.44 M899.186 1451.78 L899.186 1456.04 Q897.426 1455.21 895.621 1454.77 Q893.838 1454.33 892.079 1454.33 Q887.45 1454.33 884.996 1457.45 Q882.565 1460.58 882.218 1466.9 Q883.584 1464.89 885.644 1463.82 Q887.704 1462.73 890.181 1462.73 Q895.389 1462.73 898.399 1465.9 Q901.431 1469.05 901.431 1474.49 Q901.431 1479.82 898.283 1483.03 Q895.135 1486.25 889.903 1486.25 Q883.908 1486.25 880.737 1481.67 Q877.565 1477.06 877.565 1468.33 Q877.565 1460.14 881.454 1455.28 Q885.343 1450.39 891.894 1450.39 Q893.653 1450.39 895.436 1450.74 Q897.241 1451.09 899.186 1451.78 Z" fill="#000000" fill-rule="evenodd" fill-opacity="1" /><path clip-path="url(#clip650)" d="M919.486 1454.1 Q915.875 1454.1 914.047 1457.66 Q912.241 1461.2 912.241 1468.33 Q912.241 1475.44 914.047 1479.01 Q915.875 1482.55 919.486 1482.55 Q923.121 1482.55 924.926 1479.01 Q926.755 1475.44 926.755 1468.33 Q926.755 1461.2 924.926 1457.66 Q923.121 1454.1 919.486 1454.1 M919.486 1450.39 Q925.297 1450.39 928.352 1455 Q931.431 1459.58 931.431 1468.33 Q931.431 1477.06 928.352 1481.67 Q925.297 1486.25 919.486 1486.25 Q913.676 1486.25 910.598 1481.67 Q907.542 1477.06 907.542 1468.33 Q907.542 1459.58 910.598 1455 Q913.676 1450.39 919.486 1450.39 Z" fill="#000000" fill-rule="evenodd" fill-opacity="1" /><path clip-path="url(#clip650)" d="M949.648 1454.1 Q946.037 1454.1 944.208 1457.66 Q942.403 1461.2 942.403 1468.33 Q942.403 1475.44 944.208 1479.01 Q946.037 1482.55 949.648 1482.55 Q953.282 1482.55 955.088 1479.01 Q956.917 1475.44 956.917 1468.33 Q956.917 1461.2 955.088 1457.66 Q953.282 1454.1 949.648 1454.1 M949.648 1450.39 Q955.458 1450.39 958.514 1455 Q961.593 1459.58 961.593 1468.33 Q961.593 1477.06 958.514 1481.67 Q955.458 1486.25 949.648 1486.25 Q943.838 1486.25 940.759 1481.67 Q937.704 1477.06 937.704 1468.33 Q937.704 1459.58 940.759 1455 Q943.838 1450.39 949.648 1450.39 Z" fill="#000000" fill-rule="evenodd" fill-opacity="1" /><path clip-path="url(#clip650)" d="M1194.63 1469.17 Q1191.29 1469.17 1189.37 1470.95 Q1187.47 1472.73 1187.47 1475.86 Q1187.47 1478.98 1189.37 1480.77 Q1191.29 1482.55 1194.63 1482.55 Q1197.96 1482.55 1199.88 1480.77 Q1201.8 1478.96 1201.8 1475.86 Q1201.8 1472.73 1199.88 1470.95 Q1197.98 1469.17 1194.63 1469.17 M1189.95 1467.18 Q1186.94 1466.44 1185.25 1464.38 Q1183.59 1462.32 1183.59 1459.35 Q1183.59 1455.21 1186.52 1452.8 Q1189.49 1450.39 1194.63 1450.39 Q1199.79 1450.39 1202.73 1452.8 Q1205.67 1455.21 1205.67 1459.35 Q1205.67 1462.32 1203.98 1464.38 Q1202.31 1466.44 1199.33 1467.18 Q1202.71 1467.96 1204.58 1470.26 Q1206.48 1472.55 1206.48 1475.86 Q1206.48 1480.88 1203.4 1483.57 Q1200.34 1486.25 1194.63 1486.25 Q1188.91 1486.25 1185.83 1483.57 Q1182.78 1480.88 1182.78 1475.86 Q1182.78 1472.55 1184.67 1470.26 Q1186.57 1467.96 1189.95 1467.18 M1188.24 1459.79 Q1188.24 1462.48 1189.9 1463.98 Q1191.59 1465.49 1194.63 1465.49 Q1197.64 1465.49 1199.33 1463.98 Q1201.04 1462.48 1201.04 1459.79 Q1201.04 1457.11 1199.33 1455.6 Q1197.64 1454.1 1194.63 1454.1 Q1191.59 1454.1 1189.9 1455.6 Q1188.24 1457.11 1188.24 1459.79 Z" fill="#000000" fill-rule="evenodd" fill-opacity="1" /><path clip-path="url(#clip650)" d="M1224.79 1454.1 Q1221.18 1454.1 1219.35 1457.66 Q1217.54 1461.2 1217.54 1468.33 Q1217.54 1475.44 1219.35 1479.01 Q1221.18 1482.55 1224.79 1482.55 Q1228.42 1482.55 1230.23 1479.01 Q1232.06 1475.44 1232.06 1468.33 Q1232.06 1461.2 1230.23 1457.66 Q1228.42 1454.1 1224.79 1454.1 M1224.79 1450.39 Q1230.6 1450.39 1233.65 1455 Q1236.73 1459.58 1236.73 1468.33 Q1236.73 1477.06 1233.65 1481.67 Q1230.6 1486.25 1224.79 1486.25 Q1218.98 1486.25 1215.9 1481.67 Q1212.84 1477.06 1212.84 1468.33 Q1212.84 1459.58 1215.9 1455 Q1218.98 1450.39 1224.79 1450.39 Z" fill="#000000" fill-rule="evenodd" fill-opacity="1" /><path clip-path="url(#clip650)" d="M1254.95 1454.1 Q1251.34 1454.1 1249.51 1457.66 Q1247.71 1461.2 1247.71 1468.33 Q1247.71 1475.44 1249.51 1479.01 Q1251.34 1482.55 1254.95 1482.55 Q1258.58 1482.55 1260.39 1479.01 Q1262.22 1475.44 1262.22 1468.33 Q1262.22 1461.2 1260.39 1457.66 Q1258.58 1454.1 1254.95 1454.1 M1254.95 1450.39 Q1260.76 1450.39 1263.82 1455 Q1266.89 1459.58 1266.89 1468.33 Q1266.89 1477.06 1263.82 1481.67 Q1260.76 1486.25 1254.95 1486.25 Q1249.14 1486.25 1246.06 1481.67 Q1243.01 1477.06 1243.01 1468.33 Q1243.01 1459.58 1246.06 1455 Q1249.14 1450.39 1254.95 1450.39 Z" fill="#000000" fill-rule="evenodd" fill-opacity="1" /><path clip-path="url(#clip650)" d="M1474.62 1481.64 L1482.26 1481.64 L1482.26 1455.28 L1473.95 1456.95 L1473.95 1452.69 L1482.21 1451.02 L1486.89 1451.02 L1486.89 1481.64 L1494.52 1481.64 L1494.52 1485.58 L1474.62 1485.58 L1474.62 1481.64 Z" fill="#000000" fill-rule="evenodd" fill-opacity="1" /><path clip-path="url(#clip650)" d="M1513.97 1454.1 Q1510.36 1454.1 1508.53 1457.66 Q1506.72 1461.2 1506.72 1468.33 Q1506.72 1475.44 1508.53 1479.01 Q1510.36 1482.55 1513.97 1482.55 Q1517.6 1482.55 1519.41 1479.01 Q1521.24 1475.44 1521.24 1468.33 Q1521.24 1461.2 1519.41 1457.66 Q1517.6 1454.1 1513.97 1454.1 M1513.97 1450.39 Q1519.78 1450.39 1522.83 1455 Q1525.91 1459.58 1525.91 1468.33 Q1525.91 1477.06 1522.83 1481.67 Q1519.78 1486.25 1513.97 1486.25 Q1508.16 1486.25 1505.08 1481.67 Q1502.02 1477.06 1502.02 1468.33 Q1502.02 1459.58 1505.08 1455 Q1508.16 1450.39 1513.97 1450.39 Z" fill="#000000" fill-rule="evenodd" fill-opacity="1" /><path clip-path="url(#clip650)" d="M1544.13 1454.1 Q1540.52 1454.1 1538.69 1457.66 Q1536.88 1461.2 1536.88 1468.33 Q1536.88 1475.44 1538.69 1479.01 Q1540.52 1482.55 1544.13 1482.55 Q1547.76 1482.55 1549.57 1479.01 Q1551.4 1475.44 1551.4 1468.33 Q1551.4 1461.2 1549.57 1457.66 Q1547.76 1454.1 1544.13 1454.1 M1544.13 1450.39 Q1549.94 1450.39 1553 1455 Q1556.07 1459.58 1556.07 1468.33 Q1556.07 1477.06 1553 1481.67 Q1549.94 1486.25 1544.13 1486.25 Q1538.32 1486.25 1535.24 1481.67 Q1532.19 1477.06 1532.19 1468.33 Q1532.19 1459.58 1535.24 1455 Q1538.32 1450.39 1544.13 1450.39 Z" fill="#000000" fill-rule="evenodd" fill-opacity="1" /><path clip-path="url(#clip650)" d="M1574.29 1454.1 Q1570.68 1454.1 1568.85 1457.66 Q1567.05 1461.2 1567.05 1468.33 Q1567.05 1475.44 1568.85 1479.01 Q1570.68 1482.55 1574.29 1482.55 Q1577.93 1482.55 1579.73 1479.01 Q1581.56 1475.44 1581.56 1468.33 Q1581.56 1461.2 1579.73 1457.66 Q1577.93 1454.1 1574.29 1454.1 M1574.29 1450.39 Q1580.1 1450.39 1583.16 1455 Q1586.24 1459.58 1586.24 1468.33 Q1586.24 1477.06 1583.16 1481.67 Q1580.1 1486.25 1574.29 1486.25 Q1568.48 1486.25 1565.4 1481.67 Q1562.35 1477.06 1562.35 1468.33 Q1562.35 1459.58 1565.4 1455 Q1568.48 1450.39 1574.29 1450.39 Z" fill="#000000" fill-rule="evenodd" fill-opacity="1" /><path clip-path="url(#clip650)" d="M1779.87 1481.64 L1787.51 1481.64 L1787.51 1455.28 L1779.2 1456.95 L1779.2 1452.69 L1787.47 1451.02 L1792.14 1451.02 L1792.14 1481.64 L1799.78 1481.64 L1799.78 1485.58 L1779.87 1485.58 L1779.87 1481.64 Z" fill="#000000" fill-rule="evenodd" fill-opacity="1" /><path clip-path="url(#clip650)" d="M1813.25 1481.64 L1829.57 1481.64 L1829.57 1485.58 L1807.63 1485.58 L1807.63 1481.64 Q1810.29 1478.89 1814.87 1474.26 Q1819.48 1469.61 1820.66 1468.27 Q1822.9 1465.74 1823.78 1464.01 Q1824.69 1462.25 1824.69 1460.56 Q1824.69 1457.8 1822.74 1456.07 Q1820.82 1454.33 1817.72 1454.33 Q1815.52 1454.33 1813.07 1455.09 Q1810.64 1455.86 1807.86 1457.41 L1807.86 1452.69 Q1810.68 1451.55 1813.14 1450.97 Q1815.59 1450.39 1817.63 1450.39 Q1823 1450.39 1826.19 1453.08 Q1829.39 1455.77 1829.39 1460.26 Q1829.39 1462.39 1828.58 1464.31 Q1827.79 1466.2 1825.68 1468.8 Q1825.1 1469.47 1822 1472.69 Q1818.9 1475.88 1813.25 1481.64 Z" fill="#000000" fill-rule="evenodd" fill-opacity="1" /><path clip-path="url(#clip650)" d="M1849.39 1454.1 Q1845.78 1454.1 1843.95 1457.66 Q1842.14 1461.2 1842.14 1468.33 Q1842.14 1475.44 1843.95 1479.01 Q1845.78 1482.55 1849.39 1482.55 Q1853.02 1482.55 1854.83 1479.01 Q1856.65 1475.44 1856.65 1468.33 Q1856.65 1461.2 1854.83 1457.66 Q1853.02 1454.1 1849.39 1454.1 M1849.39 1450.39 Q1855.2 1450.39 1858.25 1455 Q1861.33 1459.58 1861.33 1468.33 Q1861.33 1477.06 1858.25 1481.67 Q1855.2 1486.25 1849.39 1486.25 Q1843.58 1486.25 1840.5 1481.67 Q1837.44 1477.06 1837.44 1468.33 Q1837.44 1459.58 1840.5 1455 Q1843.58 1450.39 1849.39 1450.39 Z" fill="#000000" fill-rule="evenodd" fill-opacity="1" /><path clip-path="url(#clip650)" d="M1879.55 1454.1 Q1875.94 1454.1 1874.11 1457.66 Q1872.3 1461.2 1872.3 1468.33 Q1872.3 1475.44 1874.11 1479.01 Q1875.94 1482.55 1879.55 1482.55 Q1883.18 1482.55 1884.99 1479.01 Q1886.82 1475.44 1886.82 1468.33 Q1886.82 1461.2 1884.99 1457.66 Q1883.18 1454.1 1879.55 1454.1 M1879.55 1450.39 Q1885.36 1450.39 1888.41 1455 Q1891.49 1459.58 1891.49 1468.33 Q1891.49 1477.06 1888.41 1481.67 Q1885.36 1486.25 1879.55 1486.25 Q1873.74 1486.25 1870.66 1481.67 Q1867.6 1477.06 1867.6 1468.33 Q1867.6 1459.58 1870.66 1455 Q1873.74 1450.39 1879.55 1450.39 Z" fill="#000000" fill-rule="evenodd" fill-opacity="1" /><path clip-path="url(#clip650)" d="M2085.13 1481.64 L2092.77 1481.64 L2092.77 1455.28 L2084.46 1456.95 L2084.46 1452.69 L2092.72 1451.02 L2097.4 1451.02 L2097.4 1481.64 L2105.04 1481.64 L2105.04 1485.58 L2085.13 1485.58 L2085.13 1481.64 Z" fill="#000000" fill-rule="evenodd" fill-opacity="1" /><path clip-path="url(#clip650)" d="M2127.33 1455.09 L2115.52 1473.54 L2127.33 1473.54 L2127.33 1455.09 M2126.1 1451.02 L2131.98 1451.02 L2131.98 1473.54 L2136.91 1473.54 L2136.91 1477.43 L2131.98 1477.43 L2131.98 1485.58 L2127.33 1485.58 L2127.33 1477.43 L2111.73 1477.43 L2111.73 1472.92 L2126.1 1451.02 Z" fill="#000000" fill-rule="evenodd" fill-opacity="1" /><path clip-path="url(#clip650)" d="M2154.64 1454.1 Q2151.03 1454.1 2149.2 1457.66 Q2147.4 1461.2 2147.4 1468.33 Q2147.4 1475.44 2149.2 1479.01 Q2151.03 1482.55 2154.64 1482.55 Q2158.28 1482.55 2160.08 1479.01 Q2161.91 1475.44 2161.91 1468.33 Q2161.91 1461.2 2160.08 1457.66 Q2158.28 1454.1 2154.64 1454.1 M2154.64 1450.39 Q2160.45 1450.39 2163.51 1455 Q2166.59 1459.58 2166.59 1468.33 Q2166.59 1477.06 2163.51 1481.67 Q2160.45 1486.25 2154.64 1486.25 Q2148.83 1486.25 2145.75 1481.67 Q2142.7 1477.06 2142.7 1468.33 Q2142.7 1459.58 2145.75 1455 Q2148.83 1450.39 2154.64 1450.39 Z" fill="#000000" fill-rule="evenodd" fill-opacity="1" /><path clip-path="url(#clip650)" d="M2184.8 1454.1 Q2181.19 1454.1 2179.36 1457.66 Q2177.56 1461.2 2177.56 1468.33 Q2177.56 1475.44 2179.36 1479.01 Q2181.19 1482.55 2184.8 1482.55 Q2188.44 1482.55 2190.24 1479.01 Q2192.07 1475.44 2192.07 1468.33 Q2192.07 1461.2 2190.24 1457.66 Q2188.44 1454.1 2184.8 1454.1 M2184.8 1450.39 Q2190.61 1450.39 2193.67 1455 Q2196.75 1459.58 2196.75 1468.33 Q2196.75 1477.06 2193.67 1481.67 Q2190.61 1486.25 2184.8 1486.25 Q2178.99 1486.25 2175.92 1481.67 Q2172.86 1477.06 2172.86 1468.33 Q2172.86 1459.58 2175.92 1455 Q2178.99 1450.39 2184.8 1450.39 Z" fill="#000000" fill-rule="evenodd" fill-opacity="1" /><path clip-path="url(#clip650)" d="M1059.76 1512.87 L1059.76 1510.81 Q1060.7 1510.81 1062.37 1510.88 Q1064.05 1510.94 1065.37 1510.97 Q1066.69 1511.01 1067.81 1511.01 Q1074.8 1511.01 1077.19 1510.81 L1077.19 1512.87 Q1071.65 1512.87 1071.65 1514.84 Q1071.65 1515.29 1071.78 1515.71 L1082.37 1548.14 L1091.55 1519.86 L1090.1 1515.22 Q1089.59 1513.58 1088.46 1513.23 Q1087.33 1512.87 1084.18 1512.87 L1084.18 1510.81 Q1085.11 1510.81 1086.78 1510.88 Q1088.46 1510.94 1089.78 1510.97 Q1091.1 1511.01 1092.19 1511.01 Q1099.18 1511.01 1101.57 1510.81 L1101.57 1512.87 Q1096.03 1512.87 1096.03 1514.84 Q1096.03 1515.03 1096.22 1515.84 L1106.78 1548.14 L1116.67 1517.67 Q1116.99 1516.67 1117.03 1516.35 Q1117.03 1515.16 1115.64 1514.06 Q1114.26 1512.94 1111.26 1512.87 L1111.26 1510.81 Q1116.41 1511.01 1119.12 1511.01 Q1122.15 1511.01 1125.11 1510.81 L1125.11 1512.87 Q1119.89 1512.87 1118.54 1517.29 L1105.91 1556 Q1105.79 1556.51 1105.69 1556.74 Q1105.59 1556.99 1105.33 1557.16 Q1105.08 1557.32 1104.63 1557.32 Q1103.76 1557.32 1103.37 1556.06 L1092.42 1522.5 L1081.53 1556 Q1081.41 1556.51 1081.28 1556.74 Q1081.18 1556.99 1080.92 1557.16 Q1080.67 1557.32 1080.21 1557.32 Q1079.34 1557.32 1078.96 1556.06 L1065.75 1515.64 Q1065.17 1513.74 1064.27 1513.32 Q1063.4 1512.87 1059.76 1512.87 Z" fill="#000000" fill-rule="evenodd" fill-opacity="1" /><path clip-path="url(#clip650)" d="M1133.64 1549.59 Q1133.64 1543.98 1140.24 1541.02 Q1144.2 1539.12 1152.38 1538.64 L1152.38 1536.22 Q1152.38 1532.13 1150.23 1529.97 Q1148.1 1527.78 1145.4 1527.78 Q1140.57 1527.78 1138.25 1530.81 Q1140.21 1530.88 1140.92 1531.87 Q1141.63 1532.84 1141.63 1533.84 Q1141.63 1535.16 1140.79 1536.03 Q1139.99 1536.87 1138.6 1536.87 Q1137.28 1536.87 1136.41 1536.06 Q1135.54 1535.22 1135.54 1533.77 Q1135.54 1530.55 1138.44 1528.43 Q1141.37 1526.3 1145.53 1526.3 Q1150.94 1526.3 1154.54 1529.94 Q1155.67 1531.07 1156.22 1532.52 Q1156.8 1533.97 1156.86 1534.93 Q1156.93 1535.87 1156.93 1537.74 L1156.93 1550.91 Q1156.93 1551.29 1157.05 1551.94 Q1157.18 1552.58 1157.76 1553.42 Q1158.38 1554.23 1159.37 1554.23 Q1161.76 1554.23 1161.72 1550.01 L1161.72 1546.3 L1163.4 1546.3 L1163.4 1550.01 Q1163.4 1553.52 1161.53 1554.9 Q1159.7 1556.25 1157.99 1556.25 Q1155.8 1556.25 1154.41 1554.64 Q1153.03 1553.03 1152.84 1550.84 Q1151.84 1553.36 1149.55 1555 Q1147.3 1556.61 1144.2 1556.61 Q1141.82 1556.61 1139.57 1556 Q1137.34 1555.42 1135.48 1553.77 Q1133.64 1552.1 1133.64 1549.59 M1138.73 1549.52 Q1138.73 1551.97 1140.47 1553.55 Q1142.21 1555.13 1144.66 1555.13 Q1147.43 1555.13 1149.91 1553 Q1152.38 1550.84 1152.38 1546.62 L1152.38 1540.02 Q1145.07 1540.28 1141.89 1543.21 Q1138.73 1546.11 1138.73 1549.52 Z" fill="#000000" fill-rule="evenodd" fill-opacity="1" /><path clip-path="url(#clip650)" d="M1163.1 1529.49 L1163.1 1527.43 Q1166.06 1527.62 1169.51 1527.62 Q1170.76 1527.62 1176.69 1527.43 L1176.69 1529.49 Q1172.92 1529.49 1172.92 1531.2 Q1172.92 1531.46 1173.31 1532.33 L1180.71 1550.71 L1187.44 1533.9 Q1187.83 1532.78 1187.83 1532.33 Q1187.83 1531.2 1187.06 1530.39 Q1186.32 1529.56 1184.67 1529.49 L1184.67 1527.43 Q1188.02 1527.62 1190.41 1527.62 Q1193.11 1527.62 1195.33 1527.43 L1195.33 1529.49 Q1193.37 1529.49 1191.98 1530.39 Q1190.6 1531.26 1190.15 1532.04 Q1189.73 1532.78 1189.28 1533.9 L1180.65 1555.35 Q1180.13 1556.61 1179.26 1556.61 Q1178.68 1556.61 1178.43 1556.35 Q1178.2 1556.13 1177.88 1555.35 L1168.38 1531.94 Q1167.73 1530.3 1166.9 1529.91 Q1166.06 1529.49 1163.1 1529.49 Z" fill="#000000" fill-rule="evenodd" fill-opacity="1" /><path clip-path="url(#clip650)" d="M1199.4 1541.34 Q1199.4 1535.13 1203.4 1530.72 Q1207.39 1526.3 1213.12 1526.3 Q1218.92 1526.3 1221.92 1530.07 Q1224.94 1533.84 1224.94 1539.25 Q1224.94 1540.25 1224.69 1540.44 Q1224.43 1540.63 1223.3 1540.63 L1204.88 1540.63 Q1204.88 1547.37 1206.88 1550.52 Q1209.65 1554.93 1214.32 1554.93 Q1214.96 1554.93 1215.73 1554.8 Q1216.51 1554.68 1218.08 1554.13 Q1219.66 1553.55 1221.05 1552.04 Q1222.43 1550.52 1223.24 1548.14 Q1223.43 1547.2 1224.07 1547.24 Q1224.94 1547.24 1224.94 1548.01 Q1224.94 1548.59 1224.3 1549.91 Q1223.69 1551.2 1222.5 1552.74 Q1221.3 1554.29 1218.99 1555.45 Q1216.7 1556.61 1213.93 1556.61 Q1208.13 1556.61 1203.75 1552.23 Q1199.4 1547.82 1199.4 1541.34 M1204.94 1539.25 L1220.6 1539.25 Q1220.6 1537.86 1220.34 1536.32 Q1220.11 1534.77 1219.4 1532.65 Q1218.73 1530.49 1217.12 1529.14 Q1215.51 1527.78 1213.12 1527.78 Q1212.06 1527.78 1210.9 1528.24 Q1209.77 1528.69 1208.39 1529.78 Q1207.01 1530.88 1206.04 1533.36 Q1205.07 1535.84 1204.94 1539.25 Z" fill="#000000" fill-rule="evenodd" fill-opacity="1" /><path clip-path="url(#clip650)" d="M1228.4 1555.87 L1228.4 1553.84 Q1231.91 1553.84 1232.72 1553.42 Q1233.52 1552.97 1233.52 1550.84 L1233.52 1516.54 Q1233.52 1514.1 1232.65 1513.48 Q1231.81 1512.87 1228.4 1512.87 L1228.4 1510.81 L1237.87 1510.1 L1237.87 1550.84 Q1237.87 1552.97 1238.71 1553.42 Q1239.54 1553.84 1243.02 1553.84 L1243.02 1555.87 Q1242.22 1555.87 1240.54 1555.8 Q1238.87 1555.74 1237.64 1555.71 Q1236.42 1555.67 1235.71 1555.67 Q1234.94 1555.67 1228.4 1555.87 Z" fill="#000000" fill-rule="evenodd" fill-opacity="1" /><path clip-path="url(#clip650)" d="M1247.28 1541.34 Q1247.28 1535.13 1251.27 1530.72 Q1255.27 1526.3 1261 1526.3 Q1266.8 1526.3 1269.79 1530.07 Q1272.82 1533.84 1272.82 1539.25 Q1272.82 1540.25 1272.56 1540.44 Q1272.3 1540.63 1271.18 1540.63 L1252.75 1540.63 Q1252.75 1547.37 1254.75 1550.52 Q1257.52 1554.93 1262.19 1554.93 Q1262.83 1554.93 1263.61 1554.8 Q1264.38 1554.68 1265.96 1554.13 Q1267.54 1553.55 1268.92 1552.04 Q1270.31 1550.52 1271.11 1548.14 Q1271.3 1547.2 1271.95 1547.24 Q1272.82 1547.24 1272.82 1548.01 Q1272.82 1548.59 1272.17 1549.91 Q1271.56 1551.2 1270.37 1552.74 Q1269.18 1554.29 1266.86 1555.45 Q1264.57 1556.61 1261.8 1556.61 Q1256.01 1556.61 1251.63 1552.23 Q1247.28 1547.82 1247.28 1541.34 M1252.82 1539.25 L1268.47 1539.25 Q1268.47 1537.86 1268.21 1536.32 Q1267.99 1534.77 1267.28 1532.65 Q1266.6 1530.49 1264.99 1529.14 Q1263.38 1527.78 1261 1527.78 Q1259.94 1527.78 1258.78 1528.24 Q1257.65 1528.69 1256.26 1529.78 Q1254.88 1530.88 1253.91 1533.36 Q1252.95 1535.84 1252.82 1539.25 Z" fill="#000000" fill-rule="evenodd" fill-opacity="1" /><path clip-path="url(#clip650)" d="M1274.95 1555.87 L1274.95 1553.84 Q1278.46 1553.84 1279.27 1553.42 Q1280.08 1552.97 1280.08 1550.84 L1280.08 1533.16 Q1280.08 1530.72 1279.21 1530.1 Q1278.37 1529.49 1274.95 1529.49 L1274.95 1527.43 L1284.23 1526.72 L1284.23 1533.65 Q1287.32 1526.72 1293.99 1526.72 Q1298.95 1526.72 1300.91 1529.17 Q1302.36 1530.81 1302.65 1532.65 Q1302.97 1534.48 1302.97 1539.25 L1302.97 1551.84 Q1303.04 1553.23 1304.1 1553.55 Q1305.16 1553.84 1308.13 1553.84 L1308.13 1555.87 Q1301.4 1555.67 1300.72 1555.67 Q1300.2 1555.67 1293.28 1555.87 L1293.28 1553.84 Q1296.79 1553.84 1297.6 1553.42 Q1298.43 1552.97 1298.43 1550.84 L1298.43 1535.48 Q1298.43 1532.13 1297.4 1530.17 Q1296.37 1528.17 1293.54 1528.17 Q1290.12 1528.17 1287.39 1531.04 Q1284.65 1533.9 1284.65 1538.73 L1284.65 1550.84 Q1284.65 1552.97 1285.45 1553.42 Q1286.29 1553.84 1289.77 1553.84 L1289.77 1555.87 Q1283.04 1555.67 1282.39 1555.67 Q1281.88 1555.67 1274.95 1555.87 Z" fill="#000000" fill-rule="evenodd" fill-opacity="1" /><path clip-path="url(#clip650)" d="M1310.4 1561.09 Q1310.4 1558.96 1312.01 1557.12 Q1313.65 1555.29 1316.49 1554.48 Q1313.59 1552.65 1313.59 1548.62 Q1313.59 1545.53 1315.62 1543.15 Q1312.52 1540.57 1312.52 1536.35 Q1312.52 1532.45 1315.62 1529.59 Q1318.71 1526.72 1323.22 1526.72 Q1327.18 1526.72 1330.21 1529.1 Q1333.36 1526.01 1337.19 1525.98 Q1338.9 1525.98 1339.71 1527.04 Q1340.54 1528.11 1340.54 1529.23 Q1340.54 1530.23 1339.9 1530.72 Q1339.29 1531.2 1338.64 1531.2 Q1337.84 1531.2 1337.26 1530.68 Q1336.71 1530.14 1336.71 1529.3 Q1336.71 1527.91 1337.77 1527.49 Q1337.58 1527.43 1337.13 1527.43 Q1333.91 1527.43 1331.17 1530.01 Q1333.88 1532.52 1333.88 1536.42 Q1333.88 1540.31 1330.79 1543.18 Q1327.69 1546.04 1323.22 1546.04 Q1319.51 1546.04 1316.68 1543.98 Q1315.55 1545.3 1315.55 1547.11 Q1315.55 1548.75 1316.55 1550.04 Q1317.55 1551.33 1319.06 1551.52 Q1319.51 1551.58 1323.99 1551.58 Q1326.63 1551.58 1328.08 1551.65 Q1329.53 1551.71 1331.59 1552.16 Q1333.68 1552.58 1335.33 1553.42 Q1339.61 1555.8 1339.64 1560.96 Q1339.64 1564.72 1335.29 1567.08 Q1330.98 1569.46 1324.99 1569.46 Q1318.93 1569.46 1314.65 1567.04 Q1310.4 1564.66 1310.4 1561.09 M1313.85 1561.09 Q1313.85 1563.79 1317.03 1565.85 Q1320.22 1567.94 1325.05 1567.94 Q1329.79 1567.94 1332.98 1565.88 Q1336.2 1563.85 1336.2 1561.09 Q1336.2 1559.12 1335.07 1557.86 Q1333.94 1556.61 1331.62 1556.09 Q1329.34 1555.61 1327.73 1555.51 Q1326.12 1555.42 1323.15 1555.42 L1319.26 1555.42 Q1317 1555.55 1315.42 1557.19 Q1313.85 1558.83 1313.85 1561.09 M1317.45 1536.42 Q1317.45 1544.53 1323.22 1544.53 Q1326.12 1544.53 1327.89 1541.89 Q1328.95 1540.12 1328.95 1536.35 Q1328.95 1528.24 1323.22 1528.24 Q1320.32 1528.24 1318.52 1530.88 Q1317.45 1532.65 1317.45 1536.42 Z" fill="#000000" fill-rule="evenodd" fill-opacity="1" /><path clip-path="url(#clip650)" d="M1346.23 1529.49 L1346.23 1528.04 Q1349.26 1527.91 1351.26 1525.79 Q1353.28 1523.63 1353.96 1520.99 Q1354.67 1518.35 1354.73 1515.29 L1356.38 1515.29 L1356.38 1527.43 L1365.81 1527.43 L1365.81 1529.49 L1356.38 1529.49 L1356.38 1547.82 Q1356.38 1554.93 1360.82 1554.93 Q1362.72 1554.93 1363.98 1553 Q1365.23 1551.04 1365.23 1547.56 L1365.23 1543.92 L1366.88 1543.92 L1366.88 1547.69 Q1366.88 1551.26 1365.23 1553.94 Q1363.59 1556.61 1360.34 1556.61 Q1359.15 1556.61 1357.95 1556.29 Q1356.79 1556 1355.25 1555.22 Q1353.74 1554.42 1352.77 1552.49 Q1351.84 1550.52 1351.84 1547.69 L1351.84 1529.49 L1346.23 1529.49 Z" fill="#000000" fill-rule="evenodd" fill-opacity="1" /><path clip-path="url(#clip650)" d="M1371.71 1555.87 L1371.71 1553.84 Q1375.22 1553.84 1376.03 1553.42 Q1376.83 1552.97 1376.83 1550.84 L1376.83 1516.54 Q1376.83 1514.1 1375.96 1513.48 Q1375.13 1512.87 1371.71 1512.87 L1371.71 1510.81 L1381.18 1510.1 L1381.18 1533.03 L1381.24 1533.03 Q1382.31 1530.65 1384.69 1528.69 Q1387.07 1526.72 1390.75 1526.72 Q1395.71 1526.72 1397.67 1529.17 Q1399.12 1530.81 1399.41 1532.65 Q1399.73 1534.48 1399.73 1539.25 L1399.73 1551.84 Q1399.8 1553.23 1400.86 1553.55 Q1401.92 1553.84 1404.88 1553.84 L1404.88 1555.87 Q1398.15 1555.67 1397.48 1555.67 Q1396.96 1555.67 1390.04 1555.87 L1390.04 1553.84 Q1393.55 1553.84 1394.35 1553.42 Q1395.19 1552.97 1395.19 1550.84 L1395.19 1535.48 Q1395.19 1532.13 1394.16 1530.17 Q1393.13 1528.17 1390.29 1528.17 Q1386.88 1528.17 1384.14 1531.04 Q1381.41 1533.9 1381.41 1538.73 L1381.41 1550.84 Q1381.41 1552.97 1382.21 1553.42 Q1383.05 1553.84 1386.53 1553.84 L1386.53 1555.87 Q1379.8 1555.67 1379.15 1555.67 Q1378.64 1555.67 1371.71 1555.87 Z" fill="#000000" fill-rule="evenodd" fill-opacity="1" /><path clip-path="url(#clip650)" d="M1422.47 1572.36 L1422.47 1506.4 L1432.43 1506.4 L1432.43 1507.91 L1426.89 1507.91 L1426.89 1570.84 L1432.43 1570.84 L1432.43 1572.36 L1422.47 1572.36 Z" fill="#000000" fill-rule="evenodd" fill-opacity="1" /><path clip-path="url(#clip650)" d="M1433.76 1555.87 L1433.76 1553.84 Q1437.27 1553.84 1438.08 1553.42 Q1438.88 1552.97 1438.88 1550.84 L1438.88 1533.16 Q1438.88 1530.72 1438.01 1530.1 Q1437.17 1529.49 1433.76 1529.49 L1433.76 1527.43 L1443.04 1526.72 L1443.04 1533.65 Q1446.13 1526.72 1452.79 1526.72 Q1457.75 1526.72 1459.72 1529.17 Q1461.17 1530.81 1461.46 1532.65 Q1461.78 1534.48 1461.78 1539.25 L1461.78 1551.84 Q1461.84 1553.23 1462.91 1553.55 Q1463.97 1553.84 1466.93 1553.84 L1466.93 1555.87 Q1460.2 1555.67 1459.53 1555.67 Q1459.01 1555.67 1452.09 1555.87 L1452.09 1553.84 Q1455.6 1553.84 1456.4 1553.42 Q1457.24 1552.97 1457.24 1550.84 L1457.24 1535.48 Q1457.24 1532.13 1456.21 1530.17 Q1455.18 1528.17 1452.34 1528.17 Q1448.93 1528.17 1446.19 1531.04 Q1443.45 1533.9 1443.45 1538.73 L1443.45 1550.84 Q1443.45 1552.97 1444.26 1553.42 Q1445.1 1553.84 1448.58 1553.84 L1448.58 1555.87 Q1441.84 1555.67 1441.2 1555.67 Q1440.68 1555.67 1433.76 1555.87 Z" fill="#000000" fill-rule="evenodd" fill-opacity="1" /><path clip-path="url(#clip650)" d="M1470.26 1555.87 L1470.26 1553.84 Q1473.77 1553.84 1474.58 1553.42 Q1475.38 1552.97 1475.38 1550.84 L1475.38 1533.16 Q1475.38 1530.72 1474.51 1530.1 Q1473.68 1529.49 1470.26 1529.49 L1470.26 1527.43 L1479.54 1526.72 L1479.54 1533.65 Q1482.63 1526.72 1489.29 1526.72 Q1497.02 1526.72 1498.09 1533.16 Q1499.21 1530.65 1501.57 1528.69 Q1503.95 1526.72 1507.65 1526.72 Q1512.61 1526.72 1514.58 1529.17 Q1516.03 1530.81 1516.32 1532.65 Q1516.61 1534.48 1516.61 1539.25 L1516.61 1551.84 Q1516.67 1553.23 1517.73 1553.55 Q1518.8 1553.84 1521.76 1553.84 L1521.76 1555.87 Q1515.03 1555.67 1514.38 1555.67 Q1513.87 1555.67 1506.91 1555.87 L1506.91 1553.84 Q1510.42 1553.84 1511.23 1553.42 Q1512.06 1552.97 1512.06 1550.84 L1512.06 1535.48 Q1512.06 1532.13 1511.03 1530.17 Q1510 1528.17 1507.17 1528.17 Q1503.76 1528.17 1501.02 1531.04 Q1498.28 1533.9 1498.28 1538.73 L1498.28 1550.84 Q1498.28 1552.97 1499.09 1553.42 Q1499.92 1553.84 1503.43 1553.84 L1503.43 1555.87 Q1496.7 1555.67 1496.03 1555.67 Q1495.51 1555.67 1488.59 1555.87 L1488.59 1553.84 Q1492.1 1553.84 1492.9 1553.42 Q1493.74 1552.97 1493.74 1550.84 L1493.74 1535.48 Q1493.74 1532.13 1492.71 1530.17 Q1491.68 1528.17 1488.84 1528.17 Q1485.43 1528.17 1482.69 1531.04 Q1479.96 1533.9 1479.96 1538.73 L1479.96 1550.84 Q1479.96 1552.97 1480.76 1553.42 Q1481.6 1553.84 1485.08 1553.84 L1485.08 1555.87 Q1478.34 1555.67 1477.7 1555.67 Q1477.19 1555.67 1470.26 1555.87 Z" fill="#000000" fill-rule="evenodd" fill-opacity="1" /><path clip-path="url(#clip650)" d="M1524.38 1570.84 L1529.92 1570.84 L1529.92 1507.91 L1524.38 1507.91 L1524.38 1506.4 L1534.34 1506.4 L1534.34 1572.36 L1524.38 1572.36 L1524.38 1570.84 Z" fill="#000000" fill-rule="evenodd" fill-opacity="1" /><polyline clip-path="url(#clip653)" style="stroke:#000000; stroke-linecap:round; stroke-linejoin:round; stroke-width:2; stroke-opacity:0.1; fill:none" points="
  249.542,1384.24 2352.76,1384.24 
  "/>
<polyline clip-path="url(#clip653)" style="stroke:#000000; stroke-linecap:round; stroke-linejoin:round; stroke-width:2; stroke-opacity:0.1; fill:none" points="
  249.542,1059.73 2352.76,1059.73 
  "/>
<polyline clip-path="url(#clip653)" style="stroke:#000000; stroke-linecap:round; stroke-linejoin:round; stroke-width:2; stroke-opacity:0.1; fill:none" points="
  249.542,735.212 2352.76,735.212 
  "/>
<polyline clip-path="url(#clip653)" style="stroke:#000000; stroke-linecap:round; stroke-linejoin:round; stroke-width:2; stroke-opacity:0.1; fill:none" points="
  249.542,410.699 2352.76,410.699 
  "/>
<polyline clip-path="url(#clip653)" style="stroke:#000000; stroke-linecap:round; stroke-linejoin:round; stroke-width:2; stroke-opacity:0.1; fill:none" points="
  249.542,86.1857 2352.76,86.1857 
  "/>
<polyline clip-path="url(#clip650)" style="stroke:#000000; stroke-linecap:round; stroke-linejoin:round; stroke-width:4; stroke-opacity:1; fill:none" points="
  249.542,1423.18 249.542,47.2441 
  "/>
<polyline clip-path="url(#clip650)" style="stroke:#000000; stroke-linecap:round; stroke-linejoin:round; stroke-width:4; stroke-opacity:1; fill:none" points="
  249.542,1384.24 268.44,1384.24 
  "/>
<polyline clip-path="url(#clip650)" style="stroke:#000000; stroke-linecap:round; stroke-linejoin:round; stroke-width:4; stroke-opacity:1; fill:none" points="
  249.542,1059.73 268.44,1059.73 
  "/>
<polyline clip-path="url(#clip650)" style="stroke:#000000; stroke-linecap:round; stroke-linejoin:round; stroke-width:4; stroke-opacity:1; fill:none" points="
  249.542,735.212 268.44,735.212 
  "/>
<polyline clip-path="url(#clip650)" style="stroke:#000000; stroke-linecap:round; stroke-linejoin:round; stroke-width:4; stroke-opacity:1; fill:none" points="
  249.542,410.699 268.44,410.699 
  "/>
<polyline clip-path="url(#clip650)" style="stroke:#000000; stroke-linecap:round; stroke-linejoin:round; stroke-width:4; stroke-opacity:1; fill:none" points="
  249.542,86.1857 268.44,86.1857 
  "/>
<path clip-path="url(#clip650)" d="M126.205 1370.04 Q122.593 1370.04 120.765 1373.6 Q118.959 1377.14 118.959 1384.27 Q118.959 1391.38 120.765 1394.94 Q122.593 1398.49 126.205 1398.49 Q129.839 1398.49 131.644 1394.94 Q133.473 1391.38 133.473 1384.27 Q133.473 1377.14 131.644 1373.6 Q129.839 1370.04 126.205 1370.04 M126.205 1366.33 Q132.015 1366.33 135.07 1370.94 Q138.149 1375.52 138.149 1384.27 Q138.149 1393 135.07 1397.61 Q132.015 1402.19 126.205 1402.19 Q120.394 1402.19 117.316 1397.61 Q114.26 1393 114.26 1384.27 Q114.26 1375.52 117.316 1370.94 Q120.394 1366.33 126.205 1366.33 Z" fill="#000000" fill-rule="evenodd" fill-opacity="1" /><path clip-path="url(#clip650)" d="M146.366 1395.64 L151.251 1395.64 L151.251 1401.52 L146.366 1401.52 L146.366 1395.64 Z" fill="#000000" fill-rule="evenodd" fill-opacity="1" /><path clip-path="url(#clip650)" d="M171.436 1370.04 Q167.825 1370.04 165.996 1373.6 Q164.19 1377.14 164.19 1384.27 Q164.19 1391.38 165.996 1394.94 Q167.825 1398.49 171.436 1398.49 Q175.07 1398.49 176.876 1394.94 Q178.704 1391.38 178.704 1384.27 Q178.704 1377.14 176.876 1373.6 Q175.07 1370.04 171.436 1370.04 M171.436 1366.33 Q177.246 1366.33 180.301 1370.94 Q183.38 1375.52 183.38 1384.27 Q183.38 1393 180.301 1397.61 Q177.246 1402.19 171.436 1402.19 Q165.626 1402.19 162.547 1397.61 Q159.491 1393 159.491 1384.27 Q159.491 1375.52 162.547 1370.94 Q165.626 1366.33 171.436 1366.33 Z" fill="#000000" fill-rule="evenodd" fill-opacity="1" /><path clip-path="url(#clip650)" d="M201.598 1370.04 Q197.987 1370.04 196.158 1373.6 Q194.352 1377.14 194.352 1384.27 Q194.352 1391.38 196.158 1394.94 Q197.987 1398.49 201.598 1398.49 Q205.232 1398.49 207.037 1394.94 Q208.866 1391.38 208.866 1384.27 Q208.866 1377.14 207.037 1373.6 Q205.232 1370.04 201.598 1370.04 M201.598 1366.33 Q207.408 1366.33 210.463 1370.94 Q213.542 1375.52 213.542 1384.27 Q213.542 1393 210.463 1397.61 Q207.408 1402.19 201.598 1402.19 Q195.787 1402.19 192.709 1397.61 Q189.653 1393 189.653 1384.27 Q189.653 1375.52 192.709 1370.94 Q195.787 1366.33 201.598 1366.33 Z" fill="#000000" fill-rule="evenodd" fill-opacity="1" /><path clip-path="url(#clip650)" d="M127.2 1045.52 Q123.589 1045.52 121.76 1049.09 Q119.955 1052.63 119.955 1059.76 Q119.955 1066.87 121.76 1070.43 Q123.589 1073.97 127.2 1073.97 Q130.834 1073.97 132.64 1070.43 Q134.468 1066.87 134.468 1059.76 Q134.468 1052.63 132.64 1049.09 Q130.834 1045.52 127.2 1045.52 M127.2 1041.82 Q133.01 1041.82 136.066 1046.43 Q139.144 1051.01 139.144 1059.76 Q139.144 1068.49 136.066 1073.09 Q133.01 1077.68 127.2 1077.68 Q121.39 1077.68 118.311 1073.09 Q115.256 1068.49 115.256 1059.76 Q115.256 1051.01 118.311 1046.43 Q121.39 1041.82 127.2 1041.82 Z" fill="#000000" fill-rule="evenodd" fill-opacity="1" /><path clip-path="url(#clip650)" d="M147.362 1071.13 L152.246 1071.13 L152.246 1077.01 L147.362 1077.01 L147.362 1071.13 Z" fill="#000000" fill-rule="evenodd" fill-opacity="1" /><path clip-path="url(#clip650)" d="M166.459 1073.07 L182.778 1073.07 L182.778 1077.01 L160.834 1077.01 L160.834 1073.07 Q163.496 1070.32 168.079 1065.69 Q172.686 1061.03 173.866 1059.69 Q176.112 1057.17 176.991 1055.43 Q177.894 1053.67 177.894 1051.98 Q177.894 1049.23 175.95 1047.49 Q174.028 1045.76 170.927 1045.76 Q168.727 1045.76 166.274 1046.52 Q163.843 1047.28 161.065 1048.83 L161.065 1044.11 Q163.89 1042.98 166.343 1042.4 Q168.797 1041.82 170.834 1041.82 Q176.204 1041.82 179.399 1044.51 Q182.593 1047.19 182.593 1051.68 Q182.593 1053.81 181.783 1055.73 Q180.996 1057.63 178.889 1060.22 Q178.311 1060.89 175.209 1064.11 Q172.107 1067.31 166.459 1073.07 Z" fill="#000000" fill-rule="evenodd" fill-opacity="1" /><path clip-path="url(#clip650)" d="M192.639 1042.45 L210.996 1042.45 L210.996 1046.38 L196.922 1046.38 L196.922 1054.85 Q197.94 1054.51 198.959 1054.34 Q199.977 1054.16 200.996 1054.16 Q206.783 1054.16 210.162 1057.33 Q213.542 1060.5 213.542 1065.92 Q213.542 1071.5 210.07 1074.6 Q206.598 1077.68 200.278 1077.68 Q198.102 1077.68 195.834 1077.31 Q193.588 1076.94 191.181 1076.19 L191.181 1071.5 Q193.264 1072.63 195.487 1073.19 Q197.709 1073.74 200.186 1073.74 Q204.19 1073.74 206.528 1071.63 Q208.866 1069.53 208.866 1065.92 Q208.866 1062.31 206.528 1060.2 Q204.19 1058.09 200.186 1058.09 Q198.311 1058.09 196.436 1058.51 Q194.584 1058.93 192.639 1059.81 L192.639 1042.45 Z" fill="#000000" fill-rule="evenodd" fill-opacity="1" /><path clip-path="url(#clip650)" d="M126.205 721.011 Q122.593 721.011 120.765 724.575 Q118.959 728.117 118.959 735.247 Q118.959 742.353 120.765 745.918 Q122.593 749.46 126.205 749.46 Q129.839 749.46 131.644 745.918 Q133.473 742.353 133.473 735.247 Q133.473 728.117 131.644 724.575 Q129.839 721.011 126.205 721.011 M126.205 717.307 Q132.015 717.307 135.07 721.913 Q138.149 726.497 138.149 735.247 Q138.149 743.973 135.07 748.58 Q132.015 753.163 126.205 753.163 Q120.394 753.163 117.316 748.58 Q114.26 743.973 114.26 735.247 Q114.26 726.497 117.316 721.913 Q120.394 717.307 126.205 717.307 Z" fill="#000000" fill-rule="evenodd" fill-opacity="1" /><path clip-path="url(#clip650)" d="M146.366 746.612 L151.251 746.612 L151.251 752.492 L146.366 752.492 L146.366 746.612 Z" fill="#000000" fill-rule="evenodd" fill-opacity="1" /><path clip-path="url(#clip650)" d="M161.482 717.932 L179.839 717.932 L179.839 721.867 L165.765 721.867 L165.765 730.339 Q166.783 729.992 167.802 729.83 Q168.82 729.645 169.839 729.645 Q175.626 729.645 179.005 732.816 Q182.385 735.987 182.385 741.404 Q182.385 746.983 178.913 750.085 Q175.44 753.163 169.121 753.163 Q166.945 753.163 164.677 752.793 Q162.431 752.423 160.024 751.682 L160.024 746.983 Q162.107 748.117 164.329 748.673 Q166.552 749.228 169.028 749.228 Q173.033 749.228 175.371 747.122 Q177.709 745.015 177.709 741.404 Q177.709 737.793 175.371 735.687 Q173.033 733.58 169.028 733.58 Q167.153 733.58 165.278 733.997 Q163.427 734.413 161.482 735.293 L161.482 717.932 Z" fill="#000000" fill-rule="evenodd" fill-opacity="1" /><path clip-path="url(#clip650)" d="M201.598 721.011 Q197.987 721.011 196.158 724.575 Q194.352 728.117 194.352 735.247 Q194.352 742.353 196.158 745.918 Q197.987 749.46 201.598 749.46 Q205.232 749.46 207.037 745.918 Q208.866 742.353 208.866 735.247 Q208.866 728.117 207.037 724.575 Q205.232 721.011 201.598 721.011 M201.598 717.307 Q207.408 717.307 210.463 721.913 Q213.542 726.497 213.542 735.247 Q213.542 743.973 210.463 748.58 Q207.408 753.163 201.598 753.163 Q195.787 753.163 192.709 748.58 Q189.653 743.973 189.653 735.247 Q189.653 726.497 192.709 721.913 Q195.787 717.307 201.598 717.307 Z" fill="#000000" fill-rule="evenodd" fill-opacity="1" /><path clip-path="url(#clip650)" d="M127.2 396.498 Q123.589 396.498 121.76 400.062 Q119.955 403.604 119.955 410.734 Q119.955 417.84 121.76 421.405 Q123.589 424.946 127.2 424.946 Q130.834 424.946 132.64 421.405 Q134.468 417.84 134.468 410.734 Q134.468 403.604 132.64 400.062 Q130.834 396.498 127.2 396.498 M127.2 392.794 Q133.01 392.794 136.066 397.4 Q139.144 401.984 139.144 410.734 Q139.144 419.46 136.066 424.067 Q133.01 428.65 127.2 428.65 Q121.39 428.65 118.311 424.067 Q115.256 419.46 115.256 410.734 Q115.256 401.984 118.311 397.4 Q121.39 392.794 127.2 392.794 Z" fill="#000000" fill-rule="evenodd" fill-opacity="1" /><path clip-path="url(#clip650)" d="M147.362 422.099 L152.246 422.099 L152.246 427.979 L147.362 427.979 L147.362 422.099 Z" fill="#000000" fill-rule="evenodd" fill-opacity="1" /><path clip-path="url(#clip650)" d="M161.251 393.419 L183.473 393.419 L183.473 395.41 L170.927 427.979 L166.042 427.979 L177.848 397.354 L161.251 397.354 L161.251 393.419 Z" fill="#000000" fill-rule="evenodd" fill-opacity="1" /><path clip-path="url(#clip650)" d="M192.639 393.419 L210.996 393.419 L210.996 397.354 L196.922 397.354 L196.922 405.826 Q197.94 405.479 198.959 405.317 Q199.977 405.132 200.996 405.132 Q206.783 405.132 210.162 408.303 Q213.542 411.474 213.542 416.891 Q213.542 422.47 210.07 425.571 Q206.598 428.65 200.278 428.65 Q198.102 428.65 195.834 428.28 Q193.588 427.909 191.181 427.169 L191.181 422.47 Q193.264 423.604 195.487 424.159 Q197.709 424.715 200.186 424.715 Q204.19 424.715 206.528 422.608 Q208.866 420.502 208.866 416.891 Q208.866 413.28 206.528 411.173 Q204.19 409.067 200.186 409.067 Q198.311 409.067 196.436 409.484 Q194.584 409.9 192.639 410.78 L192.639 393.419 Z" fill="#000000" fill-rule="evenodd" fill-opacity="1" /><path clip-path="url(#clip650)" d="M117.015 99.5305 L124.654 99.5305 L124.654 73.1649 L116.343 74.8316 L116.343 70.5723 L124.607 68.9057 L129.283 68.9057 L129.283 99.5305 L136.922 99.5305 L136.922 103.466 L117.015 103.466 L117.015 99.5305 Z" fill="#000000" fill-rule="evenodd" fill-opacity="1" /><path clip-path="url(#clip650)" d="M146.366 97.5861 L151.251 97.5861 L151.251 103.466 L146.366 103.466 L146.366 97.5861 Z" fill="#000000" fill-rule="evenodd" fill-opacity="1" /><path clip-path="url(#clip650)" d="M171.436 71.9844 Q167.825 71.9844 165.996 75.5492 Q164.19 79.0908 164.19 86.2204 Q164.19 93.3268 165.996 96.8916 Q167.825 100.433 171.436 100.433 Q175.07 100.433 176.876 96.8916 Q178.704 93.3268 178.704 86.2204 Q178.704 79.0908 176.876 75.5492 Q175.07 71.9844 171.436 71.9844 M171.436 68.2807 Q177.246 68.2807 180.301 72.8871 Q183.38 77.4704 183.38 86.2204 Q183.38 94.9472 180.301 99.5537 Q177.246 104.137 171.436 104.137 Q165.626 104.137 162.547 99.5537 Q159.491 94.9472 159.491 86.2204 Q159.491 77.4704 162.547 72.8871 Q165.626 68.2807 171.436 68.2807 Z" fill="#000000" fill-rule="evenodd" fill-opacity="1" /><path clip-path="url(#clip650)" d="M201.598 71.9844 Q197.987 71.9844 196.158 75.5492 Q194.352 79.0908 194.352 86.2204 Q194.352 93.3268 196.158 96.8916 Q197.987 100.433 201.598 100.433 Q205.232 100.433 207.037 96.8916 Q208.866 93.3268 208.866 86.2204 Q208.866 79.0908 207.037 75.5492 Q205.232 71.9844 201.598 71.9844 M201.598 68.2807 Q207.408 68.2807 210.463 72.8871 Q213.542 77.4704 213.542 86.2204 Q213.542 94.9472 210.463 99.5537 Q207.408 104.137 201.598 104.137 Q195.787 104.137 192.709 99.5537 Q189.653 94.9472 189.653 86.2204 Q189.653 77.4704 192.709 72.8871 Q195.787 68.2807 201.598 68.2807 Z" fill="#000000" fill-rule="evenodd" fill-opacity="1" /><path clip-path="url(#clip650)" d="M16.4842 964.696 L16.4842 924.496 L21.895 924.496 L21.895 941.365 L64.0042 941.365 L64.0042 947.827 L21.895 947.827 L21.895 964.696 L16.4842 964.696 Z" fill="#000000" fill-rule="evenodd" fill-opacity="1" /><path clip-path="url(#clip650)" d="M33.8307 907.468 Q33.2578 908.455 33.0032 909.632 Q32.7167 910.778 32.7167 912.179 Q32.7167 917.144 35.9632 919.817 Q39.1779 922.459 45.2253 922.459 L64.0042 922.459 L64.0042 928.348 L28.3562 928.348 L28.3562 922.459 L33.8944 922.459 Q30.6479 920.613 29.0883 917.653 Q27.4968 914.693 27.4968 910.46 Q27.4968 909.855 27.5923 909.123 Q27.656 908.391 27.8151 907.5 L33.8307 907.468 Z" fill="#000000" fill-rule="evenodd" fill-opacity="1" /><path clip-path="url(#clip650)" d="M46.0847 885.124 Q46.0847 892.222 47.7079 894.959 Q49.3312 897.697 53.2461 897.697 Q56.3653 897.697 58.2114 895.66 Q60.0256 893.591 60.0256 890.058 Q60.0256 885.188 56.5881 882.26 Q53.1188 879.3 47.3897 879.3 L46.0847 879.3 L46.0847 885.124 M43.6657 873.443 L64.0042 873.443 L64.0042 879.3 L58.5933 879.3 Q61.8398 881.305 63.3994 884.297 Q64.9272 887.289 64.9272 891.617 Q64.9272 897.092 61.8716 900.338 Q58.7843 903.553 53.6281 903.553 Q47.6125 903.553 44.5569 899.543 Q41.5014 895.5 41.5014 887.511 L41.5014 879.3 L40.9285 879.3 Q36.8862 879.3 34.6901 881.973 Q32.4621 884.615 32.4621 889.421 Q32.4621 892.477 33.1941 895.373 Q33.9262 898.27 35.3903 900.943 L29.9795 900.943 Q28.7381 897.728 28.1334 894.705 Q27.4968 891.681 27.4968 888.816 Q27.4968 881.082 31.5072 877.263 Q35.5176 873.443 43.6657 873.443 Z" fill="#000000" fill-rule="evenodd" fill-opacity="1" /><path clip-path="url(#clip650)" d="M42.4881 831.748 L64.0042 831.748 L64.0042 837.604 L42.679 837.604 Q37.6183 837.604 35.1038 839.578 Q32.5894 841.551 32.5894 845.498 Q32.5894 850.24 35.6131 852.978 Q38.6368 855.715 43.8567 855.715 L64.0042 855.715 L64.0042 861.603 L28.3562 861.603 L28.3562 855.715 L33.8944 855.715 Q30.6797 853.614 29.0883 850.781 Q27.4968 847.917 27.4968 844.193 Q27.4968 838.05 31.3163 834.899 Q35.1038 831.748 42.4881 831.748 Z" fill="#000000" fill-rule="evenodd" fill-opacity="1" /><path clip-path="url(#clip650)" d="M29.4065 797.341 L34.9447 797.341 Q33.6716 799.824 33.035 802.497 Q32.3984 805.171 32.3984 808.036 Q32.3984 812.396 33.7352 814.592 Q35.072 816.757 37.7456 816.757 Q39.7826 816.757 40.9603 815.197 Q42.1061 813.637 43.1565 808.927 L43.6021 806.922 Q44.9389 800.683 47.3897 798.073 Q49.8086 795.432 54.1691 795.432 Q59.1344 795.432 62.0308 799.378 Q64.9272 803.293 64.9272 810.168 Q64.9272 813.033 64.3543 816.152 Q63.8132 819.239 62.6992 822.677 L56.6518 822.677 Q58.3387 819.43 59.198 816.279 Q60.0256 813.128 60.0256 810.041 Q60.0256 805.903 58.6251 803.675 Q57.1929 801.447 54.6147 801.447 Q52.2276 801.447 50.9545 803.07 Q49.6813 804.662 48.5037 810.105 L48.0262 812.142 Q46.8804 817.584 44.5251 820.003 Q42.138 822.422 38.0002 822.422 Q32.9713 822.422 30.2341 818.857 Q27.4968 815.293 27.4968 808.736 Q27.4968 805.489 27.9743 802.625 Q28.4517 799.76 29.4065 797.341 Z" fill="#000000" fill-rule="evenodd" fill-opacity="1" /><path clip-path="url(#clip650)" d="M35.1993 758.351 Q31.2526 756.155 29.3747 753.1 Q27.4968 750.044 27.4968 745.906 Q27.4968 740.336 31.4117 737.313 Q35.2948 734.289 42.4881 734.289 L64.0042 734.289 L64.0042 740.177 L42.679 740.177 Q37.5546 740.177 35.072 741.991 Q32.5894 743.806 32.5894 747.53 Q32.5894 752.081 35.6131 754.723 Q38.6368 757.365 43.8567 757.365 L64.0042 757.365 L64.0042 763.253 L42.679 763.253 Q37.5228 763.253 35.072 765.067 Q32.5894 766.881 32.5894 770.669 Q32.5894 775.157 35.6449 777.799 Q38.6686 780.44 43.8567 780.44 L64.0042 780.44 L64.0042 786.329 L28.3562 786.329 L28.3562 780.44 L33.8944 780.44 Q30.616 778.435 29.0564 775.634 Q27.4968 772.833 27.4968 768.982 Q27.4968 765.099 29.4702 762.394 Q31.4436 759.656 35.1993 758.351 Z" fill="#000000" fill-rule="evenodd" fill-opacity="1" /><path clip-path="url(#clip650)" d="M28.3562 722.608 L28.3562 716.751 L64.0042 716.751 L64.0042 722.608 L28.3562 722.608 M14.479 722.608 L14.479 716.751 L21.895 716.751 L21.895 722.608 L14.479 722.608 Z" fill="#000000" fill-rule="evenodd" fill-opacity="1" /><path clip-path="url(#clip650)" d="M29.4065 681.772 L34.9447 681.772 Q33.6716 684.254 33.035 686.928 Q32.3984 689.602 32.3984 692.466 Q32.3984 696.827 33.7352 699.023 Q35.072 701.187 37.7456 701.187 Q39.7826 701.187 40.9603 699.628 Q42.1061 698.068 43.1565 693.357 L43.6021 691.352 Q44.9389 685.114 47.3897 682.504 Q49.8086 679.862 54.1691 679.862 Q59.1344 679.862 62.0308 683.809 Q64.9272 687.724 64.9272 694.599 Q64.9272 697.463 64.3543 700.583 Q63.8132 703.67 62.6992 707.107 L56.6518 707.107 Q58.3387 703.861 59.198 700.71 Q60.0256 697.559 60.0256 694.471 Q60.0256 690.334 58.6251 688.106 Q57.1929 685.878 54.6147 685.878 Q52.2276 685.878 50.9545 687.501 Q49.6813 689.092 48.5037 694.535 L48.0262 696.572 Q46.8804 702.015 44.5251 704.434 Q42.138 706.853 38.0002 706.853 Q32.9713 706.853 30.2341 703.288 Q27.4968 699.723 27.4968 693.166 Q27.4968 689.92 27.9743 687.055 Q28.4517 684.191 29.4065 681.772 Z" fill="#000000" fill-rule="evenodd" fill-opacity="1" /><path clip-path="url(#clip650)" d="M29.4065 647.811 L34.9447 647.811 Q33.6716 650.293 33.035 652.967 Q32.3984 655.641 32.3984 658.505 Q32.3984 662.866 33.7352 665.062 Q35.072 667.226 37.7456 667.226 Q39.7826 667.226 40.9603 665.667 Q42.1061 664.107 43.1565 659.396 L43.6021 657.391 Q44.9389 651.153 47.3897 648.543 Q49.8086 645.901 54.1691 645.901 Q59.1344 645.901 62.0308 649.848 Q64.9272 653.763 64.9272 660.638 Q64.9272 663.502 64.3543 666.621 Q63.8132 669.709 62.6992 673.146 L56.6518 673.146 Q58.3387 669.9 59.198 666.749 Q60.0256 663.598 60.0256 660.51 Q60.0256 656.373 58.6251 654.145 Q57.1929 651.917 54.6147 651.917 Q52.2276 651.917 50.9545 653.54 Q49.6813 655.131 48.5037 660.574 L48.0262 662.611 Q46.8804 668.054 44.5251 670.473 Q42.138 672.892 38.0002 672.892 Q32.9713 672.892 30.2341 669.327 Q27.4968 665.762 27.4968 659.205 Q27.4968 655.959 27.9743 653.094 Q28.4517 650.23 29.4065 647.811 Z" fill="#000000" fill-rule="evenodd" fill-opacity="1" /><path clip-path="url(#clip650)" d="M28.3562 636.575 L28.3562 630.719 L64.0042 630.719 L64.0042 636.575 L28.3562 636.575 M14.479 636.575 L14.479 630.719 L21.895 630.719 L21.895 636.575 L14.479 636.575 Z" fill="#000000" fill-rule="evenodd" fill-opacity="1" /><path clip-path="url(#clip650)" d="M28.3562 622.666 L28.3562 616.46 L58.275 605.32 L28.3562 594.18 L28.3562 587.973 L64.0042 601.341 L64.0042 609.298 L28.3562 622.666 Z" fill="#000000" fill-rule="evenodd" fill-opacity="1" /><path clip-path="url(#clip650)" d="M28.3562 579.889 L28.3562 574.032 L64.0042 574.032 L64.0042 579.889 L28.3562 579.889 M14.479 579.889 L14.479 574.032 L21.895 574.032 L21.895 579.889 L14.479 579.889 Z" fill="#000000" fill-rule="evenodd" fill-opacity="1" /><path clip-path="url(#clip650)" d="M18.2347 555.985 L28.3562 555.985 L28.3562 543.922 L32.9077 543.922 L32.9077 555.985 L52.2594 555.985 Q56.6199 555.985 57.8613 554.808 Q59.1026 553.598 59.1026 549.938 L59.1026 543.922 L64.0042 543.922 L64.0042 549.938 Q64.0042 556.718 61.4897 559.296 Q58.9434 561.874 52.2594 561.874 L32.9077 561.874 L32.9077 566.171 L28.3562 566.171 L28.3562 561.874 L18.2347 561.874 L18.2347 555.985 Z" fill="#000000" fill-rule="evenodd" fill-opacity="1" /><path clip-path="url(#clip650)" d="M67.3143 521.388 Q73.68 523.871 75.6216 526.226 Q77.5631 528.581 77.5631 532.528 L77.5631 537.207 L72.6615 537.207 L72.6615 533.769 Q72.6615 531.35 71.5157 530.013 Q70.3699 528.677 66.1048 527.053 L63.4312 526.003 L28.3562 540.421 L28.3562 534.215 L56.238 523.075 L28.3562 511.935 L28.3562 505.728 L67.3143 521.388 Z" fill="#000000" fill-rule="evenodd" fill-opacity="1" /><polyline clip-path="url(#clip653)" style="stroke:#009af9; stroke-linecap:round; stroke-linejoin:round; stroke-width:4; stroke-opacity:1; fill:none" points="
  492.221,1384.24 493.747,1384.24 495.273,1384.24 496.799,1384.23 498.326,1384.21 499.852,1384.1 501.378,1383.76 502.905,1382.82 504.431,1380.8 505.957,1377.16 
  507.483,1371.56 509.01,1363.95 510.536,1354.68 512.062,1344.31 513.588,1333.14 515.115,1321.8 516.641,1310.77 518.167,1300.04 519.694,1290 521.22,1280.42 
  522.746,1271.46 524.272,1262.88 525.799,1255.07 527.325,1248.17 528.851,1242.01 530.378,1236.46 531.904,1231.95 533.43,1228.15 534.956,1225.08 536.483,1222.65 
  538.009,1220.8 539.535,1219.55 541.062,1218.93 542.588,1218.81 544.114,1218.83 545.64,1219.4 547.167,1220.3 548.693,1221.66 550.219,1222.98 551.745,1224.78 
  553.272,1226.6 554.798,1228.37 556.324,1230.53 557.851,1232.26 559.377,1234.18 560.903,1235.84 562.429,1237.43 563.956,1239.07 565.482,1240.29 567.008,1241.27 
  568.535,1242.3 570.061,1242.76 571.587,1243.36 573.113,1243.75 574.64,1243.81 576.166,1243.46 577.692,1242.61 579.219,1241.47 580.745,1239.81 582.271,1237.03 
  583.797,1233.28 585.324,1228.4 586.85,1221.98 588.376,1214.32 589.902,1205.07 591.429,1194.35 592.955,1181.83 594.481,1167.97 596.008,1152.71 597.534,1136.09 
  599.06,1118.63 600.586,1100.43 602.113,1081.48 603.639,1062.64 605.165,1043.56 606.692,1025.25 608.218,1007.17 609.744,989.907 611.27,973.477 612.797,957.132 
  614.323,941.8 615.849,927.677 617.376,913.664 618.902,899.552 620.428,886.865 621.954,874.769 623.481,862.802 625.007,851.932 626.533,841.508 628.059,831.401 
  629.586,821.875 631.112,812.169 632.638,802.844 634.165,794.501 635.691,786.728 637.217,778.801 638.743,771.239 640.27,764.046 641.796,757.003 643.322,750.588 
  644.849,744.408 646.375,738.317 647.901,732.692 649.427,726.624 650.954,721.381 652.48,716.74 654.006,711.629 655.533,706.354 657.059,701.613 658.585,697.344 
  660.111,693.017 661.638,689.056 663.164,685.215 664.69,681.07 666.216,677.05 667.743,673.009 669.269,669.352 670.795,666.611 672.322,663.507 673.848,660.411 
  675.374,657.172 676.9,654.061 678.427,650.896 679.953,647.636 681.479,644.74 683.006,641.702 684.532,639.136 686.058,636.912 687.584,634.041 689.111,631.044 
  690.637,628.938 692.163,626.963 693.69,624.062 695.216,621.641 696.742,619.653 698.268,617.282 699.795,614.961 701.321,613.174 702.847,611.159 704.373,608.792 
  705.9,606.807 707.426,604.8 708.952,602.976 710.479,601.426 712.005,599.559 713.531,597.237 715.057,595.205 716.584,593.923 718.11,592.575 719.636,590.42 
  721.163,588.865 722.689,587.623 724.215,585.441 725.741,583.666 727.268,582.446 728.794,581.023 730.32,579.196 731.847,577.217 733.373,575.699 734.899,574.681 
  736.425,573.661 737.952,571.471 739.478,570.498 741.004,569.935 742.53,568.818 744.057,567.223 745.583,565.649 747.109,564.092 748.636,562.931 750.162,561.771 
  751.688,560.504 753.214,559.41 754.741,558.698 756.267,557.553 757.793,555.956 759.32,553.982 760.846,552.776 762.372,551.734 763.898,550.748 765.425,550.433 
  766.951,549.75 768.477,548.541 770.004,546.572 771.53,545.819 773.056,545.09 774.582,543.843 776.109,542.786 777.635,541.234 779.161,540.482 780.687,540.196 
  782.214,538.707 783.74,537.183 785.266,536.47 786.793,536.359 788.319,534.563 789.845,533.556 791.371,533.053 792.898,532.24 794.424,531.589 795.95,530.306 
  797.477,528.517 799.003,527.331 800.529,526.719 802.055,526.284 803.582,525.417 805.108,524.226 806.634,523.415 808.161,522.597 809.687,521.896 811.213,521.377 
  812.739,520.799 814.266,519.387 815.792,518.166 817.318,516.949 818.844,515.652 820.371,515.36 821.897,514.682 823.423,514.106 824.95,513.395 826.476,512.259 
  828.002,511.137 829.528,510.345 831.055,509.741 832.581,509.659 834.107,509.421 835.634,508.571 837.16,507.15 838.686,505.767 840.212,505.465 841.739,504.97 
  843.265,504.298 844.791,504.007 846.318,503.756 847.844,501.824 849.37,500.792 850.896,500.378 852.423,499.684 853.949,499.038 855.475,498.662 857.001,498.331 
  858.528,497.184 860.054,496.925 861.58,495.733 863.107,495.295 864.633,494.411 866.159,493.817 867.685,493.415 869.212,492.253 870.738,491.645 872.264,491.975 
  873.791,490.894 875.317,490.82 876.843,490.32 878.369,489.761 879.896,488.645 881.422,488.432 882.948,487.874 884.475,487.153 886.001,485.717 887.527,485.469 
  889.053,484.806 890.58,483.638 892.106,483.576 893.632,482.338 895.158,482.139 896.685,482.029 898.211,482.211 899.737,480.518 901.264,479.809 902.79,478.615 
  904.316,477.73 905.842,478.071 907.369,478.8 908.895,477.326 910.421,476.731 911.948,476.057 913.474,474.408 915,474.984 916.526,474.52 918.053,474.582 
  919.579,473.938 921.105,471.735 922.632,472.277 924.158,471.832 925.684,470.759 927.21,470.89 928.737,470.26 930.263,470.176 931.789,469.082 933.315,468.232 
  934.842,467.909 936.368,466.702 937.894,466.896 939.421,466.087 940.947,465.617 942.473,464.734 943.999,464.169 945.526,464.026 947.052,464.541 948.578,463.619 
  950.105,462.691 951.631,462.214 953.157,460.887 954.683,461.427 956.21,462.102 957.736,461.492 959.262,461.067 960.789,460.274 962.315,460.149 963.841,459.504 
  965.367,459.653 966.894,458.919 968.42,457.726 969.946,457.829 971.472,457.6 972.999,457.821 974.525,456.789 976.051,456.549 977.578,455.626 979.104,456.233 
  980.63,456.26 982.156,456.099 983.683,455.257 985.209,454.768 986.735,454.794 988.262,455.232 989.788,454.993 991.314,453.586 992.84,453.683 994.367,454.397 
  995.893,453.726 997.419,453.362 998.946,453.251 1000.47,452.916 1002,453.044 1003.52,453.438 1005.05,453.125 1006.58,453.351 1008.1,452.511 1009.63,452.981 
  1011.16,452.156 1012.68,452.414 1014.21,452.36 1015.73,453.081 1017.26,452.792 1018.79,452.424 1020.31,451.806 1021.84,451.469 1023.37,451.756 1024.89,452.36 
  1026.42,452.984 1027.94,452.44 1029.47,453.362 1031,452.168 1032.52,452.475 1034.05,452.944 1035.58,453.78 1037.1,454.036 1038.63,453.919 1040.16,453.784 
  1041.68,454.307 1043.21,454.798 1044.73,455.482 1046.26,455.878 1047.79,456.287 1049.31,456.492 1050.84,456.843 1052.37,457.305 1053.89,457.783 1055.42,457.528 
  1056.94,458.693 1058.47,458.679 1060,457.967 1061.52,460.342 1063.05,459.969 1064.58,461.115 1066.1,461.296 1067.63,461.944 1069.15,462.702 1070.68,462.549 
  1072.21,463.275 1073.73,463.863 1075.26,466.298 1076.79,467.21 1078.31,466.835 1079.84,467.39 1081.36,467.89 1082.89,469.449 1084.42,470.955 1085.94,472.074 
  1087.47,472.558 1089,473.226 1090.52,474.081 1092.05,475.09 1093.57,475.821 1095.1,477.599 1096.63,478.433 1098.15,479.296 1099.68,481.127 1101.21,482.465 
  1102.73,482.241 1104.26,484.836 1105.79,486.361 1107.31,488.124 1108.84,488.054 1110.36,490.206 1111.89,489.952 1113.42,491.947 1114.94,494.438 1116.47,495.88 
  1118,497.846 1119.52,498.307 1121.05,500.099 1122.57,501.268 1124.1,502.783 1125.63,504.474 1127.15,507.092 1128.68,509.186 1130.21,510.218 1131.73,511.442 
  1133.26,513.4 1134.78,515.866 1136.31,518.121 1137.84,519.756 1139.36,522.271 1140.89,523.802 1142.42,526.624 1143.94,528.803 1145.47,529.862 1146.99,532.186 
  1148.52,534.824 1150.05,536.666 1151.57,538.393 1153.1,541.76 1154.63,544.203 1156.15,545.396 1157.68,547.901 1159.2,550.12 1160.73,552.803 1162.26,554.965 
  1163.78,558.539 1165.31,560.827 1166.84,562.706 1168.36,565.197 1169.89,567.378 1171.42,569.965 1172.94,572.916 1174.47,576.555 1175.99,578.262 1177.52,582.205 
  1179.05,585.285 1180.57,587.441 1182.1,590.668 1183.63,593.635 1185.15,595.698 1186.68,598.8 1188.2,601.985 1189.73,606.111 1191.26,608.598 1192.78,610.691 
  1194.31,615.272 1195.84,618.487 1197.36,620.336 1198.89,623.349 1200.41,627.812 1201.94,631.444 1203.47,634.593 1204.99,637.933 1206.52,641.008 1208.05,644.002 
  1209.57,647.72 1211.1,651.037 1212.62,653.966 1214.15,657.166 1215.68,661.093 1217.2,665.233 1218.73,668.752 1220.26,672.314 1221.78,675.589 1223.31,679.757 
  1224.83,683.83 1226.36,687.863 1227.89,691.256 1229.41,694.406 1230.94,698.342 1232.47,702.601 1233.99,706.943 1235.52,710.461 1237.05,714.651 1238.57,718.095 
  1240.1,722.112 1241.62,725.629 1243.15,730.168 1244.68,732.466 1246.2,736.219 1247.73,740.441 1249.26,745.601 1250.78,749.719 1252.31,753.325 1253.83,757.683 
  1255.36,762.308 1256.89,766.498 1258.41,770.074 1259.94,774.273 1261.47,778.152 1262.99,782.938 1264.52,787.284 1266.04,791.172 1267.57,795.77 1269.1,800.055 
  1270.62,803.498 1272.15,807.501 1273.68,811.686 1275.2,815.69 1276.73,819.448 1278.25,823.321 1279.78,827.866 1281.31,833.237 1282.83,837.672 1284.36,841.599 
  1285.89,845.826 1287.41,850.757 1288.94,855.118 1290.47,858.983 1291.99,861.739 1293.52,866.936 1295.04,872.263 1296.57,877.016 1298.1,881.475 1299.62,885.549 
  1301.15,890.521 1302.68,894.643 1304.2,898.74 1305.73,903.766 1307.25,907.858 1308.78,911.572 1310.31,915.836 1311.83,919.686 1313.36,924.843 1314.89,930.065 
  1316.41,933.472 1317.94,938.266 1319.46,941.576 1320.99,945.662 1322.52,950.498 1324.04,955.705 1325.57,959.14 1327.1,964.131 1328.62,970.232 1330.15,972.959 
  1331.67,976.656 1333.2,981.603 1334.73,986.004 1336.25,988.671 1337.78,992.864 1339.31,997.648 1340.83,1001.64 1342.36,1006.2 1343.88,1010.72 1345.41,1015.72 
  1346.94,1020.15 1348.46,1023.7 1349.99,1027.42 1351.52,1031.92 1353.04,1036.55 1354.57,1040.76 1356.1,1044.86 1357.62,1048.56 1359.15,1051.87 1360.67,1056.14 
  1362.2,1060.41 1363.73,1064.7 1365.25,1069.21 1366.78,1073.39 1368.31,1076.69 1369.83,1080.98 1371.36,1084.88 1372.88,1088.42 1374.41,1092.71 1375.94,1097.14 
  1377.46,1100.85 1378.99,1104.53 1380.52,1108.45 1382.04,1112.49 1383.57,1116.16 1385.09,1119.93 1386.62,1123.45 1388.15,1127.4 1389.67,1131.05 1391.2,1134.29 
  1392.73,1138.16 1394.25,1142.27 1395.78,1146.17 1397.3,1149.68 1398.83,1152.83 1400.36,1156.2 1401.88,1159.68 1403.41,1163.12 1404.94,1166.98 1406.46,1170.69 
  1407.99,1173.86 1409.51,1177.09 1411.04,1180.64 1412.57,1184 1414.09,1187.36 1415.62,1190.8 1417.15,1194.25 1418.67,1197.34 1420.2,1200.39 1421.73,1203.33 
  1423.25,1206.25 1424.78,1209.61 1426.3,1212.71 1427.83,1215.73 1429.36,1218.77 1430.88,1221.82 1432.41,1224.66 1433.94,1227.55 1435.46,1230.66 1436.99,1233.64 
  1438.51,1236.57 1440.04,1239.25 1441.57,1241.95 1443.09,1244.82 1444.62,1247.46 1446.15,1250.23 1447.67,1253.05 1449.2,1255.71 1450.72,1258.21 1452.25,1260.8 
  1453.78,1263.27 1455.3,1265.73 1456.83,1268.02 1458.36,1270.48 1459.88,1272.83 1461.41,1275.34 1462.93,1278.06 1464.46,1280.23 1465.99,1282.35 1467.51,1284.6 
  1469.04,1286.91 1470.57,1289.22 1472.09,1291.52 1473.62,1293.71 1475.14,1295.83 1476.67,1297.84 1478.2,1299.79 1479.72,1301.76 1481.25,1303.84 1482.78,1305.91 
  1484.3,1307.89 1485.83,1309.88 1487.36,1311.77 1488.88,1313.53 1490.41,1315.2 1491.93,1316.89 1493.46,1318.69 1494.99,1320.5 1496.51,1322.27 1498.04,1323.97 
  1499.57,1325.63 1501.09,1327.18 1502.62,1328.7 1504.14,1330.23 1505.67,1331.73 1507.2,1333.2 1508.72,1334.75 1510.25,1336.21 1511.78,1337.65 1513.3,1338.98 
  1514.83,1340.28 1516.35,1341.59 1517.88,1342.88 1519.41,1344.19 1520.93,1345.5 1522.46,1346.76 1523.99,1348.01 1525.51,1349.17 1527.04,1350.25 1528.56,1351.3 
  1530.09,1352.39 1531.62,1353.49 1533.14,1354.56 1534.67,1355.6 1536.2,1356.62 1537.72,1357.58 1539.25,1358.5 1540.77,1359.39 1542.3,1360.27 1543.83,1361.14 
  1545.35,1362.04 1546.88,1362.9 1548.41,1363.73 1549.93,1364.52 1551.46,1365.29 1552.99,1366.01 1554.51,1366.69 1556.04,1367.38 1557.56,1368.1 1559.09,1368.77 
  1560.62,1369.45 1562.14,1370.07 1563.67,1370.67 1565.2,1371.24 1566.72,1371.79 1568.25,1372.3 1569.77,1372.83 1571.3,1373.36 1572.83,1373.87 1574.35,1374.35 
  1575.88,1374.83 1577.41,1375.26 1578.93,1375.68 1580.46,1376.08 1581.98,1376.48 1583.51,1376.86 1585.04,1377.22 1586.56,1377.58 1588.09,1377.93 1589.62,1378.26 
  1591.14,1378.57 1592.67,1378.87 1594.19,1379.16 1595.72,1379.43 1597.25,1379.7 1598.77,1379.96 1600.3,1380.21 1601.83,1380.46 1603.35,1380.69 1604.88,1380.9 
  1606.4,1381.11 1607.93,1384.24 1609.46,1384.24 1610.98,1384.24 1612.51,1384.24 1614.04,1384.24 1615.56,1384.24 1617.09,1384.24 1618.62,1384.24 1620.14,1384.24 
  1621.67,1384.24 1623.19,1384.24 1624.72,1384.24 1626.25,1384.24 1627.77,1384.24 1629.3,1384.24 1630.83,1384.24 1632.35,1384.24 1633.88,1384.24 1635.4,1384.24 
  1636.93,1384.24 1638.46,1384.24 1639.98,1384.24 1641.51,1384.24 1643.04,1384.24 1644.56,1384.24 1646.09,1384.24 1647.61,1384.24 1649.14,1384.24 1650.67,1384.24 
  1652.19,1384.24 1653.72,1384.24 1655.25,1384.24 1656.77,1384.24 1658.3,1384.24 1659.82,1384.24 1661.35,1384.24 1662.88,1384.24 1664.4,1384.24 1665.93,1384.24 
  1667.46,1384.24 1668.98,1384.24 1670.51,1384.24 1672.04,1384.24 1673.56,1384.24 1675.09,1384.24 1676.61,1384.24 1678.14,1384.24 1679.67,1384.24 1681.19,1384.24 
  1682.72,1384.24 
  "/>
<polyline clip-path="url(#clip653)" style="stroke:#e26f46; stroke-linecap:round; stroke-linejoin:round; stroke-width:4; stroke-opacity:1; fill:none" points="
  492.221,1384.24 493.747,1384.24 495.273,1384.24 496.799,1384.24 498.326,1384.24 499.852,1384.19 501.378,1384.01 502.905,1383.4 504.431,1381.69 505.957,1377.73 
  507.483,1370.03 509.01,1357.36 510.536,1339.2 512.062,1316.05 513.588,1288.78 515.115,1259.58 516.641,1230.06 518.167,1199.55 519.694,1169.34 521.22,1139.47 
  522.746,1111.94 524.272,1087.22 525.799,1067.67 527.325,1057.54 528.851,1057.09 530.378,1064.61 531.904,1077.11 533.43,1093.24 534.956,1112.65 536.483,1131.73 
  538.009,1144.55 539.535,1151.49 541.062,1152.83 542.588,1148.78 544.114,1140.44 545.64,1128.54 547.167,1113.76 548.693,1100.2 550.219,1089.07 551.745,1082.19 
  553.272,1078.86 554.798,1078.89 556.324,1082.28 557.851,1085.53 559.377,1089.63 560.903,1093.52 562.429,1097.56 563.956,1102.38 565.482,1107.31 567.008,1112.68 
  568.535,1118.98 570.061,1125.07 571.587,1132.35 573.113,1139.58 574.64,1146.42 576.166,1152.77 577.692,1158.52 579.219,1164.04 580.745,1169.03 582.271,1172.46 
  583.797,1173.77 585.324,1172.69 586.85,1169.14 588.376,1163.62 589.902,1155.65 591.429,1145.32 592.955,1132.11 594.481,1116.38 596.008,1097.81 597.534,1076.45 
  599.06,1054.08 600.586,1030.92 602.113,1006.63 603.639,982.205 605.165,957.235 606.692,933.013 608.218,909.001 609.744,886.026 611.27,864.268 612.797,842.907 
  614.323,823.251 615.849,805.664 617.376,788.981 618.902,772.641 620.428,758.321 621.954,744.987 623.481,732.079 625.007,720.807 626.533,710.362 628.059,700.577 
  629.586,691.772 631.112,683.001 632.638,674.943 634.165,668.325 635.691,662.526 637.217,656.59 638.743,651.127 640.27,646.136 641.796,641.347 643.322,637.32 
  644.849,633.571 646.375,629.921 647.901,626.812 649.427,623.184 650.954,620.506 652.48,618.512 654.006,615.961 655.533,613.134 657.059,610.786 658.585,608.835 
  660.111,606.676 661.638,604.783 663.164,602.879 664.69,600.494 666.216,598.112 667.743,595.569 669.269,593.314 670.795,591.929 672.322,589.995 673.848,587.92 
  675.374,585.545 676.9,583.272 678.427,581.042 679.953,578.807 681.479,577.069 683.006,575.274 684.532,574.092 686.058,573.375 687.584,572.046 689.111,570.678 
  690.637,570.369 692.163,570.301 693.69,569.352 695.216,569.029 696.742,569.282 698.268,569.238 699.795,569.361 701.321,570.034 702.847,570.356 704.373,570.195 
  705.9,570.323 707.426,570.31 708.952,570.374 710.479,570.609 712.005,570.403 713.531,569.613 715.057,569.02 716.584,569.101 718.11,569.016 719.636,568.003 
  721.163,567.51 722.689,567.236 724.215,565.898 725.741,564.872 727.268,564.326 728.794,563.601 730.32,562.507 731.847,561.309 733.373,560.628 734.899,560.511 
  736.425,560.446 737.952,559.25 739.478,559.344 741.004,559.898 742.53,559.934 744.057,559.531 745.583,559.198 747.109,558.936 748.636,559.132 750.162,559.391 
  751.688,559.604 753.214,560.048 754.741,560.926 756.267,561.427 757.793,561.51 759.32,561.189 760.846,561.591 762.372,562.114 763.898,562.649 765.425,563.807 
  766.951,564.566 768.477,564.777 770.004,564.212 771.53,564.805 773.056,565.39 774.582,565.442 776.109,565.651 777.635,565.348 779.161,565.79 780.687,566.649 
  782.214,566.304 783.74,565.889 785.266,566.22 786.793,567.092 788.319,566.299 789.845,566.232 791.371,566.615 792.898,566.748 794.424,567.125 795.95,566.987 
  797.477,566.455 799.003,566.589 800.529,567.357 802.055,568.373 803.582,569.054 805.108,569.497 806.634,570.368 808.161,571.301 809.687,572.412 811.213,573.768 
  812.739,575.1 814.266,575.552 815.792,576.08 817.318,576.512 818.844,576.769 820.371,577.86 821.897,578.492 823.423,579.115 824.95,579.511 826.476,579.414 
  828.002,579.227 829.528,579.243 831.055,579.323 832.581,579.772 834.107,579.972 835.634,579.503 837.16,578.407 838.686,577.244 840.212,576.975 841.739,576.471 
  843.265,575.956 844.791,575.975 846.318,576.215 847.844,575.095 849.37,574.981 850.896,575.615 852.423,576.168 853.949,576.94 855.475,578.127 857.001,579.518 
  858.528,580.319 860.054,581.97 861.58,582.795 863.107,584.317 864.633,585.456 866.159,586.871 867.685,588.473 869.212,589.414 870.738,590.868 872.264,593.177 
  873.791,594.26 875.317,596.257 876.843,597.768 878.369,598.673 879.896,598.51 881.422,598.568 882.948,597.755 884.475,596.236 886.001,593.528 887.527,591.305 
  889.053,588.159 890.58,584.008 892.106,580.281 893.632,574.946 895.158,570.014 896.685,565.47 898.211,561.862 899.737,557.207 901.264,554.118 902.79,551.249 
  904.316,549.327 905.842,549.193 907.369,550.061 908.895,549.534 910.421,550.445 911.948,551.904 913.474,553.084 915,556.896 916.526,560.345 918.053,564.839 
  919.579,569.248 921.105,572.786 922.632,578.383 924.158,582.293 925.684,584.863 927.21,587.72 928.737,589.177 930.263,590.414 931.789,590.089 933.315,589.305 
  934.842,588.312 936.368,585.894 937.894,584.042 939.421,580.666 940.947,576.94 942.473,572.203 943.999,567.089 945.526,561.685 947.052,556.205 948.578,548.753 
  950.105,541.114 951.631,534.718 953.157,528.405 954.683,524.703 956.21,522.024 957.736,519.041 959.262,517.125 960.789,515.758 962.315,515.909 963.841,516.453 
  965.367,518.611 966.894,520.793 968.42,523.379 969.946,527.978 971.472,533.051 972.999,539.298 974.525,545.141 976.051,552.419 977.578,559.771 979.104,569.126 
  980.63,578.579 982.156,588.456 983.683,598.312 985.209,609.005 986.735,620.63 988.262,633.055 989.788,645.367 991.314,657.154 992.84,670.509 994.367,684.728 
  995.893,698.371 997.419,712.851 998.946,728.338 1000.47,744.826 1002,763.254 1003.52,784.062 1005.05,807.309 1006.58,834.49 1008.1,865.263 1009.63,901.347 
  1011.16,941.337 1012.68,985.941 1014.21,1033.46 1015.73,1082.84 1017.26,1131.69 1018.79,1178.52 1020.31,1221.6 1021.84,1259.72 1023.37,1292.05 1024.89,1318.27 
  1026.42,1338.6 1027.94,1353.66 1029.47,1364.41 1031,1371.69 1032.52,1376.45 1034.05,1379.43 1035.58,1381.21 1037.1,1382.24 1038.63,1382.81 1040.16,1383.12 
  1041.68,1383.29 1043.21,1383.39 1044.73,1383.45 1046.26,1383.49 1047.79,1383.53 1049.31,1383.56 1050.84,1383.67 1052.37,1383.75 1053.89,1383.8 1055.42,1383.83 
  1056.94,1383.87 1058.47,1383.9 1060,1383.94 1061.52,1383.99 1063.05,1384.04 1064.58,1384.09 1066.1,1384.14 1067.63,1384.17 1069.15,1384.19 1070.68,1384.2 
  1072.21,1384.21 1073.73,1384.22 1075.26,1384.22 1076.79,1384.23 1078.31,1384.23 1079.84,1384.23 1081.36,1384.23 1082.89,1384.23 1084.42,1384.23 1085.94,1384.23 
  1087.47,1384.23 1089,1384.23 1090.52,1384.23 1092.05,1384.23 1093.57,1384.23 1095.1,1384.23 1096.63,1384.23 1098.15,1384.24 1099.68,1384.24 1101.21,1384.24 
  1102.73,1384.24 1104.26,1384.24 1105.79,1384.24 1107.31,1384.24 1108.84,1384.24 1110.36,1384.24 1111.89,1384.24 1113.42,1384.24 1114.94,1384.24 1116.47,1384.24 
  1118,1384.24 1119.52,1384.24 1121.05,1384.24 1122.57,1384.24 1124.1,1384.24 1125.63,1384.24 1127.15,1384.24 1128.68,1384.24 1130.21,1384.24 1131.73,1384.24 
  1133.26,1384.24 1134.78,1384.24 1136.31,1384.24 1137.84,1384.24 1139.36,1384.24 1140.89,1384.24 1142.42,1384.24 1143.94,1384.24 1145.47,1384.24 1146.99,1384.24 
  1148.52,1384.24 1150.05,1384.24 1151.57,1384.24 1153.1,1384.24 1154.63,1384.24 1156.15,1384.24 1157.68,1384.24 1159.2,1384.24 1160.73,1384.24 1162.26,1384.24 
  1163.78,1384.24 1165.31,1384.24 1166.84,1384.24 1168.36,1384.24 1169.89,1384.24 1171.42,1384.24 1172.94,1384.24 1174.47,1384.24 1175.99,1384.24 1177.52,1384.24 
  1179.05,1384.24 1180.57,1384.24 1182.1,1384.24 1183.63,1384.24 1185.15,1384.24 1186.68,1384.24 1188.2,1384.24 1189.73,1384.24 1191.26,1384.24 1192.78,1384.24 
  1194.31,1384.24 1195.84,1384.24 1197.36,1384.24 1198.89,1384.24 1200.41,1384.24 1201.94,1384.24 1203.47,1384.24 1204.99,1384.24 1206.52,1384.24 1208.05,1384.24 
  1209.57,1384.24 1211.1,1384.24 1212.62,1384.24 1214.15,1384.24 1215.68,1384.24 1217.2,1384.24 1218.73,1384.24 1220.26,1384.24 1221.78,1384.24 1223.31,1384.24 
  1224.83,1384.24 1226.36,1384.24 1227.89,1384.24 1229.41,1384.24 1230.94,1384.24 1232.47,1384.24 1233.99,1384.24 1235.52,1384.24 1237.05,1384.24 1238.57,1384.24 
  1240.1,1384.24 1241.62,1384.24 1243.15,1384.24 1244.68,1384.24 1246.2,1384.24 1247.73,1384.24 1249.26,1384.24 1250.78,1384.24 1252.31,1384.24 1253.83,1384.24 
  1255.36,1384.24 1256.89,1384.24 1258.41,1384.24 1259.94,1384.24 1261.47,1384.24 1262.99,1384.24 1264.52,1384.24 1266.04,1384.24 1267.57,1384.24 1269.1,1384.24 
  1270.62,1384.24 1272.15,1384.24 1273.68,1384.24 1275.2,1384.24 1276.73,1384.24 1278.25,1384.24 1279.78,1384.24 1281.31,1384.24 1282.83,1384.24 1284.36,1384.24 
  1285.89,1384.24 1287.41,1384.24 1288.94,1384.24 1290.47,1384.24 1291.99,1384.24 1293.52,1384.24 1295.04,1384.24 1296.57,1384.24 1298.1,1384.24 1299.62,1384.24 
  1301.15,1384.24 1302.68,1384.24 1304.2,1384.24 1305.73,1384.24 1307.25,1384.24 1308.78,1384.24 1310.31,1384.24 1311.83,1384.24 1313.36,1384.24 1314.89,1384.24 
  1316.41,1384.24 1317.94,1384.24 1319.46,1384.24 1320.99,1384.24 1322.52,1384.24 1324.04,1384.24 1325.57,1384.24 1327.1,1384.24 1328.62,1384.24 1330.15,1384.24 
  1331.67,1384.24 1333.2,1384.24 1334.73,1384.24 1336.25,1384.24 1337.78,1384.24 1339.31,1384.24 1340.83,1384.24 1342.36,1384.24 1343.88,1384.24 1345.41,1384.24 
  1346.94,1384.24 1348.46,1384.24 1349.99,1384.24 1351.52,1384.24 1353.04,1384.24 1354.57,1384.24 1356.1,1384.24 1357.62,1384.24 1359.15,1384.24 1360.67,1384.24 
  1362.2,1384.24 1363.73,1384.24 1365.25,1384.24 1366.78,1384.24 1368.31,1384.24 1369.83,1384.24 1371.36,1384.24 1372.88,1384.24 1374.41,1384.24 1375.94,1384.24 
  1377.46,1384.24 1378.99,1384.24 1380.52,1384.24 1382.04,1384.24 1383.57,1384.24 1385.09,1384.24 1386.62,1384.24 1388.15,1384.24 1389.67,1384.24 1391.2,1384.24 
  1392.73,1384.24 1394.25,1384.24 1395.78,1384.24 1397.3,1384.24 1398.83,1384.24 1400.36,1384.24 1401.88,1384.24 1403.41,1384.24 1404.94,1384.24 1406.46,1384.24 
  1407.99,1384.24 1409.51,1384.24 1411.04,1384.24 1412.57,1384.24 1414.09,1384.24 1415.62,1384.24 1417.15,1384.24 1418.67,1384.24 1420.2,1384.24 1421.73,1384.24 
  1423.25,1384.24 1424.78,1384.24 1426.3,1384.24 1427.83,1384.24 1429.36,1384.24 1430.88,1384.24 1432.41,1384.24 1433.94,1384.24 1435.46,1384.24 1436.99,1384.24 
  1438.51,1384.24 1440.04,1384.24 1441.57,1384.24 1443.09,1384.24 1444.62,1384.24 1446.15,1384.24 1447.67,1384.24 1449.2,1384.24 1450.72,1384.24 1452.25,1384.24 
  1453.78,1384.24 1455.3,1384.24 1456.83,1384.24 1458.36,1384.24 1459.88,1384.24 1461.41,1384.24 1462.93,1384.24 1464.46,1384.24 1465.99,1384.24 1467.51,1384.24 
  1469.04,1384.24 1470.57,1384.24 1472.09,1384.24 1473.62,1384.24 1475.14,1384.24 1476.67,1384.24 1478.2,1384.24 1479.72,1384.24 1481.25,1384.24 1482.78,1384.24 
  1484.3,1384.24 1485.83,1384.24 1487.36,1384.24 1488.88,1384.24 1490.41,1384.24 1491.93,1384.24 1493.46,1384.24 1494.99,1384.24 1496.51,1384.24 1498.04,1384.24 
  1499.57,1384.24 1501.09,1384.24 1502.62,1384.24 1504.14,1384.24 1505.67,1384.24 1507.2,1384.24 1508.72,1384.24 1510.25,1384.24 1511.78,1384.24 1513.3,1384.24 
  1514.83,1384.24 1516.35,1384.24 1517.88,1384.24 1519.41,1384.24 1520.93,1384.24 1522.46,1384.24 1523.99,1384.24 1525.51,1384.24 1527.04,1384.24 1528.56,1384.24 
  1530.09,1384.24 1531.62,1384.24 1533.14,1384.24 1534.67,1384.24 1536.2,1384.24 1537.72,1384.24 1539.25,1384.24 1540.77,1384.24 1542.3,1384.24 1543.83,1384.24 
  1545.35,1384.24 1546.88,1384.24 1548.41,1384.24 1549.93,1384.24 1551.46,1384.24 1552.99,1384.24 1554.51,1384.24 1556.04,1384.24 1557.56,1384.24 1559.09,1384.24 
  1560.62,1384.24 1562.14,1384.24 1563.67,1384.24 1565.2,1384.24 1566.72,1384.24 1568.25,1384.24 1569.77,1384.24 1571.3,1384.24 1572.83,1384.24 1574.35,1384.24 
  1575.88,1384.24 1577.41,1384.24 1578.93,1384.24 1580.46,1384.24 1581.98,1384.24 1583.51,1384.24 1585.04,1384.24 1586.56,1384.24 1588.09,1384.24 1589.62,1384.24 
  1591.14,1384.24 1592.67,1384.24 1594.19,1384.24 1595.72,1384.24 1597.25,1384.24 1598.77,1384.24 1600.3,1384.24 1601.83,1384.24 1603.35,1384.24 1604.88,1384.24 
  1606.4,1384.24 1607.93,1384.24 1609.46,1384.24 1610.98,1384.24 1612.51,1384.24 1614.04,1384.24 1615.56,1384.24 1617.09,1384.24 1618.62,1384.24 1620.14,1384.24 
  1621.67,1384.24 1623.19,1384.24 1624.72,1384.24 1626.25,1384.24 1627.77,1384.24 1629.3,1384.24 1630.83,1384.24 1632.35,1384.24 1633.88,1384.24 1635.4,1384.24 
  1636.93,1384.24 1638.46,1384.24 1639.98,1384.24 1641.51,1384.24 1643.04,1384.24 1644.56,1384.24 1646.09,1384.24 1647.61,1384.24 1649.14,1384.24 1650.67,1384.24 
  1652.19,1384.24 1653.72,1384.24 1655.25,1384.24 1656.77,1384.24 1658.3,1384.24 1659.82,1384.24 1661.35,1384.24 1662.88,1384.24 1664.4,1384.24 1665.93,1384.24 
  1667.46,1384.24 1668.98,1384.24 1670.51,1384.24 1672.04,1384.24 1673.56,1384.24 1675.09,1384.24 1676.61,1384.24 1678.14,1384.24 1679.67,1384.24 1681.19,1384.24 
  1682.72,1384.24 
  "/>
<polyline clip-path="url(#clip653)" style="stroke:#3da44d; stroke-linecap:round; stroke-linejoin:round; stroke-width:4; stroke-opacity:1; fill:none" points="
  492.221,1384.24 493.747,1384.24 495.273,1384.24 496.799,1384.24 498.326,1384.24 499.852,1384.24 501.378,1384.24 502.905,1384.24 504.431,1384.24 505.957,1384.24 
  507.483,1384.24 509.01,1384.24 510.536,1384.24 512.062,1384.24 513.588,1384.24 515.115,1384.24 516.641,1384.24 518.167,1384.24 519.694,1384.24 521.22,1384.24 
  522.746,1384.24 524.272,1384.24 525.799,1384.24 527.325,1384.24 528.851,1384.24 530.378,1384.24 531.904,1384.24 533.43,1384.24 534.956,1384.24 536.483,1384.24 
  538.009,1384.24 539.535,1384.24 541.062,1384.24 542.588,1384.24 544.114,1384.24 545.64,1384.24 547.167,1384.24 548.693,1384.24 550.219,1384.24 551.745,1384.24 
  553.272,1384.24 554.798,1384.24 556.324,1384.24 557.851,1384.24 559.377,1384.24 560.903,1384.24 562.429,1384.24 563.956,1384.24 565.482,1384.24 567.008,1384.24 
  568.535,1384.24 570.061,1384.24 571.587,1384.24 573.113,1384.24 574.64,1384.24 576.166,1384.24 577.692,1384.24 579.219,1384.24 580.745,1384.24 582.271,1384.24 
  583.797,1384.24 585.324,1384.24 586.85,1384.24 588.376,1384.24 589.902,1384.24 591.429,1384.24 592.955,1384.24 594.481,1384.24 596.008,1384.24 597.534,1384.24 
  599.06,1384.24 600.586,1384.24 602.113,1384.24 603.639,1384.24 605.165,1384.24 606.692,1384.24 608.218,1384.24 609.744,1384.24 611.27,1384.24 612.797,1384.24 
  614.323,1384.24 615.849,1384.24 617.376,1384.24 618.902,1384.24 620.428,1384.24 621.954,1384.24 623.481,1384.24 625.007,1384.24 626.533,1384.24 628.059,1384.24 
  629.586,1384.24 631.112,1384.24 632.638,1384.24 634.165,1384.24 635.691,1384.24 637.217,1384.24 638.743,1384.24 640.27,1384.24 641.796,1384.24 643.322,1384.24 
  644.849,1384.24 646.375,1384.24 647.901,1384.24 649.427,1384.24 650.954,1384.24 652.48,1384.24 654.006,1384.24 655.533,1384.24 657.059,1384.24 658.585,1384.24 
  660.111,1384.24 661.638,1384.24 663.164,1384.24 664.69,1384.24 666.216,1384.24 667.743,1384.24 669.269,1384.24 670.795,1384.24 672.322,1384.24 673.848,1384.24 
  675.374,1384.24 676.9,1384.24 678.427,1384.24 679.953,1384.24 681.479,1384.24 683.006,1384.24 684.532,1384.24 686.058,1384.24 687.584,1384.24 689.111,1384.24 
  690.637,1384.24 692.163,1384.24 693.69,1384.24 695.216,1384.24 696.742,1384.24 698.268,1384.24 699.795,1384.24 701.321,1384.24 702.847,1384.24 704.373,1384.24 
  705.9,1384.24 707.426,1384.24 708.952,1384.24 710.479,1384.24 712.005,1384.24 713.531,1384.24 715.057,1384.24 716.584,1384.24 718.11,1384.24 719.636,1384.24 
  721.163,1384.24 722.689,1384.24 724.215,1384.24 725.741,1384.24 727.268,1384.24 728.794,1384.24 730.32,1384.24 731.847,1384.24 733.373,1384.24 734.899,1384.24 
  736.425,1384.24 737.952,1384.24 739.478,1384.24 741.004,1384.24 742.53,1384.24 744.057,1384.24 745.583,1384.24 747.109,1384.24 748.636,1384.24 750.162,1384.24 
  751.688,1384.24 753.214,1384.24 754.741,1384.24 756.267,1384.24 757.793,1384.24 759.32,1384.24 760.846,1384.24 762.372,1384.24 763.898,1384.24 765.425,1384.24 
  766.951,1384.24 768.477,1384.24 770.004,1384.24 771.53,1384.24 773.056,1384.24 774.582,1384.24 776.109,1384.24 777.635,1384.24 779.161,1384.24 780.687,1384.24 
  782.214,1384.24 783.74,1384.24 785.266,1384.24 786.793,1384.24 788.319,1384.24 789.845,1384.24 791.371,1384.24 792.898,1384.24 794.424,1384.24 795.95,1384.24 
  797.477,1384.24 799.003,1384.24 800.529,1384.24 802.055,1384.24 803.582,1384.24 805.108,1384.24 806.634,1384.24 808.161,1384.24 809.687,1384.24 811.213,1384.24 
  812.739,1384.24 814.266,1384.24 815.792,1384.24 817.318,1384.24 818.844,1384.24 820.371,1384.24 821.897,1384.24 823.423,1384.24 824.95,1384.24 826.476,1384.24 
  828.002,1384.24 829.528,1384.24 831.055,1384.24 832.581,1384.24 834.107,1384.24 835.634,1384.24 837.16,1384.24 838.686,1384.24 840.212,1384.24 841.739,1384.24 
  843.265,1384.24 844.791,1384.24 846.318,1384.24 847.844,1384.24 849.37,1384.24 850.896,1384.24 852.423,1384.24 853.949,1384.24 855.475,1384.24 857.001,1384.24 
  858.528,1384.24 860.054,1384.24 861.58,1384.24 863.107,1384.24 864.633,1384.24 866.159,1384.24 867.685,1384.24 869.212,1384.24 870.738,1384.24 872.264,1384.24 
  873.791,1384.24 875.317,1384.24 876.843,1384.24 878.369,1384.24 879.896,1384.24 881.422,1384.24 882.948,1384.24 884.475,1384.24 886.001,1384.24 887.527,1384.24 
  889.053,1384.24 890.58,1384.24 892.106,1384.24 893.632,1384.24 895.158,1384.24 896.685,1384.24 898.211,1384.24 899.737,1384.24 901.264,1384.24 902.79,1384.24 
  904.316,1384.24 905.842,1384.24 907.369,1384.24 908.895,1384.24 910.421,1384.24 911.948,1384.24 913.474,1384.24 915,1384.24 916.526,1384.24 918.053,1384.24 
  919.579,1384.24 921.105,1384.24 922.632,1384.24 924.158,1384.24 925.684,1384.24 927.21,1384.24 928.737,1384.24 930.263,1384.24 931.789,1384.24 933.315,1384.24 
  934.842,1384.1 936.368,1384.04 937.894,1383.96 939.421,1383.84 940.947,1383.64 942.473,1383.32 943.999,1382.83 945.526,1381.96 947.052,1380.39 948.578,1377.6 
  950.105,1372.61 951.631,1366.03 953.157,1354.75 954.683,1336.49 956.21,1308.55 957.736,1268.17 959.262,1213.54 960.789,1144.08 962.315,1061.49 963.841,968.925 
  965.367,872.111 966.894,776.121 968.42,686.64 969.946,609.419 971.472,545.878 972.999,497.389 974.525,461.482 976.051,438.387 977.578,424.938 979.104,425.921 
  980.63,438.662 982.156,461.831 983.683,483.455 985.209,497.113 986.735,503.211 988.262,503.673 989.788,501.685 991.314,496.924 992.84,492.157 994.367,488.473 
  995.893,484.369 997.419,481.471 998.946,479.731 1000.47,478.447 1002,477.514 1003.52,476.685 1005.05,475.016 1006.58,473.713 1008.1,471.166 1009.63,469.691 
  1011.16,466.73 1012.68,464.621 1014.21,461.984 1015.73,459.9 1017.26,456.798 1018.79,453.708 1020.31,450.455 1021.84,447.566 1023.37,445.397 1024.89,443.645 
  1026.42,442.036 1027.94,439.505 1029.47,438.741 1031,436.093 1032.52,435.235 1034.05,434.767 1035.58,434.873 1037.1,434.575 1038.63,434.096 1040.16,433.8 
  1041.68,434.359 1043.21,435.072 1044.73,436.097 1046.26,436.74 1047.79,437.212 1049.31,437.24 1050.84,437.181 1052.37,436.993 1053.89,436.599 1055.42,435.232 
  1056.94,435.198 1058.47,433.941 1060,431.943 1061.52,433.083 1063.05,431.374 1064.58,431.208 1066.1,430.013 1067.63,429.286 1069.15,428.682 1070.68,427.23 
  1072.21,426.806 1073.73,426.322 1075.26,427.856 1076.79,427.909 1078.31,426.711 1079.84,426.589 1081.36,426.499 1082.89,427.609 1084.42,428.781 1085.94,429.633 
  1087.47,429.921 1089,430.523 1090.52,431.409 1092.05,432.43 1093.57,432.944 1095.1,434.362 1096.63,434.573 1098.15,434.582 1099.68,435.42 1101.21,435.522 
  1102.73,433.759 1104.26,434.751 1105.79,434.402 1107.31,434.103 1108.84,431.629 1110.36,431.318 1111.89,428.23 1113.42,427.343 1114.94,426.8 1116.47,425.152 
  1118,424.256 1119.52,421.879 1121.05,421.092 1122.57,419.754 1124.1,418.971 1125.63,418.549 1127.15,419.271 1128.68,419.604 1130.21,418.892 1131.73,418.6 
  1133.26,419.218 1134.78,420.454 1136.31,421.478 1137.84,421.861 1139.36,423.232 1140.89,423.435 1142.42,424.937 1143.94,425.527 1145.47,424.753 1146.99,425.123 
  1148.52,425.775 1150.05,425.296 1151.57,424.6 1153.1,425.494 1154.63,425.253 1156.15,423.584 1157.68,423.562 1159.2,423.233 1160.73,423.502 1162.26,423.275 
  1163.78,424.729 1165.31,424.848 1166.84,424.432 1168.36,425.059 1169.89,425.345 1171.42,426.501 1172.94,428.042 1174.47,430.762 1175.99,431.191 1177.52,434.547 
  1179.05,436.672 1180.57,437.831 1182.1,440.058 1183.63,442.149 1185.15,442.971 1186.68,445.177 1188.2,447.239 1189.73,450.599 1191.26,451.808 1192.78,452.701 
  1194.31,456.345 1195.84,458.369 1197.36,458.491 1198.89,460.063 1200.41,463.133 1201.94,465.08 1203.47,466.156 1204.99,467.457 1206.52,468.098 1208.05,468.692 
  1209.57,469.706 1211.1,470.388 1212.62,470.029 1214.15,470.273 1215.68,470.764 1217.2,471.831 1218.73,471.425 1220.26,471.424 1221.78,470.362 1223.31,470.813 
  1224.83,470.717 1226.36,471.064 1227.89,470.353 1229.41,469.618 1230.94,469.942 1232.47,470.696 1233.99,471.931 1235.52,471.638 1237.05,473.001 1238.57,472.799 
  1240.1,474.009 1241.62,474.34 1243.15,475.967 1244.68,475.184 1246.2,475.498 1247.73,477.771 1249.26,480.27 1250.78,482.181 1252.31,483.108 1253.83,484.928 
  1255.36,487.979 1256.89,489.395 1258.41,490.86 1259.94,492.702 1261.47,494.062 1262.99,497.645 1264.52,499.328 1266.04,501.755 1267.57,504.019 1269.1,506.482 
  1270.62,508.029 1272.15,509.727 1273.68,512.729 1275.2,514.586 1276.73,515.977 1278.25,518.589 1279.78,520.566 1281.31,526.221 1282.83,528.448 1284.36,530.842 
  1285.89,533.695 1287.41,536.767 1288.94,540.62 1290.47,542.863 1291.99,543.402 1293.52,548.617 1295.04,552.411 1296.57,556.728 1298.1,560.767 1299.62,563.025 
  1301.15,569.24 1302.68,571.119 1304.2,574.763 1305.73,580.028 1307.25,582.212 1308.78,586.948 1310.31,589.876 1311.83,593.349 1313.36,599.346 1314.89,603.538 
  1316.41,607.371 1317.94,612.352 1319.46,614.757 1320.99,619.325 1322.52,623.597 1324.04,629.102 1325.57,632.19 1327.1,637.156 1328.62,645.01 1330.15,647.213 
  1331.67,648.983 1333.2,654.831 1334.73,659.122 1336.25,659.465 1337.78,665.584 1339.31,669.564 1340.83,673.475 1342.36,679.314 1343.88,681.574 1345.41,689.062 
  1346.94,693.602 1348.46,695.758 1349.99,701.532 1351.52,704.02 1353.04,709.472 1354.57,714.846 1356.1,716.784 1357.62,722.761 1359.15,725.436 1360.67,728.897 
  1362.2,735.419 1363.73,738.477 1365.25,744.105 1366.78,750.325 1368.31,752.369 1369.83,758.948 1371.36,763.658 1372.88,766.252 1374.41,772.402 1375.94,778.477 
  1377.46,783.002 1378.99,788.355 1380.52,793.966 1382.04,798.691 1383.57,803.248 1385.09,808.792 1386.62,812.473 1388.15,818.972 1389.67,825.187 1391.2,827.803 
  1392.73,834.312 1394.25,840.463 1395.78,844.39 1397.3,851.85 1398.83,855.758 1400.36,859.568 1401.88,867.557 1403.41,870.287 1404.94,875.524 1406.46,884.005 
  1407.99,886.136 1409.51,892.127 1411.04,900.122 1412.57,902.544 1414.09,909.212 1415.62,915.483 1417.15,918.673 1418.67,925.921 1420.2,931.677 1421.73,935.131 
  1423.25,941.657 1424.78,947.212 1426.3,951.358 1427.83,957.367 1429.36,962.799 1430.88,968.715 1432.41,974.089 1433.94,979.517 1435.46,985.996 1436.99,990.061 
  1438.51,995.864 1440.04,1002.57 1441.57,1005.85 1443.09,1012.67 1444.62,1020.2 1446.15,1022.84 1447.67,1028.93 1449.2,1036.37 1450.72,1038.99 1452.25,1044.89 
  1453.78,1052.53 1455.3,1056.4 1456.83,1061.01 1458.36,1067.51 1459.88,1071.21 1461.41,1076.33 1462.93,1083.42 1464.46,1087.86 1465.99,1092.99 1467.51,1098.36 
  1469.04,1103.16 1470.57,1108.82 1472.09,1113.23 1473.62,1117.77 1475.14,1123.93 1476.67,1127.57 1478.2,1131.86 1479.72,1138.32 1481.25,1141.69 1482.78,1145.63 
  1484.3,1152.16 1485.83,1155.72 1487.36,1159.12 1488.88,1165.73 1490.41,1169.59 1491.93,1172.04 1493.46,1178.31 1494.99,1182.95 1496.51,1184.93 1498.04,1190.15 
  1499.57,1195.51 1501.09,1197.79 1502.62,1201.84 1504.14,1207.76 1505.67,1210.69 1507.2,1213.08 1508.72,1218.98 1510.25,1223 1511.78,1225.76 1513.3,1230.78 
  1514.83,1235.92 1516.35,1239.26 1517.88,1243.1 1519.41,1248.67 1520.93,1252.5 1522.46,1256.08 1523.99,1261.61 1525.51,1265.83 1527.04,1269.49 1528.56,1274.22 
  1530.09,1278.43 1531.62,1282.12 1533.14,1286.68 1534.67,1290.71 1536.2,1294.19 1537.72,1298.41 1539.25,1302.63 1540.77,1305.71 1542.3,1309.3 1543.83,1313.65 
  1545.35,1316.53 1546.88,1319.49 1548.41,1323.55 1549.93,1326.61 1551.46,1329.02 1552.99,1332.26 1554.51,1335.47 1556.04,1337.45 1557.56,1339.88 1559.09,1342.94 
  1560.62,1345.08 1562.14,1346.77 1563.67,1349.25 1565.2,1351.44 1566.72,1352.93 1568.25,1354.57 1569.77,1356.72 1571.3,1358.22 1572.83,1359.48 1574.35,1361.17 
  1575.88,1362.7 1577.41,1363.79 1578.93,1364.96 1580.46,1366.43 1581.98,1367.48 1583.51,1368.37 1585.04,1369.48 1586.56,1370.52 1588.09,1371.27 1589.62,1372.07 
  1591.14,1373.05 1592.67,1373.76 1594.19,1374.37 1595.72,1375.09 1597.25,1375.8 1598.77,1376.3 1600.3,1376.81 1601.83,1377.46 1603.35,1377.93 1604.88,1378.31 
  1606.4,1378.75 1607.93,1379.24 1609.46,1379.57 1610.98,1379.87 1612.51,1380.25 1614.04,1380.59 1615.56,1380.81 1617.09,1381.05 1618.62,1381.37 1620.14,1381.6 
  1621.67,1381.77 1623.19,1381.96 1624.72,1382.2 1626.25,1382.35 1627.77,1382.48 1629.3,1382.64 1630.83,1382.8 1632.35,1382.91 1633.88,1383 1635.4,1383.13 
  1636.93,1383.24 1638.46,1383.31 1639.98,1383.38 1641.51,1383.48 1643.04,1383.55 1644.56,1383.6 1646.09,1383.65 1647.61,1383.72 1649.14,1383.77 1650.67,1383.81 
  1652.19,1383.85 1653.72,1384.24 1655.25,1384.24 1656.77,1384.24 1658.3,1384.24 1659.82,1384.24 1661.35,1384.24 1662.88,1384.24 1664.4,1384.24 1665.93,1384.24 
  1667.46,1384.24 1668.98,1384.24 1670.51,1384.24 1672.04,1384.24 1673.56,1384.24 1675.09,1384.24 1676.61,1384.24 1678.14,1384.24 1679.67,1384.24 1681.19,1384.24 
  1682.72,1384.24 
  "/>
<polyline clip-path="url(#clip653)" style="stroke:#c271d2; stroke-linecap:round; stroke-linejoin:round; stroke-width:4; stroke-opacity:1; fill:none" points="
  309.067,1313.05 329.109,1272.6 349.151,1221.02 369.193,1158.97 389.235,1087.83 409.277,1009.5 429.319,926.186 449.361,840.155 469.403,753.591 489.446,668.473 
  509.488,586.499 529.53,509.056 549.572,437.209 569.614,371.724 589.656,313.092 609.698,261.566 629.74,217.203 649.782,179.897 669.824,149.417 689.866,125.438 
  709.908,107.57 729.95,95.3791 749.992,88.4067 770.034,86.1857 790.076,88.2513 810.118,94.1507 830.161,103.449 850.203,115.735 870.245,130.622 890.287,147.752 
  910.329,166.795 930.371,187.447 950.413,209.436 970.455,232.511 990.497,256.451 1010.54,281.056 1030.58,306.147 1050.62,331.569 1070.67,357.181 1090.71,382.864 
  1110.75,408.511 1130.79,434.029 1150.83,459.341 1170.88,484.379 1190.92,509.084 1210.96,533.41 1231,557.315 1251.04,580.767 1271.09,603.739 1291.13,626.21 
  1311.17,648.165 1331.21,669.591 1351.25,690.481 1371.3,710.83 1391.34,730.637 1411.38,749.902 1431.42,768.628 1451.46,786.82 1471.51,804.484 1491.55,821.628 
  1511.59,838.259 1531.63,854.388 1551.67,870.024 1571.72,885.179 1591.76,899.863 1611.8,914.088 1631.84,927.866 1651.89,941.208 1671.93,954.127 1691.97,966.634 
  1712.01,978.741 1732.05,990.461 1752.1,1001.8 1772.14,1012.78 1792.18,1023.41 1812.22,1033.69 1832.26,1043.64 1852.31,1053.28 1872.35,1062.6 1892.39,1071.62 
  1912.43,1080.35 1932.47,1088.81 1952.52,1096.99 1972.56,1104.91 1992.6,1112.58 2012.64,1120 2032.68,1127.19 2052.73,1134.15 2072.77,1140.89 2092.81,1147.42 
  2112.85,1153.74 2132.89,1159.86 2152.94,1165.8 2172.98,1171.54 2193.02,1177.11 2213.06,1182.51 2233.1,1187.74 2253.15,1192.81 2273.19,1197.73 2293.23,1202.49 
  
  "/>
<path clip-path="url(#clip650)" d="
M1812.34 352.309 L2282.65 352.309 L2282.65 93.1086 L1812.34 93.1086  Z
  " fill="#ffffff" fill-rule="evenodd" fill-opacity="1"/>
<polyline clip-path="url(#clip650)" style="stroke:#000000; stroke-linecap:round; stroke-linejoin:round; stroke-width:4; stroke-opacity:1; fill:none" points="
  1812.34,352.309 2282.65,352.309 2282.65,93.1086 1812.34,93.1086 1812.34,352.309 
  "/>
<polyline clip-path="url(#clip650)" style="stroke:#009af9; stroke-linecap:round; stroke-linejoin:round; stroke-width:4; stroke-opacity:1; fill:none" points="
  1835.71,144.949 1975.92,144.949 
  "/>
<path clip-path="url(#clip650)" d="M2024.85 157.298 L2024.85 148.016 L2017.21 148.016 L2017.21 144.173 L2029.48 144.173 L2029.48 159.011 Q2026.77 160.932 2023.5 161.928 Q2020.24 162.9 2016.54 162.9 Q2008.44 162.9 2003.85 158.178 Q1999.29 153.432 1999.29 144.983 Q1999.29 136.511 2003.85 131.789 Q2008.44 127.044 2016.54 127.044 Q2019.92 127.044 2022.95 127.877 Q2026 128.71 2028.57 130.331 L2028.57 135.307 Q2025.98 133.108 2023.06 131.997 Q2020.15 130.886 2016.93 130.886 Q2010.59 130.886 2007.39 134.428 Q2004.22 137.969 2004.22 144.983 Q2004.22 151.974 2007.39 155.516 Q2010.59 159.057 2016.93 159.057 Q2019.41 159.057 2021.35 158.641 Q2023.3 158.201 2024.85 157.298 Z" fill="#000000" fill-rule="evenodd" fill-opacity="1" /><polyline clip-path="url(#clip650)" style="stroke:#e26f46; stroke-linecap:round; stroke-linejoin:round; stroke-width:4; stroke-opacity:1; fill:none" points="
  1835.71,196.789 1975.92,196.789 
  "/>
<path clip-path="url(#clip650)" d="M2003.97 197.564 L2003.97 210.226 L2011.47 210.226 Q2015.24 210.226 2017.05 208.675 Q2018.87 207.101 2018.87 203.883 Q2018.87 200.643 2017.05 199.115 Q2015.24 197.564 2011.47 197.564 L2003.97 197.564 M2003.97 183.351 L2003.97 193.768 L2010.89 193.768 Q2014.31 193.768 2015.98 192.495 Q2017.67 191.198 2017.67 188.559 Q2017.67 185.944 2015.98 184.647 Q2014.31 183.351 2010.89 183.351 L2003.97 183.351 M1999.29 179.509 L2011.24 179.509 Q2016.58 179.509 2019.48 181.731 Q2022.37 183.953 2022.37 188.05 Q2022.37 191.222 2020.89 193.097 Q2019.41 194.971 2016.54 195.434 Q2019.99 196.175 2021.88 198.536 Q2023.81 200.874 2023.81 204.393 Q2023.81 209.022 2020.66 211.545 Q2017.51 214.069 2011.7 214.069 L1999.29 214.069 L1999.29 179.509 Z" fill="#000000" fill-rule="evenodd" fill-opacity="1" /><path clip-path="url(#clip650)" d="M2036.49 183.351 L2036.49 196.337 L2042.37 196.337 Q2045.63 196.337 2047.42 194.647 Q2049.2 192.958 2049.2 189.833 Q2049.2 186.731 2047.42 185.041 Q2045.63 183.351 2042.37 183.351 L2036.49 183.351 M2031.81 179.509 L2042.37 179.509 Q2048.18 179.509 2051.14 182.147 Q2054.13 184.763 2054.13 189.833 Q2054.13 194.948 2051.14 197.564 Q2048.18 200.18 2042.37 200.18 L2036.49 200.18 L2036.49 214.069 L2031.81 214.069 L2031.81 179.509 Z" fill="#000000" fill-rule="evenodd" fill-opacity="1" /><polyline clip-path="url(#clip650)" style="stroke:#3da44d; stroke-linecap:round; stroke-linejoin:round; stroke-width:4; stroke-opacity:1; fill:none" points="
  1835.71,248.629 1975.92,248.629 
  "/>
<path clip-path="url(#clip650)" d="M2015.68 249.705 Q2017.19 250.214 2018.6 251.881 Q2020.03 253.548 2021.47 256.464 L2026.21 265.909 L2021.19 265.909 L2016.77 257.043 Q2015.06 253.571 2013.44 252.436 Q2011.84 251.302 2009.06 251.302 L2003.97 251.302 L2003.97 265.909 L1999.29 265.909 L1999.29 231.349 L2009.85 231.349 Q2015.77 231.349 2018.69 233.825 Q2021.61 236.302 2021.61 241.302 Q2021.61 244.566 2020.08 246.719 Q2018.57 248.872 2015.68 249.705 M2003.97 235.191 L2003.97 247.46 L2009.85 247.46 Q2013.23 247.46 2014.94 245.909 Q2016.68 244.335 2016.68 241.302 Q2016.68 238.27 2014.94 236.742 Q2013.23 235.191 2009.85 235.191 L2003.97 235.191 Z" fill="#000000" fill-rule="evenodd" fill-opacity="1" /><path clip-path="url(#clip650)" d="M2036.91 235.191 L2036.91 248.177 L2042.79 248.177 Q2046.05 248.177 2047.83 246.487 Q2049.62 244.798 2049.62 241.673 Q2049.62 238.571 2047.83 236.881 Q2046.05 235.191 2042.79 235.191 L2036.91 235.191 M2032.23 231.349 L2042.79 231.349 Q2048.6 231.349 2051.56 233.987 Q2054.55 236.603 2054.55 241.673 Q2054.55 246.788 2051.56 249.404 Q2048.6 252.02 2042.79 252.02 L2036.91 252.02 L2036.91 265.909 L2032.23 265.909 L2032.23 231.349 Z" fill="#000000" fill-rule="evenodd" fill-opacity="1" /><polyline clip-path="url(#clip650)" style="stroke:#c271d2; stroke-linecap:round; stroke-linejoin:round; stroke-width:4; stroke-opacity:1; fill:none" points="
  1835.71,300.469 1975.92,300.469 
  "/>
<path clip-path="url(#clip650)" d="M1999.29 283.189 L2028.53 283.189 L2028.53 287.124 L2016.26 287.124 L2016.26 317.749 L2011.56 317.749 L2011.56 287.124 L1999.29 287.124 L1999.29 283.189 Z" fill="#000000" fill-rule="evenodd" fill-opacity="1" /><path clip-path="url(#clip650)" d="M2033.41 296.221 L2063.09 296.221 L2063.09 300.11 L2033.41 300.11 L2033.41 296.221 M2033.41 305.665 L2063.09 305.665 L2063.09 309.601 L2033.41 309.601 L2033.41 305.665 Z" fill="#000000" fill-rule="evenodd" fill-opacity="1" /><path clip-path="url(#clip650)" d="M2073.23 283.189 L2091.58 283.189 L2091.58 287.124 L2077.51 287.124 L2077.51 295.596 Q2078.53 295.249 2079.55 295.087 Q2080.56 294.902 2081.58 294.902 Q2087.37 294.902 2090.75 298.073 Q2094.13 301.244 2094.13 306.661 Q2094.13 312.239 2090.66 315.341 Q2087.18 318.42 2080.87 318.42 Q2078.69 318.42 2076.42 318.05 Q2074.18 317.679 2071.77 316.938 L2071.77 312.239 Q2073.85 313.374 2076.07 313.929 Q2078.3 314.485 2080.77 314.485 Q2084.78 314.485 2087.12 312.378 Q2089.45 310.272 2089.45 306.661 Q2089.45 303.05 2087.12 300.943 Q2084.78 298.837 2080.77 298.837 Q2078.9 298.837 2077.02 299.253 Q2075.17 299.67 2073.23 300.55 L2073.23 283.189 Z" fill="#000000" fill-rule="evenodd" fill-opacity="1" /><path clip-path="url(#clip650)" d="M2102.16 283.189 L2124.38 283.189 L2124.38 285.179 L2111.84 317.749 L2106.95 317.749 L2118.76 287.124 L2102.16 287.124 L2102.16 283.189 Z" fill="#000000" fill-rule="evenodd" fill-opacity="1" /><path clip-path="url(#clip650)" d="M2132.32 283.189 L2154.55 283.189 L2154.55 285.179 L2142 317.749 L2137.11 317.749 L2148.92 287.124 L2132.32 287.124 L2132.32 283.189 Z" fill="#000000" fill-rule="evenodd" fill-opacity="1" /><path clip-path="url(#clip650)" d="M2167.69 313.813 L2184.01 313.813 L2184.01 317.749 L2162.07 317.749 L2162.07 313.813 Q2164.73 311.059 2169.31 306.429 Q2173.92 301.776 2175.1 300.434 Q2177.35 297.911 2178.23 296.175 Q2179.13 294.415 2179.13 292.726 Q2179.13 289.971 2177.18 288.235 Q2175.26 286.499 2172.16 286.499 Q2169.96 286.499 2167.51 287.263 Q2165.08 288.027 2162.3 289.577 L2162.3 284.855 Q2165.12 283.721 2167.58 283.142 Q2170.03 282.564 2172.07 282.564 Q2177.44 282.564 2180.63 285.249 Q2183.83 287.934 2183.83 292.425 Q2183.83 294.554 2183.02 296.476 Q2182.23 298.374 2180.12 300.966 Q2179.55 301.638 2176.44 304.855 Q2173.34 308.05 2167.69 313.813 Z" fill="#000000" fill-rule="evenodd" fill-opacity="1" /><path clip-path="url(#clip650)" d="M2208.48 283.189 L2213.16 283.189 L2213.16 297.795 L2228.67 283.189 L2234.68 283.189 L2217.53 299.3 L2235.91 317.749 L2229.75 317.749 L2213.16 301.105 L2213.16 317.749 L2208.48 317.749 L2208.48 283.189 Z" fill="#000000" fill-rule="evenodd" fill-opacity="1" /></svg>
