<?xml version="1.0" encoding="utf-8"?>
<svg xmlns="http://www.w3.org/2000/svg" xmlns:xlink="http://www.w3.org/1999/xlink" width="600" height="400" viewBox="0 0 2400 1600">
<defs>
  <clipPath id="clip090">
    <rect x="0" y="0" width="2400" height="1600"/>
  </clipPath>
</defs>
<path clip-path="url(#clip090)" d="
M0 1600 L2400 1600 L2400 0 L0 0  Z
  " fill="#ffffff" fill-rule="evenodd" fill-opacity="1"/>
<defs>
  <clipPath id="clip091">
    <rect x="480" y="0" width="1681" height="1600"/>
  </clipPath>
</defs>
<path clip-path="url(#clip090)" d="
M257.204 1423.18 L2352.76 1423.18 L2352.76 47.2441 L257.204 47.2441  Z
  " fill="#ffffff" fill-rule="evenodd" fill-opacity="1"/>
<defs>
  <clipPath id="clip092">
    <rect x="257" y="47" width="2097" height="1377"/>
  </clipPath>
</defs>
<polyline clip-path="url(#clip092)" style="stroke:#000000; stroke-linecap:round; stroke-linejoin:round; stroke-width:2; stroke-opacity:0.1; fill:none" points="
  514.206,1423.18 514.206,47.2441 
  "/>
<polyline clip-path="url(#clip092)" style="stroke:#000000; stroke-linecap:round; stroke-linejoin:round; stroke-width:2; stroke-opacity:0.1; fill:none" points="
  909.593,1423.18 909.593,47.2441 
  "/>
<polyline clip-path="url(#clip092)" style="stroke:#000000; stroke-linecap:round; stroke-linejoin:round; stroke-width:2; stroke-opacity:0.1; fill:none" points="
  1304.98,1423.18 1304.98,47.2441 
  "/>
<polyline clip-path="url(#clip092)" style="stroke:#000000; stroke-linecap:round; stroke-linejoin:round; stroke-width:2; stroke-opacity:0.1; fill:none" points="
  1700.37,1423.18 1700.37,47.2441 
  "/>
<polyline clip-path="url(#clip092)" style="stroke:#000000; stroke-linecap:round; stroke-linejoin:round; stroke-width:2; stroke-opacity:0.1; fill:none" points="
  2095.75,1423.18 2095.75,47.2441 
  "/>
<polyline clip-path="url(#clip090)" style="stroke:#000000; stroke-linecap:round; stroke-linejoin:round; stroke-width:4; stroke-opacity:1; fill:none" points="
  257.204,1423.18 2352.76,1423.18 
  "/>
<polyline clip-path="url(#clip090)" style="stroke:#000000; stroke-linecap:round; stroke-linejoin:round; stroke-width:4; stroke-opacity:1; fill:none" points="
  514.206,1423.18 514.206,1404.28 
  "/>
<polyline clip-path="url(#clip090)" style="stroke:#000000; stroke-linecap:round; stroke-linejoin:round; stroke-width:4; stroke-opacity:1; fill:none" points="
  909.593,1423.18 909.593,1404.28 
  "/>
<polyline clip-path="url(#clip090)" style="stroke:#000000; stroke-linecap:round; stroke-linejoin:round; stroke-width:4; stroke-opacity:1; fill:none" points="
  1304.98,1423.18 1304.98,1404.28 
  "/>
<polyline clip-path="url(#clip090)" style="stroke:#000000; stroke-linecap:round; stroke-linejoin:round; stroke-width:4; stroke-opacity:1; fill:none" points="
  1700.37,1423.18 1700.37,1404.28 
  "/>
<polyline clip-path="url(#clip090)" style="stroke:#000000; stroke-linecap:round; stroke-linejoin:round; stroke-width:4; stroke-opacity:1; fill:none" points="
  2095.75,1423.18 2095.75,1404.28 
  "/>
<path clip-path="url(#clip090)" d="M483.106 1468.75 L512.782 1468.75 L512.782 1472.69 L483.106 1472.69 L483.106 1468.75 Z" fill="#000000" fill-rule="evenodd" fill-opacity="1" /><path clip-path="url(#clip090)" d="M535.722 1455.09 L523.916 1473.54 L535.722 1473.54 L535.722 1455.09 M534.495 1451.02 L540.375 1451.02 L540.375 1473.54 L545.305 1473.54 L545.305 1477.43 L540.375 1477.43 L540.375 1485.58 L535.722 1485.58 L535.722 1477.43 L520.12 1477.43 L520.12 1472.92 L534.495 1451.02 Z" fill="#000000" fill-rule="evenodd" fill-opacity="1" /><path clip-path="url(#clip090)" d="M879.535 1468.75 L909.211 1468.75 L909.211 1472.69 L879.535 1472.69 L879.535 1468.75 Z" fill="#000000" fill-rule="evenodd" fill-opacity="1" /><path clip-path="url(#clip090)" d="M923.331 1481.64 L939.651 1481.64 L939.651 1485.58 L917.706 1485.58 L917.706 1481.64 Q920.368 1478.89 924.952 1474.26 Q929.558 1469.61 930.739 1468.27 Q932.984 1465.74 933.864 1464.01 Q934.766 1462.25 934.766 1460.56 Q934.766 1457.8 932.822 1456.07 Q930.901 1454.33 927.799 1454.33 Q925.6 1454.33 923.146 1455.09 Q920.715 1455.86 917.938 1457.41 L917.938 1452.69 Q920.762 1451.55 923.215 1450.97 Q925.669 1450.39 927.706 1450.39 Q933.076 1450.39 936.271 1453.08 Q939.465 1455.77 939.465 1460.26 Q939.465 1462.39 938.655 1464.31 Q937.868 1466.2 935.762 1468.8 Q935.183 1469.47 932.081 1472.69 Q928.979 1475.88 923.331 1481.64 Z" fill="#000000" fill-rule="evenodd" fill-opacity="1" /><path clip-path="url(#clip090)" d="M1304.98 1454.1 Q1301.37 1454.1 1299.54 1457.66 Q1297.73 1461.2 1297.73 1468.33 Q1297.73 1475.44 1299.54 1479.01 Q1301.37 1482.55 1304.98 1482.55 Q1308.61 1482.55 1310.42 1479.01 Q1312.25 1475.44 1312.25 1468.33 Q1312.25 1461.2 1310.42 1457.66 Q1308.61 1454.1 1304.98 1454.1 M1304.98 1450.39 Q1310.79 1450.39 1313.85 1455 Q1316.92 1459.58 1316.92 1468.33 Q1316.92 1477.06 1313.85 1481.67 Q1310.79 1486.25 1304.98 1486.25 Q1299.17 1486.25 1296.09 1481.67 Q1293.04 1477.06 1293.04 1468.33 Q1293.04 1459.58 1296.09 1455 Q1299.17 1450.39 1304.98 1450.39 Z" fill="#000000" fill-rule="evenodd" fill-opacity="1" /><path clip-path="url(#clip090)" d="M1695.02 1481.64 L1711.34 1481.64 L1711.34 1485.58 L1689.39 1485.58 L1689.39 1481.64 Q1692.06 1478.89 1696.64 1474.26 Q1701.25 1469.61 1702.43 1468.27 Q1704.67 1465.74 1705.55 1464.01 Q1706.46 1462.25 1706.46 1460.56 Q1706.46 1457.8 1704.51 1456.07 Q1702.59 1454.33 1699.49 1454.33 Q1697.29 1454.33 1694.83 1455.09 Q1692.4 1455.86 1689.63 1457.41 L1689.63 1452.69 Q1692.45 1451.55 1694.9 1450.97 Q1697.36 1450.39 1699.39 1450.39 Q1704.77 1450.39 1707.96 1453.08 Q1711.15 1455.77 1711.15 1460.26 Q1711.15 1462.39 1710.34 1464.31 Q1709.56 1466.2 1707.45 1468.8 Q1706.87 1469.47 1703.77 1472.69 Q1700.67 1475.88 1695.02 1481.64 Z" fill="#000000" fill-rule="evenodd" fill-opacity="1" /><path clip-path="url(#clip090)" d="M2098.76 1455.09 L2086.96 1473.54 L2098.76 1473.54 L2098.76 1455.09 M2097.54 1451.02 L2103.42 1451.02 L2103.42 1473.54 L2108.35 1473.54 L2108.35 1477.43 L2103.42 1477.43 L2103.42 1485.58 L2098.76 1485.58 L2098.76 1477.43 L2083.16 1477.43 L2083.16 1472.92 L2097.54 1451.02 Z" fill="#000000" fill-rule="evenodd" fill-opacity="1" /><path clip-path="url(#clip090)" d="M1319.15 1528.8 Q1319.15 1530.61 1318.03 1531.64 Q1316.9 1532.64 1315.61 1532.64 Q1314.39 1532.64 1313.74 1531.93 Q1313.1 1531.22 1313.1 1530.32 Q1313.1 1529.09 1314 1528.03 Q1314.9 1526.97 1316.25 1526.74 Q1314.93 1525.91 1312.97 1525.91 Q1311.68 1525.91 1310.55 1526.58 Q1309.46 1527.26 1308.78 1528.13 Q1308.14 1529 1307.56 1530.25 Q1307.01 1531.48 1306.79 1532.22 Q1306.59 1532.93 1306.43 1533.7 L1304.18 1542.72 Q1303.08 1547 1303.08 1548.51 Q1303.08 1550.38 1303.98 1551.64 Q1304.89 1552.86 1306.69 1552.86 Q1307.4 1552.86 1308.2 1552.67 Q1309.01 1552.44 1310.04 1551.86 Q1311.1 1551.25 1312.04 1550.35 Q1313 1549.42 1313.94 1547.84 Q1314.87 1546.26 1315.48 1544.23 Q1315.68 1543.52 1316.32 1543.52 Q1317.12 1543.52 1317.12 1544.17 Q1317.12 1544.71 1316.67 1545.87 Q1316.25 1547 1315.32 1548.48 Q1314.42 1549.93 1313.23 1551.25 Q1312.04 1552.54 1310.26 1553.44 Q1308.49 1554.34 1306.56 1554.34 Q1303.79 1554.34 1301.96 1552.86 Q1300.12 1551.38 1299.44 1549.32 Q1299.28 1549.61 1299.06 1550 Q1298.83 1550.38 1298.16 1551.25 Q1297.51 1552.09 1296.77 1552.73 Q1296.03 1553.34 1294.87 1553.83 Q1293.74 1554.34 1292.52 1554.34 Q1290.97 1554.34 1289.59 1553.89 Q1288.24 1553.44 1287.27 1552.41 Q1286.3 1551.38 1286.3 1549.96 Q1286.3 1548.38 1287.37 1547.29 Q1288.46 1546.16 1289.94 1546.16 Q1290.88 1546.16 1291.62 1546.71 Q1292.39 1547.26 1292.39 1548.45 Q1292.39 1549.77 1291.49 1550.77 Q1290.59 1551.77 1289.3 1552.02 Q1290.62 1552.86 1292.58 1552.86 Q1294.71 1552.86 1296.38 1550.99 Q1298.06 1549.13 1298.86 1546 Q1300.86 1538.5 1301.63 1535.15 Q1302.41 1531.77 1302.41 1530.32 Q1302.41 1528.96 1302.05 1528.03 Q1301.7 1527.1 1301.09 1526.68 Q1300.51 1526.23 1299.96 1526.07 Q1299.44 1525.91 1298.86 1525.91 Q1297.9 1525.91 1296.8 1526.29 Q1295.74 1526.68 1294.45 1527.58 Q1293.2 1528.45 1292 1530.25 Q1290.81 1532.06 1290.01 1534.54 Q1289.85 1535.28 1289.14 1535.28 Q1288.36 1535.24 1288.36 1534.6 Q1288.36 1534.05 1288.78 1532.93 Q1289.23 1531.77 1290.14 1530.32 Q1291.07 1528.87 1292.26 1527.58 Q1293.49 1526.26 1295.26 1525.36 Q1297.06 1524.46 1298.99 1524.46 Q1299.86 1524.46 1300.7 1524.65 Q1301.57 1524.81 1302.6 1525.29 Q1303.66 1525.78 1304.6 1526.84 Q1305.53 1527.9 1306.11 1529.45 Q1306.5 1528.71 1307.01 1528 Q1307.56 1527.29 1308.4 1526.42 Q1309.27 1525.52 1310.46 1525 Q1311.68 1524.46 1313.03 1524.46 Q1314.35 1524.46 1315.64 1524.81 Q1316.93 1525.13 1318.03 1526.19 Q1319.15 1527.23 1319.15 1528.8 Z" fill="#000000" fill-rule="evenodd" fill-opacity="1" /><polyline clip-path="url(#clip092)" style="stroke:#000000; stroke-linecap:round; stroke-linejoin:round; stroke-width:2; stroke-opacity:0.1; fill:none" points="
  257.204,1390.77 2352.76,1390.77 
  "/>
<polyline clip-path="url(#clip092)" style="stroke:#000000; stroke-linecap:round; stroke-linejoin:round; stroke-width:2; stroke-opacity:0.1; fill:none" points="
  257.204,1064.62 2352.76,1064.62 
  "/>
<polyline clip-path="url(#clip092)" style="stroke:#000000; stroke-linecap:round; stroke-linejoin:round; stroke-width:2; stroke-opacity:0.1; fill:none" points="
  257.204,738.476 2352.76,738.476 
  "/>
<polyline clip-path="url(#clip092)" style="stroke:#000000; stroke-linecap:round; stroke-linejoin:round; stroke-width:2; stroke-opacity:0.1; fill:none" points="
  257.204,412.331 2352.76,412.331 
  "/>
<polyline clip-path="url(#clip092)" style="stroke:#000000; stroke-linecap:round; stroke-linejoin:round; stroke-width:2; stroke-opacity:0.1; fill:none" points="
  257.204,86.1857 2352.76,86.1857 
  "/>
<polyline clip-path="url(#clip090)" style="stroke:#000000; stroke-linecap:round; stroke-linejoin:round; stroke-width:4; stroke-opacity:1; fill:none" points="
  257.204,1423.18 257.204,47.2441 
  "/>
<polyline clip-path="url(#clip090)" style="stroke:#000000; stroke-linecap:round; stroke-linejoin:round; stroke-width:4; stroke-opacity:1; fill:none" points="
  257.204,1390.77 276.102,1390.77 
  "/>
<polyline clip-path="url(#clip090)" style="stroke:#000000; stroke-linecap:round; stroke-linejoin:round; stroke-width:4; stroke-opacity:1; fill:none" points="
  257.204,1064.62 276.102,1064.62 
  "/>
<polyline clip-path="url(#clip090)" style="stroke:#000000; stroke-linecap:round; stroke-linejoin:round; stroke-width:4; stroke-opacity:1; fill:none" points="
  257.204,738.476 276.102,738.476 
  "/>
<polyline clip-path="url(#clip090)" style="stroke:#000000; stroke-linecap:round; stroke-linejoin:round; stroke-width:4; stroke-opacity:1; fill:none" points="
  257.204,412.331 276.102,412.331 
  "/>
<polyline clip-path="url(#clip090)" style="stroke:#000000; stroke-linecap:round; stroke-linejoin:round; stroke-width:4; stroke-opacity:1; fill:none" points="
  257.204,86.1857 276.102,86.1857 
  "/>
<path clip-path="url(#clip090)" d="M114.26 1391.22 L143.936 1391.22 L143.936 1395.15 L114.26 1395.15 L114.26 1391.22 Z" fill="#000000" fill-rule="evenodd" fill-opacity="1" /><path clip-path="url(#clip090)" d="M154.839 1404.11 L162.477 1404.11 L162.477 1377.75 L154.167 1379.41 L154.167 1375.15 L162.431 1373.49 L167.107 1373.49 L167.107 1404.11 L174.746 1404.11 L174.746 1408.05 L154.839 1408.05 L154.839 1404.11 Z" fill="#000000" fill-rule="evenodd" fill-opacity="1" /><path clip-path="url(#clip090)" d="M184.19 1402.17 L189.075 1402.17 L189.075 1408.05 L184.19 1408.05 L184.19 1402.17 Z" fill="#000000" fill-rule="evenodd" fill-opacity="1" /><path clip-path="url(#clip090)" d="M209.26 1376.56 Q205.649 1376.56 203.82 1380.13 Q202.014 1383.67 202.014 1390.8 Q202.014 1397.91 203.82 1401.47 Q205.649 1405.01 209.26 1405.01 Q212.894 1405.01 214.699 1401.47 Q216.528 1397.91 216.528 1390.8 Q216.528 1383.67 214.699 1380.13 Q212.894 1376.56 209.26 1376.56 M209.26 1372.86 Q215.07 1372.86 218.125 1377.47 Q221.204 1382.05 221.204 1390.8 Q221.204 1399.53 218.125 1404.13 Q215.07 1408.72 209.26 1408.72 Q203.449 1408.72 200.371 1404.13 Q197.315 1399.53 197.315 1390.8 Q197.315 1382.05 200.371 1377.47 Q203.449 1372.86 209.26 1372.86 Z" fill="#000000" fill-rule="evenodd" fill-opacity="1" /><path clip-path="url(#clip090)" d="M115.256 1065.07 L144.931 1065.07 L144.931 1069.01 L115.256 1069.01 L115.256 1065.07 Z" fill="#000000" fill-rule="evenodd" fill-opacity="1" /><path clip-path="url(#clip090)" d="M165.024 1050.42 Q161.413 1050.42 159.584 1053.98 Q157.778 1057.53 157.778 1064.66 Q157.778 1071.76 159.584 1075.33 Q161.413 1078.87 165.024 1078.87 Q168.658 1078.87 170.464 1075.33 Q172.292 1071.76 172.292 1064.66 Q172.292 1057.53 170.464 1053.98 Q168.658 1050.42 165.024 1050.42 M165.024 1046.72 Q170.834 1046.72 173.889 1051.32 Q176.968 1055.91 176.968 1064.66 Q176.968 1073.38 173.889 1077.99 Q170.834 1082.57 165.024 1082.57 Q159.214 1082.57 156.135 1077.99 Q153.079 1073.38 153.079 1064.66 Q153.079 1055.91 156.135 1051.32 Q159.214 1046.72 165.024 1046.72 Z" fill="#000000" fill-rule="evenodd" fill-opacity="1" /><path clip-path="url(#clip090)" d="M185.186 1076.02 L190.07 1076.02 L190.07 1081.9 L185.186 1081.9 L185.186 1076.02 Z" fill="#000000" fill-rule="evenodd" fill-opacity="1" /><path clip-path="url(#clip090)" d="M200.301 1047.34 L218.658 1047.34 L218.658 1051.28 L204.584 1051.28 L204.584 1059.75 Q205.602 1059.4 206.621 1059.24 Q207.639 1059.05 208.658 1059.05 Q214.445 1059.05 217.824 1062.23 Q221.204 1065.4 221.204 1070.81 Q221.204 1076.39 217.732 1079.49 Q214.26 1082.57 207.94 1082.57 Q205.764 1082.57 203.496 1082.2 Q201.25 1081.83 198.843 1081.09 L198.843 1076.39 Q200.926 1077.53 203.149 1078.08 Q205.371 1078.64 207.848 1078.64 Q211.852 1078.64 214.19 1076.53 Q216.528 1074.42 216.528 1070.81 Q216.528 1067.2 214.19 1065.1 Q211.852 1062.99 207.848 1062.99 Q205.973 1062.99 204.098 1063.41 Q202.246 1063.82 200.301 1064.7 L200.301 1047.34 Z" fill="#000000" fill-rule="evenodd" fill-opacity="1" /><path clip-path="url(#clip090)" d="M164.028 724.275 Q160.417 724.275 158.589 727.839 Q156.783 731.381 156.783 738.511 Q156.783 745.617 158.589 749.182 Q160.417 752.723 164.028 752.723 Q167.663 752.723 169.468 749.182 Q171.297 745.617 171.297 738.511 Q171.297 731.381 169.468 727.839 Q167.663 724.275 164.028 724.275 M164.028 720.571 Q169.839 720.571 172.894 725.177 Q175.973 729.761 175.973 738.511 Q175.973 747.237 172.894 751.844 Q169.839 756.427 164.028 756.427 Q158.218 756.427 155.14 751.844 Q152.084 747.237 152.084 738.511 Q152.084 729.761 155.14 725.177 Q158.218 720.571 164.028 720.571 Z" fill="#000000" fill-rule="evenodd" fill-opacity="1" /><path clip-path="url(#clip090)" d="M184.19 749.876 L189.075 749.876 L189.075 755.756 L184.19 755.756 L184.19 749.876 Z" fill="#000000" fill-rule="evenodd" fill-opacity="1" /><path clip-path="url(#clip090)" d="M209.26 724.275 Q205.649 724.275 203.82 727.839 Q202.014 731.381 202.014 738.511 Q202.014 745.617 203.82 749.182 Q205.649 752.723 209.26 752.723 Q212.894 752.723 214.699 749.182 Q216.528 745.617 216.528 738.511 Q216.528 731.381 214.699 727.839 Q212.894 724.275 209.26 724.275 M209.26 720.571 Q215.07 720.571 218.125 725.177 Q221.204 729.761 221.204 738.511 Q221.204 747.237 218.125 751.844 Q215.07 756.427 209.26 756.427 Q203.449 756.427 200.371 751.844 Q197.315 747.237 197.315 738.511 Q197.315 729.761 200.371 725.177 Q203.449 720.571 209.26 720.571 Z" fill="#000000" fill-rule="evenodd" fill-opacity="1" /><path clip-path="url(#clip090)" d="M165.024 398.129 Q161.413 398.129 159.584 401.694 Q157.778 405.236 157.778 412.365 Q157.778 419.472 159.584 423.037 Q161.413 426.578 165.024 426.578 Q168.658 426.578 170.464 423.037 Q172.292 419.472 172.292 412.365 Q172.292 405.236 170.464 401.694 Q168.658 398.129 165.024 398.129 M165.024 394.426 Q170.834 394.426 173.889 399.032 Q176.968 403.616 176.968 412.365 Q176.968 421.092 173.889 425.699 Q170.834 430.282 165.024 430.282 Q159.214 430.282 156.135 425.699 Q153.079 421.092 153.079 412.365 Q153.079 403.616 156.135 399.032 Q159.214 394.426 165.024 394.426 Z" fill="#000000" fill-rule="evenodd" fill-opacity="1" /><path clip-path="url(#clip090)" d="M185.186 423.731 L190.07 423.731 L190.07 429.611 L185.186 429.611 L185.186 423.731 Z" fill="#000000" fill-rule="evenodd" fill-opacity="1" /><path clip-path="url(#clip090)" d="M200.301 395.051 L218.658 395.051 L218.658 398.986 L204.584 398.986 L204.584 407.458 Q205.602 407.111 206.621 406.949 Q207.639 406.764 208.658 406.764 Q214.445 406.764 217.824 409.935 Q221.204 413.106 221.204 418.523 Q221.204 424.102 217.732 427.203 Q214.26 430.282 207.94 430.282 Q205.764 430.282 203.496 429.912 Q201.25 429.541 198.843 428.801 L198.843 424.102 Q200.926 425.236 203.149 425.791 Q205.371 426.347 207.848 426.347 Q211.852 426.347 214.19 424.24 Q216.528 422.134 216.528 418.523 Q216.528 414.912 214.19 412.805 Q211.852 410.699 207.848 410.699 Q205.973 410.699 204.098 411.115 Q202.246 411.532 200.301 412.412 L200.301 395.051 Z" fill="#000000" fill-rule="evenodd" fill-opacity="1" /><path clip-path="url(#clip090)" d="M154.839 99.5305 L162.477 99.5305 L162.477 73.1649 L154.167 74.8316 L154.167 70.5723 L162.431 68.9057 L167.107 68.9057 L167.107 99.5305 L174.746 99.5305 L174.746 103.466 L154.839 103.466 L154.839 99.5305 Z" fill="#000000" fill-rule="evenodd" fill-opacity="1" /><path clip-path="url(#clip090)" d="M184.19 97.5861 L189.075 97.5861 L189.075 103.466 L184.19 103.466 L184.19 97.5861 Z" fill="#000000" fill-rule="evenodd" fill-opacity="1" /><path clip-path="url(#clip090)" d="M209.26 71.9844 Q205.649 71.9844 203.82 75.5492 Q202.014 79.0908 202.014 86.2204 Q202.014 93.3268 203.82 96.8916 Q205.649 100.433 209.26 100.433 Q212.894 100.433 214.699 96.8916 Q216.528 93.3268 216.528 86.2204 Q216.528 79.0908 214.699 75.5492 Q212.894 71.9844 209.26 71.9844 M209.26 68.2807 Q215.07 68.2807 218.125 72.8871 Q221.204 77.4704 221.204 86.2204 Q221.204 94.9472 218.125 99.5537 Q215.07 104.137 209.26 104.137 Q203.449 104.137 200.371 99.5537 Q197.315 94.9472 197.315 86.2204 Q197.315 77.4704 200.371 72.8871 Q203.449 68.2807 209.26 68.2807 Z" fill="#000000" fill-rule="evenodd" fill-opacity="1" /><path clip-path="url(#clip090)" d="M30.8561 720.775 Q31.307 720.775 32.3698 721.064 L57.5548 727.377 Q63.1586 728.762 67.0877 733.27 Q71.0168 737.747 71.0168 742.836 Q71.0168 745.895 69.3743 747.86 Q67.764 749.824 65.2842 749.824 Q63.0942 749.824 62.0314 748.665 Q61.0008 747.505 61.0008 746.121 Q61.0008 745.67 61.1296 745.187 Q61.2584 744.703 61.8059 744.188 Q62.3534 743.673 63.2874 743.673 Q64.8011 743.673 65.9927 744.993 Q66.5402 745.637 66.669 746.249 Q66.7978 746.829 66.7978 747.827 Q67.6996 747.441 68.3115 746.732 Q68.9234 746.024 69.1489 745.219 Q69.4065 744.414 69.4709 743.898 Q69.5675 743.351 69.5675 742.836 Q69.5675 738.713 65.413 735.557 Q64.157 734.623 62.9009 733.947 Q61.6771 733.238 60.1634 732.723 Q58.682 732.208 57.8768 731.982 Q57.0717 731.725 55.2359 731.274 Q58.2311 734.269 58.2311 737.94 Q58.2311 739.486 57.8124 740.871 Q57.3937 742.224 56.5242 743.415 Q55.6224 744.607 54.0443 745.315 Q52.4662 745.992 50.3728 745.992 Q48.1506 745.992 45.1233 745.122 Q42.0959 744.253 36.5243 742.159 Q33.4004 741.032 31.8867 741.032 Q31.146 741.032 30.6951 741.193 Q30.212 741.354 30.051 741.676 Q29.8577 741.998 29.8255 742.191 Q29.7933 742.352 29.7933 742.675 Q29.7933 744.575 31.7257 746.346 Q33.658 748.117 37.9736 749.341 Q38.7787 749.599 38.972 749.76 Q39.1652 749.921 39.1652 750.404 Q39.133 751.209 38.4889 751.209 Q38.2312 751.209 37.2329 750.919 Q36.2023 750.629 34.6886 749.953 Q33.1427 749.245 31.7579 748.278 Q30.3408 747.312 29.3424 745.798 Q28.344 744.253 28.344 742.481 Q28.344 740.066 29.9221 738.584 Q31.468 737.071 33.7546 737.071 Q34.6886 737.071 35.5259 737.328 Q36.3311 737.554 38.4889 738.391 Q47.1845 741.773 51.4356 741.773 Q52.4662 741.773 53.3358 741.612 Q54.1731 741.418 55.0105 741 Q55.8156 740.581 56.2987 739.744 Q56.7496 738.874 56.7496 737.683 Q56.7496 736.169 56.0411 734.752 Q55.3003 733.303 54.302 732.401 Q53.3036 731.467 52.4662 730.919 Q51.5967 730.34 51.1458 730.211 L39.294 727.248 L34.0123 725.927 Q31.146 725.316 30.4374 725.026 Q29.7611 724.639 29.4068 723.963 Q29.0526 723.287 29.0526 722.707 Q29.0526 721.902 29.5357 721.354 Q30.0187 720.775 30.8561 720.775 Z" fill="#000000" fill-rule="evenodd" fill-opacity="1" /><polyline clip-path="url(#clip092)" style="stroke:#009af9; stroke-linecap:round; stroke-linejoin:round; stroke-width:4; stroke-opacity:1; fill:none" points="
  316.512,112.979 514.206,244.821 711.899,830.527 909.593,1331.6 1107.29,1287.36 1304.98,738.476 1502.67,189.593 1700.37,145.35 1898.06,646.425 2095.75,1232.13 
  2293.45,1363.97 
  "/>
<polyline clip-path="url(#clip092)" style="stroke:#e26f46; stroke-linecap:round; stroke-linejoin:round; stroke-width:4; stroke-opacity:1; fill:none" stroke-dasharray="16, 10" points="
  316.512,553.446 514.206,1164.84 711.899,1384.24 909.593,1009.92 1107.29,386.042 1304.98,86.1857 1502.67,386.042 1700.37,1009.92 1898.06,1384.24 2095.75,1164.84 
  2293.45,553.446 
  "/>
<path clip-path="url(#clip090)" d="
M1925.24 248.629 L2282.9 248.629 L2282.9 93.1086 L1925.24 93.1086  Z
  " fill="#ffffff" fill-rule="evenodd" fill-opacity="1"/>
<polyline clip-path="url(#clip090)" style="stroke:#000000; stroke-linecap:round; stroke-linejoin:round; stroke-width:4; stroke-opacity:1; fill:none" points="
  1925.24,248.629 2282.9,248.629 2282.9,93.1086 1925.24,93.1086 1925.24,248.629 
  "/>
<polyline clip-path="url(#clip090)" style="stroke:#009af9; stroke-linecap:round; stroke-linejoin:round; stroke-width:4; stroke-opacity:1; fill:none" points="
  1948.52,144.949 2088.22,144.949 
  "/>
<path clip-path="url(#clip090)" d="M2111.51 156.191 L2111.51 149.867 Q2111.51 149.328 2111.53 149.141 Q2111.55 148.954 2111.69 148.813 Q2111.84 148.673 2112.12 148.673 Q2112.44 148.673 2112.56 148.813 Q2112.7 148.954 2112.8 149.492 Q2113.52 152.795 2115.07 154.552 Q2116.64 156.285 2119.47 156.285 Q2122.16 156.285 2123.52 155.09 Q2124.88 153.896 2124.88 151.928 Q2124.88 148.415 2119.89 147.525 Q2117.01 146.939 2115.82 146.565 Q2114.62 146.166 2113.57 145.3 Q2111.51 143.613 2111.51 141.224 Q2111.51 138.835 2113.31 137.078 Q2115.14 135.322 2119.17 135.322 Q2121.86 135.322 2123.69 136.68 Q2124.23 136.259 2124.51 135.907 Q2125.14 135.322 2125.47 135.322 Q2125.84 135.322 2125.91 135.579 Q2125.98 135.814 2125.98 136.493 L2125.98 141.318 Q2125.98 141.857 2125.96 142.044 Q2125.94 142.231 2125.79 142.372 Q2125.65 142.489 2125.35 142.489 Q2124.81 142.489 2124.79 142.044 Q2124.41 136.235 2119.17 136.235 Q2116.33 136.235 2115.07 137.336 Q2113.8 138.414 2113.8 139.889 Q2113.8 140.709 2114.18 141.341 Q2114.58 141.95 2115.07 142.325 Q2115.58 142.676 2116.52 143.028 Q2117.46 143.356 2118.02 143.473 Q2118.6 143.59 2119.71 143.824 Q2123.55 144.55 2125.16 146.12 Q2127.18 148.134 2127.18 150.687 Q2127.18 153.521 2125.26 155.442 Q2123.34 157.362 2119.47 157.362 Q2116.36 157.362 2114.18 155.278 Q2113.9 155.559 2113.69 155.816 Q2113.47 156.051 2113.38 156.144 Q2113.31 156.238 2113.29 156.308 Q2113.26 156.355 2113.22 156.402 Q2112.26 157.362 2112.02 157.362 Q2111.65 157.362 2111.58 157.105 Q2111.51 156.87 2111.51 156.191 Z" fill="#000000" fill-rule="evenodd" fill-opacity="1" /><path clip-path="url(#clip090)" d="M2129.05 156.824 L2129.05 155.348 Q2131.6 155.348 2132.19 155.044 Q2132.77 154.716 2132.77 153.17 L2132.77 140.264 Q2132.77 138.484 2132.16 138.062 Q2131.58 137.641 2129.24 137.641 L2129.24 136.142 L2135.94 135.626 L2135.94 153.217 Q2135.94 154.645 2136.45 154.997 Q2136.97 155.348 2139.31 155.348 L2139.31 156.824 Q2134.41 156.683 2134.32 156.683 Q2133.66 156.683 2129.05 156.824 M2131.06 127.264 Q2131.06 126.304 2131.79 125.531 Q2132.54 124.735 2133.59 124.735 Q2134.65 124.735 2135.4 125.461 Q2136.15 126.164 2136.15 127.288 Q2136.15 128.389 2135.4 129.115 Q2134.65 129.818 2133.59 129.818 Q2132.49 129.818 2131.77 129.045 Q2131.06 128.272 2131.06 127.264 Z" fill="#000000" fill-rule="evenodd" fill-opacity="1" /><path clip-path="url(#clip090)" d="M2142.58 156.824 L2142.58 155.348 Q2145.14 155.348 2145.72 155.044 Q2146.31 154.716 2146.31 153.17 L2146.31 140.311 Q2146.31 138.531 2145.68 138.086 Q2145.07 137.641 2142.58 137.641 L2142.58 136.142 L2149.33 135.626 L2149.33 140.662 Q2151.58 135.626 2156.43 135.626 Q2160.03 135.626 2161.46 137.406 Q2162.52 138.601 2162.73 139.936 Q2162.96 141.271 2162.96 144.738 L2162.96 153.896 Q2163.01 154.903 2163.78 155.137 Q2164.55 155.348 2166.71 155.348 L2166.71 156.824 Q2161.81 156.683 2161.32 156.683 Q2160.95 156.683 2155.91 156.824 L2155.91 155.348 Q2158.46 155.348 2159.05 155.044 Q2159.66 154.716 2159.66 153.17 L2159.66 141.997 Q2159.66 139.561 2158.91 138.133 Q2158.16 136.68 2156.1 136.68 Q2153.62 136.68 2151.62 138.765 Q2149.63 140.85 2149.63 144.363 L2149.63 153.17 Q2149.63 154.716 2150.22 155.044 Q2150.83 155.348 2153.36 155.348 L2153.36 156.824 Q2148.46 156.683 2147.99 156.683 Q2147.62 156.683 2142.58 156.824 Z" fill="#000000" fill-rule="evenodd" fill-opacity="1" /><path clip-path="url(#clip090)" d="M2168.93 144.831 Q2168.93 136.727 2171.95 130.192 Q2173.24 127.452 2175.04 125.156 Q2176.85 122.861 2178.04 121.854 Q2179.24 120.847 2179.57 120.847 Q2180.03 120.847 2180.06 121.315 Q2180.06 121.549 2179.42 122.135 Q2171.7 130.005 2171.72 144.831 Q2171.72 159.705 2179.24 167.27 Q2180.06 168.09 2180.06 168.347 Q2180.06 168.816 2179.57 168.816 Q2179.24 168.816 2178.09 167.856 Q2176.94 166.895 2175.16 164.694 Q2173.38 162.492 2172.09 159.798 Q2168.93 153.263 2168.93 144.831 Z" fill="#000000" fill-rule="evenodd" fill-opacity="1" /><path clip-path="url(#clip090)" d="M2207.59 138.788 Q2207.59 140.1 2206.77 140.85 Q2205.95 141.576 2205.01 141.576 Q2204.12 141.576 2203.65 141.06 Q2203.19 140.545 2203.19 139.889 Q2203.19 138.999 2203.84 138.226 Q2204.5 137.453 2205.48 137.289 Q2204.52 136.68 2203.09 136.68 Q2202.16 136.68 2201.34 137.172 Q2200.54 137.664 2200.05 138.296 Q2199.58 138.929 2199.16 139.842 Q2198.76 140.732 2198.6 141.271 Q2198.46 141.786 2198.34 142.349 L2196.7 148.907 Q2195.9 152.022 2195.9 153.123 Q2195.9 154.481 2196.56 155.395 Q2197.21 156.285 2198.53 156.285 Q2199.04 156.285 2199.63 156.144 Q2200.21 155.98 2200.96 155.559 Q2201.73 155.114 2202.41 154.458 Q2203.12 153.779 2203.8 152.631 Q2204.47 151.483 2204.92 150.008 Q2205.06 149.492 2205.53 149.492 Q2206.11 149.492 2206.11 149.961 Q2206.11 150.359 2205.79 151.202 Q2205.48 152.022 2204.8 153.099 Q2204.15 154.153 2203.28 155.114 Q2202.41 156.051 2201.13 156.707 Q2199.84 157.362 2198.43 157.362 Q2196.42 157.362 2195.08 156.285 Q2193.75 155.207 2193.26 153.708 Q2193.14 153.919 2192.97 154.2 Q2192.81 154.481 2192.32 155.114 Q2191.85 155.723 2191.31 156.191 Q2190.77 156.636 2189.93 156.988 Q2189.11 157.362 2188.22 157.362 Q2187.1 157.362 2186.09 157.034 Q2185.1 156.707 2184.4 155.957 Q2183.7 155.207 2183.7 154.177 Q2183.7 153.029 2184.47 152.233 Q2185.27 151.413 2186.35 151.413 Q2187.02 151.413 2187.56 151.811 Q2188.13 152.209 2188.13 153.076 Q2188.13 154.036 2187.47 154.762 Q2186.81 155.489 2185.88 155.676 Q2186.84 156.285 2188.27 156.285 Q2189.81 156.285 2191.03 154.926 Q2192.25 153.568 2192.83 151.296 Q2194.29 145.838 2194.85 143.403 Q2195.41 140.943 2195.41 139.889 Q2195.41 138.905 2195.15 138.226 Q2194.89 137.547 2194.45 137.242 Q2194.03 136.915 2193.63 136.797 Q2193.26 136.68 2192.83 136.68 Q2192.13 136.68 2191.33 136.961 Q2190.56 137.242 2189.62 137.898 Q2188.71 138.531 2187.84 139.842 Q2186.98 141.154 2186.39 142.958 Q2186.28 143.496 2185.76 143.496 Q2185.2 143.473 2185.2 143.004 Q2185.2 142.606 2185.5 141.786 Q2185.83 140.943 2186.49 139.889 Q2187.17 138.835 2188.03 137.898 Q2188.92 136.938 2190.21 136.282 Q2191.52 135.626 2192.93 135.626 Q2193.56 135.626 2194.17 135.767 Q2194.8 135.884 2195.55 136.235 Q2196.32 136.587 2197 137.36 Q2197.68 138.133 2198.1 139.257 Q2198.38 138.718 2198.76 138.203 Q2199.16 137.687 2199.77 137.055 Q2200.4 136.399 2201.27 136.024 Q2202.16 135.626 2203.14 135.626 Q2204.1 135.626 2205.04 135.884 Q2205.97 136.118 2206.77 136.891 Q2207.59 137.641 2207.59 138.788 Z" fill="#000000" fill-rule="evenodd" fill-opacity="1" /><path clip-path="url(#clip090)" d="M2212.2 168.347 Q2212.2 168.113 2212.81 167.528 Q2220.54 159.658 2220.54 144.831 Q2220.54 129.958 2213.12 122.439 Q2212.2 121.573 2212.2 121.315 Q2212.2 120.847 2212.67 120.847 Q2213 120.847 2214.15 121.807 Q2215.32 122.767 2217.07 124.969 Q2218.85 127.171 2220.17 129.864 Q2223.33 136.399 2223.33 144.831 Q2223.33 152.935 2220.31 159.47 Q2219.02 162.211 2217.21 164.506 Q2215.41 166.802 2214.22 167.809 Q2213.02 168.816 2212.67 168.816 Q2212.2 168.816 2212.2 168.347 Z" fill="#000000" fill-rule="evenodd" fill-opacity="1" /><polyline clip-path="url(#clip090)" style="stroke:#e26f46; stroke-linecap:round; stroke-linejoin:round; stroke-width:4; stroke-opacity:1; fill:none" stroke-dasharray="16, 10" points="
  1948.52,196.789 2088.22,196.789 
  "/>
<path clip-path="url(#clip090)" d="M2114.55 206.04 Q2111.51 202.855 2111.51 198.311 Q2111.51 193.744 2114.51 190.464 Q2117.5 187.162 2121.91 187.162 Q2124.83 187.162 2127.04 188.567 Q2129.24 189.949 2129.24 192.315 Q2129.24 193.369 2128.61 193.978 Q2128 194.563 2127.04 194.563 Q2126.03 194.563 2125.42 193.954 Q2124.83 193.322 2124.83 192.362 Q2124.83 191.94 2124.98 191.518 Q2125.12 191.097 2125.63 190.652 Q2126.17 190.207 2127.08 190.136 Q2125.37 188.38 2122.05 188.38 Q2122 188.38 2121.95 188.38 Q2119.52 188.38 2117.5 190.675 Q2115.49 192.971 2115.49 198.217 Q2115.49 200.958 2116.14 202.972 Q2116.82 204.963 2117.93 205.993 Q2119.03 207.024 2120.1 207.516 Q2121.18 207.984 2122.23 207.984 Q2126.94 207.984 2128.54 202.949 Q2128.68 202.48 2129.14 202.48 Q2129.78 202.48 2129.78 202.949 Q2129.78 203.183 2129.59 203.792 Q2129.4 204.401 2128.82 205.361 Q2128.23 206.321 2127.39 207.165 Q2126.57 207.984 2125.09 208.593 Q2123.64 209.202 2121.81 209.202 Q2117.6 209.202 2114.55 206.04 Z" fill="#000000" fill-rule="evenodd" fill-opacity="1" /><path clip-path="url(#clip090)" d="M2135.37 206.087 Q2132.21 202.949 2132.21 198.405 Q2132.21 193.837 2135.3 190.511 Q2138.41 187.162 2142.86 187.162 Q2147.22 187.162 2150.34 190.488 Q2153.47 193.79 2153.47 198.405 Q2153.47 202.925 2150.31 206.064 Q2147.17 209.202 2142.82 209.202 Q2138.55 209.202 2135.37 206.087 M2136.19 198.006 Q2136.19 202.667 2137.41 204.775 Q2139.28 207.984 2142.86 207.984 Q2144.64 207.984 2146.12 207.024 Q2147.62 206.064 2148.44 204.448 Q2149.49 202.34 2149.49 198.006 Q2149.49 193.392 2148.23 191.354 Q2146.35 188.239 2142.82 188.239 Q2141.27 188.239 2139.75 189.059 Q2138.25 189.855 2137.34 191.448 Q2136.19 193.556 2136.19 198.006 Z" fill="#000000" fill-rule="evenodd" fill-opacity="1" /><path clip-path="url(#clip090)" d="M2155.96 208.031 L2155.96 201.707 Q2155.96 201.168 2155.98 200.981 Q2156 200.794 2156.14 200.653 Q2156.28 200.513 2156.57 200.513 Q2156.89 200.513 2157.01 200.653 Q2157.15 200.794 2157.24 201.332 Q2157.97 204.635 2159.52 206.392 Q2161.09 208.125 2163.92 208.125 Q2166.61 208.125 2167.97 206.93 Q2169.33 205.736 2169.33 203.768 Q2169.33 200.255 2164.34 199.365 Q2161.46 198.779 2160.27 198.405 Q2159.07 198.006 2158.02 197.14 Q2155.96 195.453 2155.96 193.064 Q2155.96 190.675 2157.76 188.918 Q2159.59 187.162 2163.62 187.162 Q2166.31 187.162 2168.14 188.52 Q2168.67 188.099 2168.96 187.747 Q2169.59 187.162 2169.92 187.162 Q2170.29 187.162 2170.36 187.419 Q2170.43 187.654 2170.43 188.333 L2170.43 193.158 Q2170.43 193.697 2170.41 193.884 Q2170.38 194.071 2170.24 194.212 Q2170.1 194.329 2169.8 194.329 Q2169.26 194.329 2169.24 193.884 Q2168.86 188.075 2163.62 188.075 Q2160.78 188.075 2159.52 189.176 Q2158.25 190.254 2158.25 191.729 Q2158.25 192.549 2158.63 193.181 Q2159.02 193.79 2159.52 194.165 Q2160.03 194.516 2160.97 194.868 Q2161.91 195.196 2162.47 195.313 Q2163.05 195.43 2164.15 195.664 Q2168 196.39 2169.61 197.96 Q2171.63 199.974 2171.63 202.527 Q2171.63 205.361 2169.71 207.282 Q2167.78 209.202 2163.92 209.202 Q2160.8 209.202 2158.63 207.118 Q2158.35 207.399 2158.13 207.656 Q2157.92 207.891 2157.83 207.984 Q2157.76 208.078 2157.74 208.148 Q2157.71 208.195 2157.67 208.242 Q2156.71 209.202 2156.47 209.202 Q2156.1 209.202 2156.03 208.945 Q2155.96 208.71 2155.96 208.031 Z" fill="#000000" fill-rule="evenodd" fill-opacity="1" /><path clip-path="url(#clip090)" d="M2174.65 196.671 Q2174.65 188.567 2177.67 182.032 Q2178.96 179.292 2180.76 176.996 Q2182.57 174.701 2183.76 173.694 Q2184.96 172.687 2185.28 172.687 Q2185.75 172.687 2185.78 173.155 Q2185.78 173.389 2185.14 173.975 Q2177.41 181.845 2177.44 196.671 Q2177.44 211.545 2184.96 219.11 Q2185.78 219.93 2185.78 220.187 Q2185.78 220.656 2185.28 220.656 Q2184.96 220.656 2183.81 219.696 Q2182.66 218.735 2180.88 216.534 Q2179.1 214.332 2177.81 211.638 Q2174.65 205.103 2174.65 196.671 Z" fill="#000000" fill-rule="evenodd" fill-opacity="1" /><path clip-path="url(#clip090)" d="M2213.31 190.628 Q2213.31 191.94 2212.49 192.69 Q2211.67 193.416 2210.73 193.416 Q2209.84 193.416 2209.37 192.9 Q2208.9 192.385 2208.9 191.729 Q2208.9 190.839 2209.56 190.066 Q2210.22 189.293 2211.2 189.129 Q2210.24 188.52 2208.81 188.52 Q2207.87 188.52 2207.05 189.012 Q2206.26 189.504 2205.77 190.136 Q2205.3 190.769 2204.88 191.682 Q2204.48 192.572 2204.31 193.111 Q2204.17 193.626 2204.06 194.189 L2202.42 200.747 Q2201.62 203.862 2201.62 204.963 Q2201.62 206.321 2202.28 207.235 Q2202.93 208.125 2204.24 208.125 Q2204.76 208.125 2205.34 207.984 Q2205.93 207.82 2206.68 207.399 Q2207.45 206.954 2208.13 206.298 Q2208.83 205.619 2209.51 204.471 Q2210.19 203.323 2210.64 201.848 Q2210.78 201.332 2211.25 201.332 Q2211.83 201.332 2211.83 201.801 Q2211.83 202.199 2211.5 203.042 Q2211.2 203.862 2210.52 204.939 Q2209.87 205.993 2209 206.954 Q2208.13 207.891 2206.84 208.547 Q2205.56 209.202 2204.15 209.202 Q2202.14 209.202 2200.8 208.125 Q2199.47 207.047 2198.97 205.548 Q2198.86 205.759 2198.69 206.04 Q2198.53 206.321 2198.04 206.954 Q2197.57 207.563 2197.03 208.031 Q2196.49 208.476 2195.65 208.828 Q2194.83 209.202 2193.94 209.202 Q2192.81 209.202 2191.81 208.874 Q2190.82 208.547 2190.12 207.797 Q2189.42 207.047 2189.42 206.017 Q2189.42 204.869 2190.19 204.073 Q2190.99 203.253 2192.06 203.253 Q2192.74 203.253 2193.28 203.651 Q2193.84 204.049 2193.84 204.916 Q2193.84 205.876 2193.19 206.602 Q2192.53 207.329 2191.6 207.516 Q2192.56 208.125 2193.98 208.125 Q2195.53 208.125 2196.75 206.766 Q2197.97 205.408 2198.55 203.136 Q2200 197.678 2200.57 195.243 Q2201.13 192.783 2201.13 191.729 Q2201.13 190.745 2200.87 190.066 Q2200.61 189.387 2200.17 189.082 Q2199.75 188.755 2199.35 188.637 Q2198.97 188.52 2198.55 188.52 Q2197.85 188.52 2197.05 188.801 Q2196.28 189.082 2195.34 189.738 Q2194.43 190.371 2193.56 191.682 Q2192.7 192.994 2192.11 194.798 Q2191.99 195.336 2191.48 195.336 Q2190.92 195.313 2190.92 194.844 Q2190.92 194.446 2191.22 193.626 Q2191.55 192.783 2192.2 191.729 Q2192.88 190.675 2193.75 189.738 Q2194.64 188.778 2195.93 188.122 Q2197.24 187.466 2198.65 187.466 Q2199.28 187.466 2199.89 187.607 Q2200.52 187.724 2201.27 188.075 Q2202.04 188.427 2202.72 189.2 Q2203.4 189.973 2203.82 191.097 Q2204.1 190.558 2204.48 190.043 Q2204.88 189.527 2205.49 188.895 Q2206.12 188.239 2206.98 187.864 Q2207.87 187.466 2208.86 187.466 Q2209.82 187.466 2210.76 187.724 Q2211.69 187.958 2212.49 188.731 Q2213.31 189.481 2213.31 190.628 Z" fill="#000000" fill-rule="evenodd" fill-opacity="1" /><path clip-path="url(#clip090)" d="M2217.92 220.187 Q2217.92 219.953 2218.53 219.368 Q2226.26 211.498 2226.26 196.671 Q2226.26 181.798 2218.83 174.279 Q2217.92 173.413 2217.92 173.155 Q2217.92 172.687 2218.39 172.687 Q2218.72 172.687 2219.86 173.647 Q2221.04 174.607 2222.79 176.809 Q2224.57 179.011 2225.88 181.704 Q2229.05 188.239 2229.05 196.671 Q2229.05 204.775 2226.02 211.31 Q2224.74 214.051 2222.93 216.346 Q2221.13 218.642 2219.94 219.649 Q2218.74 220.656 2218.39 220.656 Q2217.92 220.656 2217.92 220.187 Z" fill="#000000" fill-rule="evenodd" fill-opacity="1" /></svg>
