<?xml version="1.0" encoding="utf-8"?>
<svg xmlns="http://www.w3.org/2000/svg" xmlns:xlink="http://www.w3.org/1999/xlink" width="600" height="400" viewBox="0 0 2400 1600">
<defs>
  <clipPath id="clip470">
    <rect x="0" y="0" width="2400" height="1600"/>
  </clipPath>
</defs>
<path clip-path="url(#clip470)" d="
M0 1600 L2400 1600 L2400 0 L0 0  Z
  " fill="#ffffff" fill-rule="evenodd" fill-opacity="1"/>
<defs>
  <clipPath id="clip471">
    <rect x="480" y="0" width="1681" height="1600"/>
  </clipPath>
</defs>
<path clip-path="url(#clip470)" d="
M203.964 1423.18 L2352.76 1423.18 L2352.76 47.2441 L203.964 47.2441  Z
  " fill="#ffffff" fill-rule="evenodd" fill-opacity="1"/>
<defs>
  <clipPath id="clip472">
    <rect x="203" y="47" width="2150" height="1377"/>
  </clipPath>
</defs>
<polyline clip-path="url(#clip472)" style="stroke:#000000; stroke-linecap:round; stroke-linejoin:round; stroke-width:2; stroke-opacity:0.1; fill:none" points="
  467.495,1423.18 467.495,47.2441 
  "/>
<polyline clip-path="url(#clip472)" style="stroke:#000000; stroke-linecap:round; stroke-linejoin:round; stroke-width:2; stroke-opacity:0.1; fill:none" points="
  872.927,1423.18 872.927,47.2441 
  "/>
<polyline clip-path="url(#clip472)" style="stroke:#000000; stroke-linecap:round; stroke-linejoin:round; stroke-width:2; stroke-opacity:0.1; fill:none" points="
  1278.36,1423.18 1278.36,47.2441 
  "/>
<polyline clip-path="url(#clip472)" style="stroke:#000000; stroke-linecap:round; stroke-linejoin:round; stroke-width:2; stroke-opacity:0.1; fill:none" points="
  1683.79,1423.18 1683.79,47.2441 
  "/>
<polyline clip-path="url(#clip472)" style="stroke:#000000; stroke-linecap:round; stroke-linejoin:round; stroke-width:2; stroke-opacity:0.1; fill:none" points="
  2089.22,1423.18 2089.22,47.2441 
  "/>
<polyline clip-path="url(#clip470)" style="stroke:#000000; stroke-linecap:round; stroke-linejoin:round; stroke-width:4; stroke-opacity:1; fill:none" points="
  203.964,1423.18 2352.76,1423.18 
  "/>
<polyline clip-path="url(#clip470)" style="stroke:#000000; stroke-linecap:round; stroke-linejoin:round; stroke-width:4; stroke-opacity:1; fill:none" points="
  467.495,1423.18 467.495,1404.28 
  "/>
<polyline clip-path="url(#clip470)" style="stroke:#000000; stroke-linecap:round; stroke-linejoin:round; stroke-width:4; stroke-opacity:1; fill:none" points="
  872.927,1423.18 872.927,1404.28 
  "/>
<polyline clip-path="url(#clip470)" style="stroke:#000000; stroke-linecap:round; stroke-linejoin:round; stroke-width:4; stroke-opacity:1; fill:none" points="
  1278.36,1423.18 1278.36,1404.28 
  "/>
<polyline clip-path="url(#clip470)" style="stroke:#000000; stroke-linecap:round; stroke-linejoin:round; stroke-width:4; stroke-opacity:1; fill:none" points="
  1683.79,1423.18 1683.79,1404.28 
  "/>
<polyline clip-path="url(#clip470)" style="stroke:#000000; stroke-linecap:round; stroke-linejoin:round; stroke-width:4; stroke-opacity:1; fill:none" points="
  2089.22,1423.18 2089.22,1404.28 
  "/>
<path clip-path="url(#clip470)" d="M436.395 1468.75 L466.071 1468.75 L466.071 1472.69 L436.395 1472.69 L436.395 1468.75 Z" fill="#000000" fill-rule="evenodd" fill-opacity="1" /><path clip-path="url(#clip470)" d="M489.011 1455.09 L477.205 1473.54 L489.011 1473.54 L489.011 1455.09 M487.784 1451.02 L493.664 1451.02 L493.664 1473.54 L498.594 1473.54 L498.594 1477.43 L493.664 1477.43 L493.664 1485.58 L489.011 1485.58 L489.011 1477.43 L473.409 1477.43 L473.409 1472.92 L487.784 1451.02 Z" fill="#000000" fill-rule="evenodd" fill-opacity="1" /><path clip-path="url(#clip470)" d="M842.87 1468.75 L872.545 1468.75 L872.545 1472.69 L842.87 1472.69 L842.87 1468.75 Z" fill="#000000" fill-rule="evenodd" fill-opacity="1" /><path clip-path="url(#clip470)" d="M886.666 1481.64 L902.985 1481.64 L902.985 1485.58 L881.041 1485.58 L881.041 1481.64 Q883.703 1478.89 888.286 1474.26 Q892.892 1469.61 894.073 1468.27 Q896.318 1465.74 897.198 1464.01 Q898.101 1462.25 898.101 1460.56 Q898.101 1457.8 896.156 1456.07 Q894.235 1454.33 891.133 1454.33 Q888.934 1454.33 886.48 1455.09 Q884.05 1455.86 881.272 1457.41 L881.272 1452.69 Q884.096 1451.55 886.55 1450.97 Q889.004 1450.39 891.041 1450.39 Q896.411 1450.39 899.605 1453.08 Q902.8 1455.77 902.8 1460.26 Q902.8 1462.39 901.99 1464.31 Q901.203 1466.2 899.096 1468.8 Q898.517 1469.47 895.416 1472.69 Q892.314 1475.88 886.666 1481.64 Z" fill="#000000" fill-rule="evenodd" fill-opacity="1" /><path clip-path="url(#clip470)" d="M1278.36 1454.1 Q1274.75 1454.1 1272.92 1457.66 Q1271.11 1461.2 1271.11 1468.33 Q1271.11 1475.44 1272.92 1479.01 Q1274.75 1482.55 1278.36 1482.55 Q1281.99 1482.55 1283.8 1479.01 Q1285.63 1475.44 1285.63 1468.33 Q1285.63 1461.2 1283.8 1457.66 Q1281.99 1454.1 1278.36 1454.1 M1278.36 1450.39 Q1284.17 1450.39 1287.23 1455 Q1290.3 1459.58 1290.3 1468.33 Q1290.3 1477.06 1287.23 1481.67 Q1284.17 1486.25 1278.36 1486.25 Q1272.55 1486.25 1269.47 1481.67 Q1266.42 1477.06 1266.42 1468.33 Q1266.42 1459.58 1269.47 1455 Q1272.55 1450.39 1278.36 1450.39 Z" fill="#000000" fill-rule="evenodd" fill-opacity="1" /><path clip-path="url(#clip470)" d="M1678.45 1481.64 L1694.76 1481.64 L1694.76 1485.58 L1672.82 1485.58 L1672.82 1481.64 Q1675.48 1478.89 1680.07 1474.26 Q1684.67 1469.61 1685.85 1468.27 Q1688.1 1465.74 1688.98 1464.01 Q1689.88 1462.25 1689.88 1460.56 Q1689.88 1457.8 1687.94 1456.07 Q1686.01 1454.33 1682.91 1454.33 Q1680.71 1454.33 1678.26 1455.09 Q1675.83 1455.86 1673.05 1457.41 L1673.05 1452.69 Q1675.88 1451.55 1678.33 1450.97 Q1680.78 1450.39 1682.82 1450.39 Q1688.19 1450.39 1691.38 1453.08 Q1694.58 1455.77 1694.58 1460.26 Q1694.58 1462.39 1693.77 1464.31 Q1692.98 1466.2 1690.88 1468.8 Q1690.3 1469.47 1687.2 1472.69 Q1684.09 1475.88 1678.45 1481.64 Z" fill="#000000" fill-rule="evenodd" fill-opacity="1" /><path clip-path="url(#clip470)" d="M2092.23 1455.09 L2080.43 1473.54 L2092.23 1473.54 L2092.23 1455.09 M2091.01 1451.02 L2096.89 1451.02 L2096.89 1473.54 L2101.82 1473.54 L2101.82 1477.43 L2096.89 1477.43 L2096.89 1485.58 L2092.23 1485.58 L2092.23 1477.43 L2076.63 1477.43 L2076.63 1472.92 L2091.01 1451.02 Z" fill="#000000" fill-rule="evenodd" fill-opacity="1" /><path clip-path="url(#clip470)" d="M1292.53 1528.8 Q1292.53 1530.61 1291.41 1531.64 Q1290.28 1532.64 1288.99 1532.64 Q1287.77 1532.64 1287.12 1531.93 Q1286.48 1531.22 1286.48 1530.32 Q1286.48 1529.09 1287.38 1528.03 Q1288.28 1526.97 1289.63 1526.74 Q1288.31 1525.91 1286.35 1525.91 Q1285.06 1525.91 1283.93 1526.58 Q1282.84 1527.26 1282.16 1528.13 Q1281.52 1529 1280.94 1530.25 Q1280.39 1531.48 1280.17 1532.22 Q1279.97 1532.93 1279.81 1533.7 L1277.56 1542.72 Q1276.46 1547 1276.46 1548.51 Q1276.46 1550.38 1277.36 1551.64 Q1278.27 1552.86 1280.07 1552.86 Q1280.78 1552.86 1281.58 1552.67 Q1282.39 1552.44 1283.42 1551.86 Q1284.48 1551.25 1285.42 1550.35 Q1286.38 1549.42 1287.32 1547.84 Q1288.25 1546.26 1288.86 1544.23 Q1289.05 1543.52 1289.7 1543.52 Q1290.5 1543.52 1290.5 1544.17 Q1290.5 1544.71 1290.05 1545.87 Q1289.63 1547 1288.7 1548.48 Q1287.8 1549.93 1286.61 1551.25 Q1285.42 1552.54 1283.64 1553.44 Q1281.87 1554.34 1279.94 1554.34 Q1277.17 1554.34 1275.34 1552.86 Q1273.5 1551.38 1272.82 1549.32 Q1272.66 1549.61 1272.44 1550 Q1272.21 1550.38 1271.53 1551.25 Q1270.89 1552.09 1270.15 1552.73 Q1269.41 1553.34 1268.25 1553.83 Q1267.12 1554.34 1265.9 1554.34 Q1264.35 1554.34 1262.97 1553.89 Q1261.62 1553.44 1260.65 1552.41 Q1259.68 1551.38 1259.68 1549.96 Q1259.68 1548.38 1260.75 1547.29 Q1261.84 1546.16 1263.32 1546.16 Q1264.26 1546.16 1265 1546.71 Q1265.77 1547.26 1265.77 1548.45 Q1265.77 1549.77 1264.87 1550.77 Q1263.97 1551.77 1262.68 1552.02 Q1264 1552.86 1265.96 1552.86 Q1268.09 1552.86 1269.76 1550.99 Q1271.44 1549.13 1272.24 1546 Q1274.24 1538.5 1275.01 1535.15 Q1275.79 1531.77 1275.79 1530.32 Q1275.79 1528.96 1275.43 1528.03 Q1275.08 1527.1 1274.47 1526.68 Q1273.89 1526.23 1273.34 1526.07 Q1272.82 1525.91 1272.24 1525.91 Q1271.28 1525.91 1270.18 1526.29 Q1269.12 1526.68 1267.83 1527.58 Q1266.58 1528.45 1265.38 1530.25 Q1264.19 1532.06 1263.39 1534.54 Q1263.23 1535.28 1262.52 1535.28 Q1261.74 1535.24 1261.74 1534.6 Q1261.74 1534.05 1262.16 1532.93 Q1262.61 1531.77 1263.52 1530.32 Q1264.45 1528.87 1265.64 1527.58 Q1266.87 1526.26 1268.64 1525.36 Q1270.44 1524.46 1272.37 1524.46 Q1273.24 1524.46 1274.08 1524.65 Q1274.95 1524.81 1275.98 1525.29 Q1277.04 1525.78 1277.98 1526.84 Q1278.91 1527.9 1279.49 1529.45 Q1279.88 1528.71 1280.39 1528 Q1280.94 1527.29 1281.78 1526.42 Q1282.65 1525.52 1283.84 1525 Q1285.06 1524.46 1286.41 1524.46 Q1287.73 1524.46 1289.02 1524.81 Q1290.31 1525.13 1291.41 1526.19 Q1292.53 1527.23 1292.53 1528.8 Z" fill="#000000" fill-rule="evenodd" fill-opacity="1" /><polyline clip-path="url(#clip472)" style="stroke:#000000; stroke-linecap:round; stroke-linejoin:round; stroke-width:2; stroke-opacity:0.1; fill:none" points="
  203.964,1384.24 2352.76,1384.24 
  "/>
<polyline clip-path="url(#clip472)" style="stroke:#000000; stroke-linecap:round; stroke-linejoin:round; stroke-width:2; stroke-opacity:0.1; fill:none" points="
  203.964,1124.63 2352.76,1124.63 
  "/>
<polyline clip-path="url(#clip472)" style="stroke:#000000; stroke-linecap:round; stroke-linejoin:round; stroke-width:2; stroke-opacity:0.1; fill:none" points="
  203.964,865.017 2352.76,865.017 
  "/>
<polyline clip-path="url(#clip472)" style="stroke:#000000; stroke-linecap:round; stroke-linejoin:round; stroke-width:2; stroke-opacity:0.1; fill:none" points="
  203.964,605.407 2352.76,605.407 
  "/>
<polyline clip-path="url(#clip472)" style="stroke:#000000; stroke-linecap:round; stroke-linejoin:round; stroke-width:2; stroke-opacity:0.1; fill:none" points="
  203.964,345.796 2352.76,345.796 
  "/>
<polyline clip-path="url(#clip472)" style="stroke:#000000; stroke-linecap:round; stroke-linejoin:round; stroke-width:2; stroke-opacity:0.1; fill:none" points="
  203.964,86.1857 2352.76,86.1857 
  "/>
<polyline clip-path="url(#clip470)" style="stroke:#000000; stroke-linecap:round; stroke-linejoin:round; stroke-width:4; stroke-opacity:1; fill:none" points="
  203.964,1423.18 203.964,47.2441 
  "/>
<polyline clip-path="url(#clip470)" style="stroke:#000000; stroke-linecap:round; stroke-linejoin:round; stroke-width:4; stroke-opacity:1; fill:none" points="
  203.964,1384.24 222.861,1384.24 
  "/>
<polyline clip-path="url(#clip470)" style="stroke:#000000; stroke-linecap:round; stroke-linejoin:round; stroke-width:4; stroke-opacity:1; fill:none" points="
  203.964,1124.63 222.861,1124.63 
  "/>
<polyline clip-path="url(#clip470)" style="stroke:#000000; stroke-linecap:round; stroke-linejoin:round; stroke-width:4; stroke-opacity:1; fill:none" points="
  203.964,865.017 222.861,865.017 
  "/>
<polyline clip-path="url(#clip470)" style="stroke:#000000; stroke-linecap:round; stroke-linejoin:round; stroke-width:4; stroke-opacity:1; fill:none" points="
  203.964,605.407 222.861,605.407 
  "/>
<polyline clip-path="url(#clip470)" style="stroke:#000000; stroke-linecap:round; stroke-linejoin:round; stroke-width:4; stroke-opacity:1; fill:none" points="
  203.964,345.796 222.861,345.796 
  "/>
<polyline clip-path="url(#clip470)" style="stroke:#000000; stroke-linecap:round; stroke-linejoin:round; stroke-width:4; stroke-opacity:1; fill:none" points="
  203.964,86.1857 222.861,86.1857 
  "/>
<path clip-path="url(#clip470)" d="M156.019 1370.04 Q152.408 1370.04 150.579 1373.6 Q148.774 1377.14 148.774 1384.27 Q148.774 1391.38 150.579 1394.94 Q152.408 1398.49 156.019 1398.49 Q159.653 1398.49 161.459 1394.94 Q163.288 1391.38 163.288 1384.27 Q163.288 1377.14 161.459 1373.6 Q159.653 1370.04 156.019 1370.04 M156.019 1366.33 Q161.829 1366.33 164.885 1370.94 Q167.964 1375.52 167.964 1384.27 Q167.964 1393 164.885 1397.61 Q161.829 1402.19 156.019 1402.19 Q150.209 1402.19 147.13 1397.61 Q144.075 1393 144.075 1384.27 Q144.075 1375.52 147.13 1370.94 Q150.209 1366.33 156.019 1366.33 Z" fill="#000000" fill-rule="evenodd" fill-opacity="1" /><path clip-path="url(#clip470)" d="M147.061 1107.35 L165.417 1107.35 L165.417 1111.28 L151.343 1111.28 L151.343 1119.76 Q152.362 1119.41 153.38 1119.25 Q154.399 1119.06 155.417 1119.06 Q161.204 1119.06 164.584 1122.23 Q167.964 1125.4 167.964 1130.82 Q167.964 1136.4 164.491 1139.5 Q161.019 1142.58 154.7 1142.58 Q152.524 1142.58 150.255 1142.21 Q148.01 1141.84 145.603 1141.1 L145.603 1136.4 Q147.686 1137.53 149.908 1138.09 Q152.13 1138.64 154.607 1138.64 Q158.612 1138.64 160.95 1136.54 Q163.288 1134.43 163.288 1130.82 Q163.288 1127.21 160.95 1125.1 Q158.612 1123 154.607 1123 Q152.732 1123 150.857 1123.41 Q149.005 1123.83 147.061 1124.71 L147.061 1107.35 Z" fill="#000000" fill-rule="evenodd" fill-opacity="1" /><path clip-path="url(#clip470)" d="M116.668 878.362 L124.306 878.362 L124.306 851.996 L115.996 853.663 L115.996 849.404 L124.26 847.737 L128.936 847.737 L128.936 878.362 L136.575 878.362 L136.575 882.297 L116.668 882.297 L116.668 878.362 Z" fill="#000000" fill-rule="evenodd" fill-opacity="1" /><path clip-path="url(#clip470)" d="M156.019 850.816 Q152.408 850.816 150.579 854.381 Q148.774 857.922 148.774 865.052 Q148.774 872.158 150.579 875.723 Q152.408 879.265 156.019 879.265 Q159.653 879.265 161.459 875.723 Q163.288 872.158 163.288 865.052 Q163.288 857.922 161.459 854.381 Q159.653 850.816 156.019 850.816 M156.019 847.112 Q161.829 847.112 164.885 851.719 Q167.964 856.302 167.964 865.052 Q167.964 873.779 164.885 878.385 Q161.829 882.969 156.019 882.969 Q150.209 882.969 147.13 878.385 Q144.075 873.779 144.075 865.052 Q144.075 856.302 147.13 851.719 Q150.209 847.112 156.019 847.112 Z" fill="#000000" fill-rule="evenodd" fill-opacity="1" /><path clip-path="url(#clip470)" d="M117.663 618.752 L125.302 618.752 L125.302 592.386 L116.992 594.053 L116.992 589.793 L125.255 588.127 L129.931 588.127 L129.931 618.752 L137.57 618.752 L137.57 622.687 L117.663 622.687 L117.663 618.752 Z" fill="#000000" fill-rule="evenodd" fill-opacity="1" /><path clip-path="url(#clip470)" d="M147.061 588.127 L165.417 588.127 L165.417 592.062 L151.343 592.062 L151.343 600.534 Q152.362 600.187 153.38 600.025 Q154.399 599.84 155.417 599.84 Q161.204 599.84 164.584 603.011 Q167.964 606.182 167.964 611.599 Q167.964 617.177 164.491 620.279 Q161.019 623.358 154.7 623.358 Q152.524 623.358 150.255 622.988 Q148.01 622.617 145.603 621.877 L145.603 617.177 Q147.686 618.312 149.908 618.867 Q152.13 619.423 154.607 619.423 Q158.612 619.423 160.95 617.316 Q163.288 615.21 163.288 611.599 Q163.288 607.988 160.95 605.881 Q158.612 603.775 154.607 603.775 Q152.732 603.775 150.857 604.191 Q149.005 604.608 147.061 605.488 L147.061 588.127 Z" fill="#000000" fill-rule="evenodd" fill-opacity="1" /><path clip-path="url(#clip470)" d="M119.885 359.141 L136.204 359.141 L136.204 363.076 L114.26 363.076 L114.26 359.141 Q116.922 356.386 121.505 351.757 Q126.112 347.104 127.292 345.761 Q129.538 343.238 130.417 341.502 Q131.32 339.743 131.32 338.053 Q131.32 335.299 129.376 333.562 Q127.455 331.826 124.353 331.826 Q122.154 331.826 119.7 332.59 Q117.269 333.354 114.492 334.905 L114.492 330.183 Q117.316 329.049 119.769 328.47 Q122.223 327.891 124.26 327.891 Q129.63 327.891 132.825 330.576 Q136.019 333.262 136.019 337.752 Q136.019 339.882 135.209 341.803 Q134.422 343.701 132.316 346.294 Q131.737 346.965 128.635 350.183 Q125.533 353.377 119.885 359.141 Z" fill="#000000" fill-rule="evenodd" fill-opacity="1" /><path clip-path="url(#clip470)" d="M156.019 331.595 Q152.408 331.595 150.579 335.16 Q148.774 338.701 148.774 345.831 Q148.774 352.937 150.579 356.502 Q152.408 360.044 156.019 360.044 Q159.653 360.044 161.459 356.502 Q163.288 352.937 163.288 345.831 Q163.288 338.701 161.459 335.16 Q159.653 331.595 156.019 331.595 M156.019 327.891 Q161.829 327.891 164.885 332.498 Q167.964 337.081 167.964 345.831 Q167.964 354.558 164.885 359.164 Q161.829 363.747 156.019 363.747 Q150.209 363.747 147.13 359.164 Q144.075 354.558 144.075 345.831 Q144.075 337.081 147.13 332.498 Q150.209 327.891 156.019 327.891 Z" fill="#000000" fill-rule="evenodd" fill-opacity="1" /><path clip-path="url(#clip470)" d="M120.88 99.5305 L137.2 99.5305 L137.2 103.466 L115.256 103.466 L115.256 99.5305 Q117.918 96.7759 122.501 92.1463 Q127.107 87.4935 128.288 86.151 Q130.533 83.6278 131.413 81.8917 Q132.316 80.1325 132.316 78.4427 Q132.316 75.688 130.371 73.9519 Q128.45 72.2158 125.348 72.2158 Q123.149 72.2158 120.695 72.9797 Q118.265 73.7436 115.487 75.2945 L115.487 70.5723 Q118.311 69.4381 120.765 68.8594 Q123.218 68.2807 125.255 68.2807 Q130.626 68.2807 133.82 70.9658 Q137.015 73.651 137.015 78.1417 Q137.015 80.2714 136.204 82.1926 Q135.417 84.0908 133.311 86.6834 Q132.732 87.3546 129.63 90.5722 Q126.529 93.7667 120.88 99.5305 Z" fill="#000000" fill-rule="evenodd" fill-opacity="1" /><path clip-path="url(#clip470)" d="M147.061 68.9057 L165.417 68.9057 L165.417 72.8408 L151.343 72.8408 L151.343 81.313 Q152.362 80.9658 153.38 80.8038 Q154.399 80.6186 155.417 80.6186 Q161.204 80.6186 164.584 83.7899 Q167.964 86.9611 167.964 92.3778 Q167.964 97.9564 164.491 101.058 Q161.019 104.137 154.7 104.137 Q152.524 104.137 150.255 103.767 Q148.01 103.396 145.603 102.655 L145.603 97.9564 Q147.686 99.0907 149.908 99.6462 Q152.13 100.202 154.607 100.202 Q158.612 100.202 160.95 98.0953 Q163.288 95.9889 163.288 92.3778 Q163.288 88.7667 160.95 86.6602 Q158.612 84.5537 154.607 84.5537 Q152.732 84.5537 150.857 84.9704 Q149.005 85.3871 147.061 86.2667 L147.061 68.9057 Z" fill="#000000" fill-rule="evenodd" fill-opacity="1" /><path clip-path="url(#clip470)" d="M49.6813 734.795 Q51.4848 734.795 52.5154 735.922 Q53.5138 737.049 53.5138 738.338 Q53.5138 739.561 52.8053 740.206 Q52.0967 740.85 51.195 740.85 Q49.9711 740.85 48.9083 739.948 Q47.8456 739.046 47.6201 737.693 Q46.7828 739.014 46.7828 740.978 Q46.7828 742.267 47.4591 743.394 Q48.1354 744.489 49.005 745.165 Q49.8745 745.809 51.1305 746.389 Q52.3544 746.937 53.0951 747.162 Q53.8036 747.355 54.5766 747.516 L63.5942 749.771 Q67.8776 750.866 69.3913 750.866 Q71.2592 750.866 72.5152 749.964 Q73.7391 749.062 73.7391 747.259 Q73.7391 746.55 73.5458 745.745 Q73.3204 744.94 72.7407 743.909 Q72.1288 742.846 71.227 741.912 Q70.293 740.946 68.7149 740.012 Q67.1369 739.078 65.1079 738.466 Q64.3994 738.273 64.3994 737.629 Q64.3994 736.824 65.0435 736.824 Q65.591 736.824 66.7504 737.275 Q67.8776 737.693 69.3591 738.627 Q70.8083 739.529 72.1288 740.721 Q73.417 741.912 74.3188 743.684 Q75.2205 745.455 75.2205 747.387 Q75.2205 750.157 73.7391 751.993 Q72.2576 753.829 70.1964 754.505 Q70.4863 754.666 70.8727 754.891 Q71.2592 755.117 72.1288 755.793 Q72.9661 756.437 73.6102 757.178 Q74.2222 757.919 74.7052 759.078 Q75.2205 760.205 75.2205 761.429 Q75.2205 762.975 74.7697 764.36 Q74.3188 765.713 73.2882 766.679 Q72.2576 767.645 70.8405 767.645 Q69.2624 767.645 68.1674 766.582 Q67.0402 765.487 67.0402 764.006 Q67.0402 763.072 67.5877 762.331 Q68.1352 761.558 69.3269 761.558 Q70.6473 761.558 71.6457 762.46 Q72.6441 763.362 72.9017 764.65 Q73.7391 763.329 73.7391 761.365 Q73.7391 759.239 71.8711 757.565 Q70.0032 755.89 66.8792 755.085 Q59.3752 753.088 56.0258 752.315 Q52.6442 751.542 51.195 751.542 Q49.8423 751.542 48.9083 751.896 Q47.9744 752.251 47.5557 752.862 Q47.1048 753.442 46.9438 753.99 Q46.7828 754.505 46.7828 755.085 Q46.7828 756.051 47.1692 757.146 Q47.5557 758.209 48.4575 759.497 Q49.327 760.753 51.1305 761.944 Q52.9341 763.136 55.4139 763.941 Q56.1547 764.102 56.1547 764.811 Q56.1225 765.584 55.4783 765.584 Q54.9308 765.584 53.8036 765.165 Q52.6442 764.714 51.195 763.812 Q49.7457 762.878 48.4575 761.687 Q47.137 760.463 46.2353 758.692 Q45.3335 756.888 45.3335 754.956 Q45.3335 754.086 45.5267 753.249 Q45.6878 752.379 46.1708 751.349 Q46.6539 750.286 47.7167 749.352 Q48.7795 748.418 50.3254 747.838 Q49.5847 747.452 48.8761 746.937 Q48.1676 746.389 47.2981 745.552 Q46.3963 744.682 45.881 743.491 Q45.3335 742.267 45.3335 740.914 Q45.3335 739.594 45.6878 738.305 Q46.0098 737.017 47.0726 735.922 Q48.1032 734.795 49.6813 734.795 Z" fill="#000000" fill-rule="evenodd" fill-opacity="1" /><path clip-path="url(#clip470)" d="M54.7431 728.074 Q53.9089 728.074 53.661 728.006 Q53.413 727.916 53.0297 727.555 L43.1554 718.695 Q37.6997 713.848 32.9429 713.848 Q29.8544 713.848 27.6451 715.472 Q25.4357 717.072 25.4357 720.025 Q25.4357 722.054 26.6757 723.768 Q27.9156 725.481 30.1249 726.27 Q30.0798 726.135 30.0798 725.661 Q30.0798 724.512 30.8012 723.88 Q31.5227 723.227 32.492 723.227 Q33.732 723.227 34.3407 724.038 Q34.9268 724.827 34.9268 725.616 Q34.9268 725.932 34.8592 726.36 Q34.7915 726.766 34.1603 727.42 Q33.5065 728.074 32.3568 728.074 Q29.133 728.074 26.563 725.639 Q23.9929 723.182 23.9929 719.439 Q23.9929 715.201 26.5179 712.428 Q29.0203 709.633 32.9429 709.633 Q34.3181 709.633 35.5806 710.061 Q36.8205 710.467 37.7899 711.03 Q38.7593 711.571 40.3149 713.059 Q41.8704 714.547 42.9751 715.742 Q44.0797 716.937 46.4243 719.62 L51.1811 724.512 L51.1811 716.193 Q51.1811 712.135 50.8204 711.819 Q50.1666 711.369 46.7174 710.805 L46.7174 709.633 L54.7431 710.94 L54.7431 728.074 Z" fill="#000000" fill-rule="evenodd" fill-opacity="1" /><polyline clip-path="url(#clip472)" style="stroke:#009af9; stroke-linecap:round; stroke-linejoin:round; stroke-width:4; stroke-opacity:1; fill:none" points="
  264.778,86.1857 467.495,553.485 670.211,916.939 872.927,1176.55 1075.64,1332.32 1278.36,1384.24 1481.08,1332.32 1683.79,1176.55 1886.51,916.939 2089.22,553.485 
  2291.94,86.1857 
  "/>
<path clip-path="url(#clip470)" d="
M1989.94 196.789 L2281.13 196.789 L2281.13 93.1086 L1989.94 93.1086  Z
  " fill="#ffffff" fill-rule="evenodd" fill-opacity="1"/>
<polyline clip-path="url(#clip470)" style="stroke:#000000; stroke-linecap:round; stroke-linejoin:round; stroke-width:4; stroke-opacity:1; fill:none" points="
  1989.94,196.789 2281.13,196.789 2281.13,93.1086 1989.94,93.1086 1989.94,196.789 
  "/>
<polyline clip-path="url(#clip470)" style="stroke:#009af9; stroke-linecap:round; stroke-linejoin:round; stroke-width:4; stroke-opacity:1; fill:none" points="
  2013.82,144.949 2157.07,144.949 
  "/>
<path clip-path="url(#clip470)" d="M2194.79 164.636 Q2192.99 169.266 2191.27 170.678 Q2189.56 172.09 2186.69 172.09 L2183.29 172.09 L2183.29 168.525 L2185.79 168.525 Q2187.55 168.525 2188.52 167.692 Q2189.49 166.858 2190.67 163.756 L2191.43 161.812 L2180.95 136.303 L2185.46 136.303 L2193.56 156.581 L2201.67 136.303 L2206.18 136.303 L2194.79 164.636 Z" fill="#000000" fill-rule="evenodd" fill-opacity="1" /><path clip-path="url(#clip470)" d="M2213.47 158.293 L2221.11 158.293 L2221.11 131.928 L2212.8 133.595 L2212.8 129.335 L2221.06 127.669 L2225.74 127.669 L2225.74 158.293 L2233.38 158.293 L2233.38 162.229 L2213.47 162.229 L2213.47 158.293 Z" fill="#000000" fill-rule="evenodd" fill-opacity="1" /></svg>
